<svg id="圖層_1" data-name="圖層 1" xmlns="http://www.w3.org/2000/svg" xmlns:xlink="http://www.w3.org/1999/xlink" viewBox="0 0 300 300"><defs><style>.cls-1{fill:url(#未命名漸層_439);}.cls-2{fill:url(#未命名漸層_439-2);}.cls-3{fill:url(#未命名漸層_439-3);}.cls-4{fill:url(#未命名漸層_439-4);}.cls-5{fill:none;}.cls-6{fill:url(#未命名漸層_439-5);}.cls-7{fill:url(#未命名漸層_439-6);}.cls-8{fill:url(#未命名漸層_439-7);}.cls-9{fill:url(#未命名漸層_439-8);}.cls-10{fill:url(#未命名漸層_439-9);}.cls-11{fill:url(#未命名漸層_439-10);}.cls-12{fill:url(#未命名漸層_439-11);}.cls-13{fill:url(#未命名漸層_439-12);}.cls-14{fill:url(#未命名漸層_439-13);}.cls-15{fill:url(#未命名漸層_439-14);}.cls-16{fill:url(#未命名漸層_439-15);}.cls-17{fill:url(#未命名漸層_439-16);}.cls-18{fill:url(#未命名漸層_439-17);}.cls-19{fill:url(#未命名漸層_657);}.cls-20{fill:url(#未命名漸層_700);}.cls-21{fill:url(#未命名漸層_439-18);}.cls-22{opacity:0.13;fill:url(#未命名漸層_645);}</style><linearGradient id="未命名漸層_439" x1="186.46" y1="271.92" x2="133.62" y2="71.55" gradientUnits="userSpaceOnUse"><stop offset="0" stop-color="#ffe18a"/><stop offset="0.31" stop-color="#fbbb1d"/><stop offset="0.43" stop-color="#f5b31c"/><stop offset="0.64" stop-color="#e69b1b"/><stop offset="0.88" stop-color="#cf7818"/></linearGradient><linearGradient id="未命名漸層_439-2" x1="116.46" y1="47.53" x2="179.6" y2="248.54" xlink:href="#未命名漸層_439"/><linearGradient id="未命名漸層_439-3" x1="117.94" y1="65.13" x2="191.39" y2="243.59" xlink:href="#未命名漸層_439"/><linearGradient id="未命名漸層_439-4" x1="175.64" y1="228.78" x2="107.34" y2="51.28" xlink:href="#未命名漸層_439"/><linearGradient id="未命名漸層_439-5" x1="175.64" y1="228.78" x2="107.34" y2="51.28" xlink:href="#未命名漸層_439"/><linearGradient id="未命名漸層_439-6" x1="154.04" y1="237.09" x2="85.75" y2="59.59" xlink:href="#未命名漸層_439"/><linearGradient id="未命名漸層_439-7" x1="84.93" y1="78.71" x2="158.38" y2="257.18" xlink:href="#未命名漸層_439"/><linearGradient id="未命名漸層_439-8" x1="106.8" y1="69.71" x2="180.25" y2="248.18" xlink:href="#未命名漸層_439"/><linearGradient id="未命名漸層_439-9" x1="153.38" y1="237.34" x2="85.09" y2="59.84" xlink:href="#未命名漸層_439"/><linearGradient id="未命名漸層_439-10" x1="88.91" y1="77.07" x2="162.36" y2="255.54" xlink:href="#未命名漸層_439"/><linearGradient id="未命名漸層_439-11" x1="191.22" y1="222.79" x2="122.93" y2="45.29" xlink:href="#未命名漸層_439"/><linearGradient id="未命名漸層_439-12" x1="137.94" y1="202.29" x2="101.5" y2="7.82" xlink:href="#未命名漸層_439"/><linearGradient id="未命名漸層_439-13" x1="166.11" y1="197.02" x2="129.67" y2="2.54" xlink:href="#未命名漸層_439"/><linearGradient id="未命名漸層_439-14" x1="193.51" y1="221.91" x2="125.21" y2="44.41" xlink:href="#未命名漸層_439"/><linearGradient id="未命名漸層_439-15" x1="146.47" y1="200.7" x2="110.03" y2="6.22" xlink:href="#未命名漸層_439"/><linearGradient id="未命名漸層_439-16" x1="139.87" y1="201.93" x2="103.43" y2="7.45" xlink:href="#未命名漸層_439"/><linearGradient id="未命名漸層_439-17" x1="153.28" y1="192.49" x2="102.91" y2="2.18" xlink:href="#未命名漸層_439"/><linearGradient id="未命名漸層_657" x1="139.59" y1="156.47" x2="143.33" y2="174.13" gradientUnits="userSpaceOnUse"><stop offset="0.01" stop-color="#c6b198" stop-opacity="0"/><stop offset="0.47" stop-color="#c6b198" stop-opacity="0.46"/><stop offset="1" stop-color="#c6b198"/></linearGradient><radialGradient id="未命名漸層_700" cx="134.16" cy="147.48" r="22.93" gradientTransform="translate(-36.24 -15.26) rotate(-11.61) scale(1 1.31)" gradientUnits="userSpaceOnUse"><stop offset="0" stop-color="#fff" stop-opacity="0"/><stop offset="0.39" stop-color="#eff9f4" stop-opacity="0.38"/><stop offset="1" stop-color="#d6efe3"/></radialGradient><linearGradient id="未命名漸層_439-18" x1="141.62" y1="195.58" x2="91.24" y2="5.27" xlink:href="#未命名漸層_439"/><radialGradient id="未命名漸層_645" cx="-790.42" cy="618.28" r="59.35" gradientTransform="translate(1259.26 60.9) scale(1.4 0.31)" gradientUnits="userSpaceOnUse"><stop offset="0.24" stop-color="#463a56"/><stop offset="0.99" stop-color="#38405e" stop-opacity="0.04"/></radialGradient></defs><title>magic_props</title><path class="cls-1" d="M147.35,223.62a51.46,51.46,0,0,1-10.47-1.06A58.15,58.15,0,0,1,96,190.95c-7.91-15.8-10-35.78-5.87-56.24,4-19.83,14.13-37.17,28.52-48.84s31.54-16.61,48.45-14.06c16.48,2.48,30.13,10.83,39.46,24.15,11.45,16.34,15.07,38.73,10.17,63-4.49,22.29-17.41,41.91-35.45,53.83C170.55,219.92,158.79,223.62,147.35,223.62ZM158.53,77.92c-28.6,0-54.89,24.11-61.74,58.12-8.12,40.29,8.93,73.14,41.47,79.89,12.78,2.65,26.75-.46,39.33-8.77,16.55-10.93,28.41-29,32.55-49.52,4.52-22.47,1.3-43-9.08-57.81-8.24-11.76-20.32-19.14-34.93-21.35A51,51,0,0,0,158.53,77.92Z"/><path class="cls-2" d="M141.55,223.62a51.46,51.46,0,0,1-10.47-1.06,58.15,58.15,0,0,1-40.86-31.6c-7.91-15.8-10-35.78-5.87-56.24,4-19.83,14.13-37.17,28.52-48.84s31.54-16.61,48.45-14.06c16.48,2.48,30.13,10.83,39.46,24.15,11.45,16.34,15.07,38.72,10.17,63h0c-4.49,22.29-17.41,41.91-35.45,53.83C164.75,219.92,153,223.62,141.55,223.62ZM152.73,77.92C124.13,77.92,97.84,102,91,136c-8.12,40.29,8.93,73.14,41.47,79.89,12.78,2.65,26.75-.46,39.33-8.77,16.55-10.93,28.41-29,32.55-49.52h0c4.52-22.47,1.3-43-9.08-57.81C187,88.07,174.93,80.69,160.32,78.49A51,51,0,0,0,152.73,77.92Z"/><path class="cls-3" d="M170.82,197a45.72,45.72,0,0,1-4.84-.26c-17.26-1.84-36.57-13.1-47-27.39C96.31,138.16,92,112,106.49,93.71c4.49-5.66,11.29-8.8,19.67-9.08,16.24-.54,35.49,9.65,51.49,27.27h0c14.65,16.13,23.51,38.18,22.57,56.16-.49,9.45-3.66,17-9.16,22C185.91,194.62,179,197,170.82,197ZM127.39,92.34l-1,0c-6,.2-10.84,2.33-13.87,6.16-15.31,19.31-1.54,46.7,12.7,66.28,9.06,12.45,26.53,22.65,41.54,24.25,5.61.6,13.47.25,19.11-4.78,3.93-3.51,6.21-9.25,6.59-16.6.84-16-7.24-35.87-20.57-50.56C158,101.74,141,92.34,127.39,92.34Z"/><path class="cls-4" d="M165,200.38a45.22,45.22,0,0,1-4.79-.26c-17.13-1.83-36.31-13-46.63-27.19-22.55-31-26.88-56.93-12.52-75,4.4-5.55,11.07-8.62,19.31-8.9,16.09-.55,35.21,9.6,51.11,27.12h0c14.57,16,23.38,37.95,22.44,55.81-.49,9.32-3.6,16.8-9,21.63C179.88,198,173.06,200.38,165,200.38ZM121.59,95.72l-1,0c-6.19.21-11.11,2.4-14.23,6.34-15.5,19.55-1.65,47.15,12.69,66.86,9.14,12.55,26.75,22.84,41.88,24.45,5.7.61,13.71.25,19.48-4.9,4-3.6,6.37-9.46,6.76-16.93.84-16.15-7.28-36.13-20.7-50.91C152.45,105.19,135.35,95.72,121.59,95.72Z"/><path class="cls-5" d="M110,149c1.64-29.77,9.9-46.09,25.26-49.87.43-.11.86-.17,1.29-.24a41.28,41.28,0,0,0-15-3.19l-1,0c-6.19.21-11.11,2.4-14.23,6.34-12.14,15.31-6.28,35.56,3.73,53.09A49.47,49.47,0,0,1,110,149Z"/><path class="cls-5" d="M150.8,190c-.29.31-.6.59-.9.87a51.2,51.2,0,0,0,11,2.54c5.7.61,13.71.25,19.48-4.9,4-3.6,6.37-9.46,6.76-16.93.84-16.15-7.28-36.13-20.7-50.91a97.8,97.8,0,0,0-11.84-11.06c4.8,8.16,7.7,20.42,8.16,35.35C163.41,164.27,158.81,181.53,150.8,190Z"/><path class="cls-5" d="M155.08,145.17c-.67-21.34-6.4-33.11-11.54-37a7.59,7.59,0,0,0-4.65-1.72,7.28,7.28,0,0,0-1.75.22c-11.46,2.82-18,17.22-19.39,42.79a50.87,50.87,0,0,0,5.2,24.17,67.49,67.49,0,0,0,18.61,13.7,11.37,11.37,0,0,0,3.63-2.67C151.73,177.76,155.61,162.26,155.08,145.17Z"/><path class="cls-6" d="M171.49,116.09c-15.91-17.52-35-27.67-51.11-27.12-8.23.27-14.91,3.35-19.31,8.9-14.36,18.11-10,44.06,12.52,75,.41.57.86,1.12,1.3,1.68a60.06,60.06,0,0,1-4.8-19.43c-10-17.53-15.87-37.78-3.73-53.09,3.12-3.94,8-6.13,14.23-6.34l1,0a41.28,41.28,0,0,1,15,3.19A15,15,0,0,1,148.21,102a25.78,25.78,0,0,1,6.43,7.58,97.8,97.8,0,0,1,11.84,11.06c13.42,14.78,21.54,34.76,20.7,50.91-.39,7.48-2.73,13.33-6.76,16.93-5.77,5.15-13.78,5.51-19.48,4.9a51.2,51.2,0,0,1-11-2.54,17.5,17.5,0,0,1-7.52,4.35,62,62,0,0,0,17.85,4.92,45.13,45.13,0,0,0,4.79.26c8,0,14.86-2.33,19.92-6.85,5.4-4.83,8.52-12.31,9-21.63C194.86,154,186.05,132.14,171.49,116.09Z"/><path class="cls-7" d="M122.95,173.62a37.1,37.1,0,0,0,6.39,9.42c2.21,2.29,5.64,5,9.49,4.92a7.14,7.14,0,0,0,2.73-.63A67.49,67.49,0,0,1,122.95,173.62Z"/><path class="cls-8" d="M114.89,174.6a46.7,46.7,0,0,0,8.89,13.81c4.61,4.77,9.75,7.28,14.88,7.28H139a14.5,14.5,0,0,0,3.38-.49C131.71,190.57,121.7,183.21,114.89,174.6Z"/><path class="cls-9" d="M122.95,173.62a50.87,50.87,0,0,1-5.2-24.17c1.41-25.57,7.93-40,19.39-42.79a7.28,7.28,0,0,1,1.75-.22,7.59,7.59,0,0,1,4.65,1.72c5.14,3.9,10.87,15.67,11.54,37,.53,17.09-3.35,32.58-9.89,39.48a11.37,11.37,0,0,1-3.63,2.67,66,66,0,0,0,8.34,3.53c.3-.29.61-.57.9-.87,8-8.45,12.61-25.7,12-45-.47-14.93-3.36-27.2-8.16-35.35a73.12,73.12,0,0,0-18.07-10.67c-.43.07-.86.14-1.29.24-15.36,3.79-23.63,20.1-25.26,49.87a49.47,49.47,0,0,0,.07,6.15,149.67,149.67,0,0,0,9,13.77A49.34,49.34,0,0,0,122.95,173.62Z"/><path class="cls-10" d="M141.56,187.32a7.14,7.14,0,0,1-2.73.63c-3.86.06-7.28-2.63-9.49-4.92a37.1,37.1,0,0,1-6.39-9.42,49.34,49.34,0,0,1-3.89-4.68,149.67,149.67,0,0,1-9-13.77,60.06,60.06,0,0,0,4.8,19.43c6.81,8.62,16.82,16,27.49,20.6a17.5,17.5,0,0,0,7.52-4.35A66,66,0,0,1,141.56,187.32Z"/><path class="cls-11" d="M141.56,187.32a7.14,7.14,0,0,1-2.73.63c-3.86.06-7.28-2.63-9.49-4.92a37.1,37.1,0,0,1-6.39-9.42,49.34,49.34,0,0,1-3.89-4.68,149.67,149.67,0,0,1-9-13.77,60.06,60.06,0,0,0,4.8,19.43c6.81,8.62,16.82,16,27.49,20.6a17.5,17.5,0,0,0,7.52-4.35A66,66,0,0,1,141.56,187.32Z"/><path class="cls-12" d="M148.21,102a15,15,0,0,0-11.64-3.09,73.12,73.12,0,0,1,18.07,10.67A25.78,25.78,0,0,0,148.21,102Z"/><path class="cls-5" d="M148.56,190.37l.29.11c.18-.16.36-.3.53-.47A7.85,7.85,0,0,1,148.56,190.37Z"/><path class="cls-5" d="M152.26,191.24l-.29.28a49.43,49.43,0,0,0,9,1.87c5.7.61,13.71.25,19.48-4.9,4-3.6,6.37-9.46,6.76-16.93.84-16.15-7.28-36.13-20.7-50.91a100.38,100.38,0,0,0-7.29-7.23c3.49,8,5.64,18.94,6,31.59C165.82,163.86,160.6,182.44,152.26,191.24Z"/><path class="cls-5" d="M139.75,186.37c-1.69-2.78-2.55-8-.1-9.86,2.91-2.26,7.43.84,10.21-2.44,2.07-2.45,2-7.93,1.93-10.9,0-6.88-1.38-16.55-6.28-21.85-2.19-2.36-1.21-2.3-.86-5.27.72-6.1-.19-13.22-4.21-18.12-4.5-5.48-10.49-1.33-12.84,3.88-.32.71-.9,1.61-1.63,1.33-.5-.19-.63-.83-.66-1.36s0-1.15,0-1.72c-3.22,8.84-4.62,19.61-5.15,29.25a63.93,63.93,0,0,0,4.68,26.22A68.24,68.24,0,0,0,139.75,186.37Z"/><path class="cls-5" d="M117.27,149.16c1.54-28,9.1-44.9,21.9-49.15a43.4,43.4,0,0,0-17.59-4.29l-1,0c-6.19.21-11.11,2.4-14.23,6.34-15.5,19.55-1.65,47.15,12.69,66.86.24.33.5.64.75,1A64.4,64.4,0,0,1,117.27,149.16Z"/><path class="cls-13" d="M130.75,190.73c3.58,3.71,7.38,5.58,11.29,5.58h.26a11.17,11.17,0,0,0,2.1-.26,76.2,76.2,0,0,1-17.05-9.53A33.23,33.23,0,0,0,130.75,190.73Z"/><path class="cls-14" d="M151,101.93a11.92,11.92,0,0,0-10.31-2.36c-.51.13-1,.28-1.51.44a79.86,79.86,0,0,1,20,13.4C157,108.31,154.21,104.37,151,101.93Z"/><path class="cls-15" d="M151,101.93a11.92,11.92,0,0,0-10.31-2.36c-.51.13-1,.28-1.51.44a79.86,79.86,0,0,1,20,13.4C157,108.31,154.21,104.37,151,101.93Z"/><path class="cls-16" d="M148.56,190.37a67.58,67.58,0,0,1-8.81-4,7,7,0,0,0,.46.68C143.08,190.72,145.94,191.36,148.56,190.37Z"/><path class="cls-17" d="M148.85,190.48a10.47,10.47,0,0,1-6.61,2.93c-3.17.1-6.33-1.51-9.41-4.7a41.59,41.59,0,0,1-8-13.17,52.42,52.42,0,0,1-5-5.63,57.44,57.44,0,0,0,7.53,16.6A76.2,76.2,0,0,0,144.4,196a15.21,15.21,0,0,0,7.57-4.52C150.93,191.21,149.89,190.86,148.85,190.48Z"/><path class="cls-18" d="M165.23,145c-.4-12.65-2.54-23.57-6-31.59a79.86,79.86,0,0,0-20-13.4c-12.8,4.24-20.36,21.17-21.9,49.15a64.4,64.4,0,0,0,2.54,20.75,57.44,57.44,0,0,0,7.53,16.6A76.2,76.2,0,0,0,144.4,196a15.21,15.21,0,0,0,7.57-4.52l.29-.28C160.6,182.44,165.82,163.86,165.23,145Zm-23,48.4c-3.17.1-6.33-1.51-9.41-4.7a41.59,41.59,0,0,1-8-13.17,63.93,63.93,0,0,1-4.68-26.22c.53-9.64,1.93-20.41,5.15-29.25,0,.57,0,1.15,0,1.72s.16,1.17.66,1.36c.73.28,1.31-.62,1.63-1.33,2.35-5.21,8.34-9.36,12.84-3.88,4,4.9,4.92,12,4.21,18.12-.35,3-1.33,2.9.86,5.27,4.9,5.3,6.24,15,6.28,21.85,0,3,.14,8.46-1.93,10.9-2.78,3.28-7.3.18-10.21,2.44-2.45,1.91-1.58,7.09.1,9.86a7,7,0,0,0,.46.68c2.87,3.67,5.73,4.31,8.35,3.32a7.85,7.85,0,0,0,.82-.36c-.18.17-.35.32-.53.47A10.47,10.47,0,0,1,142.24,193.41Z"/><path class="cls-19" d="M138.46,174.27a9.74,9.74,0,0,1-5.44-1.64c-13.09-9.8,11.38-11.35,15.85-11.6,6-.33,6.32,4.42,3.15,8.25C149.52,172.3,143.47,174.48,138.46,174.27Z"/><path class="cls-20" d="M122.31,128.82c1-13.49,18.26-18.27,26.72-7.09,4.25,5.61,3.41,17.76-4.17,20.55,5-.18,9.9,4,11.95,8.59,3.72,8.25,2.08,17.81-3.95,22.85-9.87,8.27-27.1,3.22-29.51-9.43-1-5.33-2.62-15.7,4.7-17.53-2.47.61-5.94-5.26-5.88-7.14C122.27,136.65,122,132.67,122.31,128.82Z"/><path class="cls-21" d="M135.23,151.89q.21-.81.48-1.57a2.08,2.08,0,0,0,.12-1.8,2.26,2.26,0,0,0-1.18-.7c-14.75-6.55-5.59-29.39-2.64-39.58-11.92,5.38-12.69,30.28-13.29,41-1.09,19.75,10,45.91,23.55,45.62,11.28-.24,9.62-10.78,2.29-16-4.67-3.32-7.3-5.18-8.78-10.76C134.42,163,133.89,157.1,135.23,151.89Z"/><ellipse class="cls-22" cx="156" cy="251.06" rx="85" ry="19.22"/></svg>