<svg id="圖層_1" data-name="圖層 1" xmlns="http://www.w3.org/2000/svg" xmlns:xlink="http://www.w3.org/1999/xlink" viewBox="0 0 500 400"><defs><style>.cls-1,.cls-10,.cls-11,.cls-12,.cls-13,.cls-14,.cls-15,.cls-16,.cls-17,.cls-18,.cls-19,.cls-20,.cls-21,.cls-30,.cls-31,.cls-32,.cls-48,.cls-49,.cls-6,.cls-7,.cls-8,.cls-9{fill:none;}.cls-2{fill:#c59b6d;}.cls-3{fill:url(#未命名漸層_564);}.cls-4{opacity:0.5;}.cls-5{clip-path:url(#clip-path);}.cls-10,.cls-11,.cls-12,.cls-13,.cls-14,.cls-15,.cls-16,.cls-17,.cls-18,.cls-19,.cls-20,.cls-21,.cls-48,.cls-49,.cls-6,.cls-7,.cls-8,.cls-9{stroke-linecap:round;stroke-linejoin:round;}.cls-10,.cls-11,.cls-12,.cls-13,.cls-14,.cls-15,.cls-16,.cls-17,.cls-18,.cls-19,.cls-20,.cls-21,.cls-6,.cls-7,.cls-8,.cls-9{stroke-width:2.69px;}.cls-6{stroke:url(#未命名漸層_570);}.cls-7{stroke:url(#未命名漸層_564-2);}.cls-8{stroke:url(#未命名漸層_564-3);}.cls-9{stroke:url(#未命名漸層_564-4);}.cls-10{stroke:url(#未命名漸層_564-5);}.cls-11{stroke:url(#未命名漸層_564-6);}.cls-12{stroke:url(#未命名漸層_564-7);}.cls-13{stroke:url(#未命名漸層_564-8);}.cls-14{stroke:url(#未命名漸層_564-9);}.cls-15{stroke:url(#未命名漸層_564-10);}.cls-16{stroke:url(#未命名漸層_566);}.cls-17{stroke:url(#未命名漸層_564-11);}.cls-18{stroke:url(#未命名漸層_564-12);}.cls-19{stroke:url(#未命名漸層_570-2);}.cls-20{stroke:url(#未命名漸層_564-13);}.cls-21{stroke:url(#未命名漸層_564-14);}.cls-22{fill:#cf574d;}.cls-23{fill:#ac424d;}.cls-24{fill:#fa933b;}.cls-25{fill:#faaf3b;}.cls-26{fill:#fad3a4;}.cls-27{fill:#ffecc2;}.cls-28{fill:#e3dbd0;}.cls-29{fill:#d4cdc2;}.cls-30{stroke:#6b462c;stroke-width:5.86px;}.cls-30,.cls-31,.cls-32{stroke-miterlimit:10;}.cls-31{stroke:#6f3938;stroke-width:5.68px;}.cls-32{stroke:#54635e;stroke-width:4.77px;}.cls-33{fill:#311a15;}.cls-34{fill:#422424;}.cls-35{fill:#efbf21;}.cls-36{fill:#fac721;}.cls-37{clip-path:url(#clip-path-2);}.cls-38{fill:url(#未命名漸層_52);}.cls-39{fill:#e8e0d5;}.cls-40{fill:#c9c2b9;}.cls-41{fill:url(#未命名漸層_32);}.cls-42{fill:#d6cfc3;}.cls-43{fill:#e1d8cd;}.cls-44{fill:#c7c0b7;}.cls-45{fill:url(#未命名漸層_4);}.cls-46{fill:url(#未命名漸層_56);}.cls-47{fill:#f0e7dc;}.cls-48{stroke:#c9c7bd;}.cls-48,.cls-49{stroke-width:1.19px;}.cls-49{stroke:#ded7cc;}</style><linearGradient id="未命名漸層_564" x1="275.39" y1="277.53" x2="434.14" y2="307.13" gradientUnits="userSpaceOnUse"><stop offset="0.01" stop-color="#8b6239"/><stop offset="1" stop-color="#8b6239" stop-opacity="0.2"/></linearGradient><clipPath id="clip-path"><path class="cls-1" d="M193.07,348.94c-27.95-.7-57.27-1.49-82.82-10.86C71.81,324,80.46,289.65,90.51,259.61c10.27-30.69,43.09-30.17,72.54-36,40.8-8,83.31-8.87,124.84-6.34,29.14,1.77,74.05,5.3,99,20.55,25.09,15.36,36.63,58.84,26.46,84.17-10.65,26.53-51.17,27.84-76.92,27.68-41.77-.26-83.52,1.41-125.33-.23C205.17,349.24,199.15,349.09,193.07,348.94Z"/></clipPath><linearGradient id="未命名漸層_570" x1="164.53" y1="337.53" x2="432.25" y2="337.53" gradientUnits="userSpaceOnUse"><stop offset="0" stop-color="#8b6239" stop-opacity="0.2"/><stop offset="0.41" stop-color="#8b6239"/><stop offset="0.98" stop-color="#8b6239" stop-opacity="0.2"/></linearGradient><linearGradient id="未命名漸層_564-2" x1="249.27" y1="320.77" x2="438.96" y2="320.77" xlink:href="#未命名漸層_564"/><linearGradient id="未命名漸層_564-3" x1="186.04" y1="306.68" x2="444.34" y2="306.68" xlink:href="#未命名漸層_564"/><linearGradient id="未命名漸層_564-4" x1="363.64" y1="288.43" x2="440.34" y2="288.43" xlink:href="#未命名漸層_564"/><linearGradient id="未命名漸層_564-5" x1="276.19" y1="275.32" x2="438.94" y2="275.32" xlink:href="#未命名漸層_564"/><linearGradient id="未命名漸層_564-6" x1="398.61" y1="266.53" x2="430.9" y2="266.53" xlink:href="#未命名漸層_564"/><linearGradient id="未命名漸層_564-7" x1="359.57" y1="253.6" x2="414.8" y2="253.6" xlink:href="#未命名漸層_564"/><linearGradient id="未命名漸層_564-8" x1="47.48" y1="296.76" x2="103.98" y2="296.76" xlink:href="#未命名漸層_564"/><linearGradient id="未命名漸層_564-9" x1="66.31" y1="287.26" x2="129.54" y2="287.26" xlink:href="#未命名漸層_564"/><linearGradient id="未命名漸層_564-10" x1="70.35" y1="271.74" x2="106.68" y2="271.74" xlink:href="#未命名漸層_564"/><linearGradient id="未命名漸層_566" x1="65.64" y1="321.31" x2="140.31" y2="321.31" gradientUnits="userSpaceOnUse"><stop offset="0.01" stop-color="#8b6239"/><stop offset="0.04" stop-color="#8b6239" stop-opacity="0.93"/><stop offset="0.14" stop-color="#8b6239" stop-opacity="0.71"/><stop offset="0.25" stop-color="#8b6239" stop-opacity="0.52"/><stop offset="0.38" stop-color="#8b6239" stop-opacity="0.38"/><stop offset="0.52" stop-color="#8b6239" stop-opacity="0.28"/><stop offset="0.7" stop-color="#8b6239" stop-opacity="0.22"/><stop offset="1" stop-color="#8b6239" stop-opacity="0.2"/></linearGradient><linearGradient id="未命名漸層_564-11" x1="73" y1="243.1" x2="122.81" y2="243.1" xlink:href="#未命名漸層_564"/><linearGradient id="未命名漸層_564-12" x1="70.36" y1="253.8" x2="108.02" y2="253.8" xlink:href="#未命名漸層_564"/><linearGradient id="未命名漸層_570-2" x1="180.67" y1="341.99" x2="285.6" y2="341.99" xlink:href="#未命名漸層_570"/><linearGradient id="未命名漸層_564-13" x1="71.66" y1="280.97" x2="118.78" y2="280.97" xlink:href="#未命名漸層_564"/><linearGradient id="未命名漸層_564-14" x1="89.2" y1="331.25" x2="114.75" y2="331.25" xlink:href="#未命名漸層_564"/><clipPath id="clip-path-2"><path class="cls-1" d="M378.89,302.06V262.17l.07,0V256.5c0-.86-1.91-2.68-3.94-2.68H350.1a1.43,1.43,0,0,0-1,.37H143.76a1.43,1.43,0,0,0-1-.37H117.79c-2,0-3.94,1.81-3.94,2.68v4.88a1.31,1.31,0,0,0,.34.06v39.35H114c-.47.25-.45,1.81-.45,2.48v7.88c0,1.6,1.91,3.35,3.94,3.35h24.93a1.2,1.2,0,0,0,1.17-1.22v0h92.17a12.86,12.86,0,0,0,9.9,4.67H247a12.86,12.86,0,0,0,9.9-4.67h92.38v0a1.2,1.2,0,0,0,1.17,1.22H375.4c2,0,3.94-1.76,3.94-3.35v-7.88A3,3,0,0,0,378.89,302.06Z"/></clipPath><linearGradient id="未命名漸層_52" x1="256.64" y1="296" x2="257.08" y2="313.93" gradientUnits="userSpaceOnUse"><stop offset="0" stop-color="#271110" stop-opacity="0.4"/><stop offset="0.4" stop-color="#2c1613" stop-opacity="0.19"/><stop offset="1" stop-color="#311a15" stop-opacity="0"/></linearGradient><linearGradient id="未命名漸層_32" x1="183.02" y1="304.35" x2="183.02" y2="275.69" gradientUnits="userSpaceOnUse"><stop offset="0" stop-color="#9e9891"/><stop offset="0" stop-color="#9e9891"/><stop offset="0.2" stop-color="#aba59d"/><stop offset="0.47" stop-color="#b3ada4"/><stop offset="1" stop-color="#b5afa6"/></linearGradient><linearGradient id="未命名漸層_4" x1="309.68" y1="304.35" x2="309.68" y2="275.69" gradientUnits="userSpaceOnUse"><stop offset="0" stop-color="#9e9891"/><stop offset="0.54" stop-color="#aea89f"/><stop offset="1" stop-color="#b5afa6"/></linearGradient><linearGradient id="未命名漸層_56" x1="246.19" y1="296.26" x2="246.64" y2="314.19" gradientUnits="userSpaceOnUse"><stop offset="0" stop-color="#351b1a"/><stop offset="0.32" stop-color="#3b1f1e"/><stop offset="1" stop-color="#422424"/></linearGradient></defs><title>magic_props</title><path class="cls-2" d="M193.07,348.94c-27.95-.7-57.27-1.49-82.82-10.86C71.81,324,80.46,289.65,90.51,259.61c10.27-30.69,43.09-30.17,72.54-36,40.8-8,83.31-8.87,124.84-6.34,29.14,1.77,74.05,5.3,99,20.55,25.09,15.36,36.63,58.84,26.46,84.17-10.65,26.53-51.17,27.84-76.92,27.68-41.77-.26-83.52,1.41-125.33-.23C205.17,349.24,199.15,349.09,193.07,348.94Z"/><path class="cls-3" d="M394.3,317.86a60.37,60.37,0,0,1-21.78,8.86c-15.26,3.12-31,2.31-46.57,1.48L234,323.33c-25-1.33-48.29,1.63-73.41-1.12-21.63-2.37-39.93-.92-42.82-26.52l-3.42-30.41c-.57-5.08-1.08-10.53,1.35-15,3.43-6.38,11.36-8.57,18.45-10.05a884.42,884.42,0,0,1,175.93-18.72c18.19-.1,36.67.4,54.06,5.73S398,243.3,406.5,259.37C419.35,283.61,412.53,305.53,394.3,317.86Z"/><g class="cls-4"><g class="cls-5"><path class="cls-6" d="M165.87,334.66q132.57-3,265,6.49"/><path class="cls-7" d="M250.61,318.83l187,3.88"/><path class="cls-8" d="M187.39,308.79A2249,2249,0,0,1,443,307.67"/><path class="cls-9" d="M365,288.56q37,1,74-.63"/><path class="cls-10" d="M277.53,271.1a1381.09,1381.09,0,0,1,160.06,8.45"/><path class="cls-11" d="M400,265.86l29.6,1.34"/><path class="cls-12" d="M413.46,255.84l-52.54-4.5"/><path class="cls-13" d="M48.82,296.76h53.81"/><path class="cls-14" d="M67.66,286a411.62,411.62,0,0,1,60.54,2.73"/><path class="cls-15" d="M71.7,271.25a187.21,187.21,0,0,1,33.64,1.25"/><path class="cls-16" d="M67,321.64c13,0,59-.67,72-.67"/><path class="cls-17" d="M74.34,243.44q23.54-1.12,47.12-.38"/><path class="cls-18" d="M71.71,255.19l35-2.78"/><path class="cls-19" d="M182,342.38c34.14,1.85,68-1.64,102.24-1.28"/><path class="cls-20" d="M73,281.58a336.22,336.22,0,0,1,44.42-.86"/><path class="cls-21" d="M90.54,332l22.87-1.43"/></g></g><path class="cls-22" d="M204.88,179.4v56.93a2.58,2.58,0,0,0,2.58,2.58h12.89V179.4Z"/><rect class="cls-22" x="204.88" y="162.74" width="15.47" height="4.76"/><path class="cls-23" d="M220.35,238.91h12.89a2.58,2.58,0,0,0,2.58-2.58V179.4H220.35Z"/><path class="cls-22" d="M220.35,91.33H207.46a2.58,2.58,0,0,0-2.58,2.58v26h15.47Z"/><rect class="cls-23" x="220.35" y="162.74" width="15.47" height="4.76"/><path class="cls-23" d="M233.25,91.33H220.35V119.9h15.47v-26A2.58,2.58,0,0,0,233.25,91.33Z"/><path class="cls-24" d="M220.35,128.23a10.71,10.71,0,0,1,0,21.42v13.09h15.47V119.9H220.35Z"/><path class="cls-25" d="M220.35,149.65a10.71,10.71,0,1,1,0-21.42V119.9H204.88v42.84h15.47Z"/><rect class="cls-24" x="220.35" y="167.5" width="15.47" height="11.9"/><rect class="cls-25" x="204.88" y="167.5" width="15.47" height="11.9"/><path class="cls-26" d="M231.07,138.94a10.71,10.71,0,0,0-10.71-10.71v21.42A10.71,10.71,0,0,0,231.07,138.94Z"/><path class="cls-27" d="M209.64,138.94a10.71,10.71,0,0,0,10.71,10.71V128.23A10.71,10.71,0,0,0,209.64,138.94Z"/><path class="cls-22" d="M128.61,176.44l-10.08,56a2.58,2.58,0,0,0,2.08,3l12.69,2.28,10.53-58.57Z"/><rect class="cls-22" x="136.37" y="156.02" width="4.76" height="15.47" transform="translate(-46.98 271.32) rotate(-79.8)"/><path class="cls-23" d="M133.3,237.74,146,240a2.58,2.58,0,0,0,3-2.08l10.08-56-15.23-2.74Z"/><path class="cls-22" d="M159.42,92.5l-12.69-2.28a2.58,2.58,0,0,0-3,2.08l-4.6,25.57,15.23,2.74Z"/><rect class="cls-23" x="151.59" y="158.75" width="4.76" height="15.47" transform="translate(-37.14 288.56) rotate(-79.8)"/><path class="cls-23" d="M172.11,94.78,159.42,92.5l-5.06,28.11,15.23,2.74,4.6-25.57A2.58,2.58,0,0,0,172.11,94.78Z"/><path class="cls-24" d="M152.89,128.81a10.71,10.71,0,0,1-3.79,21.08l-2.32,12.88L162,165.52l7.58-42.17-15.23-2.74Z"/><path class="cls-25" d="M149.1,149.89a10.71,10.71,0,1,1,3.79-21.08l1.47-8.2-15.23-2.74L131.55,160l15.23,2.74Z"/><rect class="cls-24" x="146.55" y="166.95" width="11.9" height="15.47" transform="translate(-46.42 293.86) rotate(-79.8)"/><rect class="cls-25" x="131.32" y="164.21" width="11.9" height="15.47" transform="translate(-56.26 276.62) rotate(-79.8)"/><path class="cls-26" d="M161.54,141.25a10.71,10.71,0,0,0-8.65-12.44l-3.79,21.08A10.71,10.71,0,0,0,161.54,141.25Z"/><path class="cls-27" d="M140.45,137.46a10.71,10.71,0,0,0,8.65,12.44l3.79-21.08A10.71,10.71,0,0,0,140.45,137.46Z"/><path class="cls-22" d="M173.94,179.4v56.93a2.58,2.58,0,0,0,2.58,2.58h12.89V179.4Z"/><rect class="cls-22" x="173.94" y="162.74" width="15.47" height="4.76"/><path class="cls-23" d="M189.41,238.91H202.3a2.58,2.58,0,0,0,2.58-2.58V179.4H189.41Z"/><path class="cls-22" d="M189.41,91.33H176.52a2.58,2.58,0,0,0-2.58,2.58v26h15.47Z"/><rect class="cls-23" x="189.41" y="162.74" width="15.47" height="4.76"/><path class="cls-23" d="M202.3,91.33H189.41V119.9h15.47v-26A2.58,2.58,0,0,0,202.3,91.33Z"/><path class="cls-24" d="M189.41,128.23a10.71,10.71,0,0,1,0,21.42v13.09h15.47V119.9H189.41Z"/><path class="cls-25" d="M189.41,149.65a10.71,10.71,0,1,1,0-21.42V119.9H173.94v42.84h15.47Z"/><rect class="cls-24" x="189.41" y="167.5" width="15.47" height="11.9"/><rect class="cls-25" x="173.94" y="167.5" width="15.47" height="11.9"/><path class="cls-26" d="M200.12,138.94a10.71,10.71,0,0,0-10.71-10.71v21.42A10.71,10.71,0,0,0,200.12,138.94Z"/><path class="cls-27" d="M178.7,138.94a10.71,10.71,0,0,0,10.71,10.71V128.23A10.71,10.71,0,0,0,178.7,138.94Z"/><path class="cls-22" d="M235.83,179.4v56.93a2.58,2.58,0,0,0,2.58,2.58H251.3V179.4Z"/><rect class="cls-22" x="235.83" y="162.74" width="15.47" height="4.76"/><path class="cls-23" d="M251.3,238.91h12.89a2.58,2.58,0,0,0,2.58-2.58V179.4H251.3Z"/><path class="cls-22" d="M251.3,91.33H238.4a2.58,2.58,0,0,0-2.58,2.58v26H251.3Z"/><rect class="cls-23" x="251.3" y="162.74" width="15.47" height="4.76"/><path class="cls-23" d="M264.19,91.33H251.3V119.9h15.47v-26A2.58,2.58,0,0,0,264.19,91.33Z"/><path class="cls-24" d="M251.3,128.23a10.71,10.71,0,1,1,0,21.42v13.09h15.47V119.9H251.3Z"/><path class="cls-25" d="M251.3,149.65a10.71,10.71,0,0,1,0-21.42V119.9H235.83v42.84H251.3Z"/><rect class="cls-24" x="251.3" y="167.5" width="15.47" height="11.9"/><rect class="cls-25" x="235.83" y="167.5" width="15.47" height="11.9"/><path class="cls-26" d="M262,138.94a10.71,10.71,0,0,0-10.71-10.71v21.42A10.71,10.71,0,0,0,262,138.94Z"/><path class="cls-27" d="M240.59,138.94a10.71,10.71,0,0,0,10.71,10.71V128.23A10.71,10.71,0,0,0,240.59,138.94Z"/><path class="cls-28" d="M372.05,204.43H258.35v19.34h133.6A19.91,19.91,0,0,0,372.05,204.43Z"/><path class="cls-29" d="M258.35,223.78v20.51h113.7A19.93,19.93,0,0,0,392,224.36c0-.2,0-.39,0-.59Z"/><path class="cls-30" d="M256,244.29h116A19.93,19.93,0,0,0,392,224.36h0a19.93,19.93,0,0,0-19.93-19.93H256"/><path class="cls-22" d="M365.27,238.33l-4.08-2.82a.55.55,0,0,0-.62,0l-4.08,2.82a.55.55,0,0,1-.86-.45V223.74a.55.55,0,0,1,.55-.55h9.4a.55.55,0,0,1,.55.55v14.14A.55.55,0,0,1,365.27,238.33Z"/><path class="cls-28" d="M258,161.14H368.09v18.73H238.68A19.29,19.29,0,0,1,258,161.14Z"/><path class="cls-29" d="M368.09,179.88v19.87H258a19.3,19.3,0,0,1-19.3-19.3c0-.19,0-.38,0-.57Z"/><path class="cls-31" d="M370.36,199.75H258a19.3,19.3,0,0,1-19.3-19.3h0a19.3,19.3,0,0,1,19.3-19.3H370.36"/><path class="cls-22" d="M264.52,194l3.95-2.73a.53.53,0,0,1,.6,0L273,194a.53.53,0,0,0,.83-.44v-13.7a.53.53,0,0,0-.53-.53h-9.1a.53.53,0,0,0-.53.53v13.7A.53.53,0,0,0,264.52,194Z"/><path class="cls-28" d="M364.22,125.9H258.65v14.79H381.47C381.2,132.48,373.59,125.9,364.22,125.9Z"/><path class="cls-29" d="M258.65,140.69v15.69H364.22c9.54,0,17.27-6.82,17.27-15.24,0-.15,0-.3,0-.45Z"/><path class="cls-32" d="M256.62,156.38H364.22c9.54,0,17.27-6.82,17.27-15.24h0c0-8.42-7.73-15.24-17.27-15.24H256.62"/><rect class="cls-33" x="232.76" y="290.79" width="27.12" height="27.12" rx="12.87" ry="12.87"/><rect class="cls-33" x="114.19" y="254.19" width="264.69" height="59.05" rx="6.52" ry="6.52"/><rect class="cls-34" x="114.19" y="254.19" width="263.69" height="55.76" rx="4.31" ry="4.31"/><path class="cls-35" d="M375.4,314.5H350.47a1.2,1.2,0,0,1-1.17-1.22,9.18,9.18,0,0,1,0-2.36c.19-.74,8.91-9.41,8.91-9.41,0-.67,6.42-.73,8-.73h11.63a4.61,4.61,0,0,1,1.46,2.48v7.88C379.34,312.75,377.43,314.5,375.4,314.5Z"/><path class="cls-36" d="M117.46,314.5h24.93a1.2,1.2,0,0,0,1.17-1.22,9.18,9.18,0,0,0,0-2.36c-.19-.74-8.91-9.41-8.91-9.41,0-.67-6.42-.73-8-.73H114c-.47.25-.45,1.81-.45,2.48v7.88C113.52,312.75,115.43,314.5,117.46,314.5Z"/><path class="cls-36" d="M117.79,253.82h24.93c.65,0,1.17.3,1.17.66a2.71,2.71,0,0,1,0,1.28c-.19.4-8.91,5.08-8.91,5.08,0,.36-6.42.39-8,.39,0,0-11-.07-11.63,0s-.85.19-1.12.21a1.31,1.31,0,0,1-.34-.06V256.5C113.86,255.64,115.77,253.82,117.79,253.82Z"/><path class="cls-36" d="M375,253.82H350.1c-.65,0-1.17.3-1.17.66a2.71,2.71,0,0,0,0,1.28c.19.4,8.91,5.08,8.91,5.08,0,.36,6.42.39,8,.39H377.5a4.12,4.12,0,0,1,1.12,1c.09.09.34-.06.34-.06V256.5C379,255.64,377.05,253.82,375,253.82Z"/><g class="cls-37"><polygon class="cls-38" points="394.3 314.5 125.6 315.23 119.64 304.22 373.21 255.34 394.3 314.5"/></g><rect class="cls-39" x="122.2" y="253.08" width="248.78" height="51.27" rx="5.61" ry="5.61"/><path class="cls-40" d="M119.37,237.47l.26,21.18v45.7H246.43l-.1-51.27S214.59,233,182.85,228.55,119.37,237.47,119.37,237.47Z"/><path class="cls-41" d="M246.41,304.35v-4.46s-26.7-20.06-58.44-23.41-68.33,5-68.33,5v22.85Z"/><path class="cls-42" d="M246.41,299.89s-24.57-26.75-63.48-30.09c-22.59-1.94-57.33,4.46-57.33,4.46V224.1s45-16.72,68.59-6.69,52.21,39,52.21,39Z"/><path class="cls-43" d="M246.41,297.66s-24.57-30.09-63.48-33.44c-22.59-1.94-48.12,3.34-48.12,3.34v-53.5s38.9-13.38,62.45-3.34,49.14,42.36,49.14,42.36Z"/><path class="cls-44" d="M373.21,237.47l-.26,21.18v45.7H246.41l.1-51.27S278,233,309.74,228.55,373.21,237.47,373.21,237.47Z"/><path class="cls-45" d="M246.41,304.35v-4.46s26.47-20.06,58.21-23.41,68.33,5,68.33,5v22.85Z"/><path class="cls-29" d="M246.41,299.89S271,273.14,309.88,269.8c22.59-1.94,57.33,4.46,57.33,4.46V224.1s-45-16.72-68.59-6.69-52.21,39-52.21,39Z"/><path class="cls-28" d="M246.41,297.66s24.57-30.09,63.48-33.44c22.59-1.94,48.12,3.34,48.12,3.34v-53.5s-38.9-13.38-62.45-3.34-49.14,42.36-49.14,42.36Z"/><path class="cls-46" d="M246.43,300.79c-4.81,0-6.72,5-6.72,5h13.44S251.24,300.79,246.43,300.79Z"/><path class="cls-47" d="M246.41,297.68l-.08-44.61s-7.17-30.09-27.64-45.7C186.74,183,153.16,194,153.16,194v46.81s34-4.13,56.31,8.92C236.09,265.34,246.41,297.68,246.41,297.68Z"/><path class="cls-48" d="M345.93,220.07S317,210.88,295.14,219c-21.11,7.79-39,31.62-39,31.62"/><path class="cls-48" d="M345.93,225.74s-28.73-8.55-50.71-1c-21.24,7.33-39.1,30.08-39.1,30.08"/><path class="cls-48" d="M345.93,231.41s-28.54-7.91-50.63-.8c-21.38,6.87-39.18,28.55-39.18,28.55"/><path class="cls-48" d="M345.93,237.07s-28.35-7.26-50.55-.64c-21.51,6.41-39.26,27-39.26,27"/><path class="cls-48" d="M345.93,242.74s-28.16-6.62-50.47-.48c-21.64,5.95-39.34,25.48-39.34,25.48"/><path class="cls-48" d="M345.93,248.41s-28-6-50.39-.32C273.77,253.57,256.12,272,256.12,272"/><path class="cls-48" d="M345.93,254.07s-27.77-5.33-50.31-.16c-21.9,5-39.5,22.41-39.5,22.41"/><path class="cls-48" d="M345.93,259.74s-27.58-4.68-50.23,0c-22,4.56-39.58,20.87-39.58,20.87"/><path class="cls-49" d="M167.54,199.58S186,196,206.55,207C227.74,218.32,240,248.11,240,248.11"/><path class="cls-49" d="M167.54,204.3s18.05-3.29,38.73,7.37c21.53,11.08,34,40.73,34,40.73"/><path class="cls-49" d="M167.54,209s17.64-3,38.44,7.34c21.86,10.82,34.47,40.33,34.47,40.33"/><path class="cls-49" d="M167.54,213.74s17.22-2.7,38.15,7.3c22.2,10.57,35,39.94,35,39.94"/><path class="cls-49" d="M167.54,218.46s16.81-2.41,37.86,7.27c22.53,10.31,35.47,39.54,35.47,39.54"/><path class="cls-49" d="M167.54,223.19s16.39-2.11,37.57,7.23c22.87,10.05,36,39.15,36,39.15"/><path class="cls-49" d="M167.54,227.91s16-1.82,37.28,7.2c23.21,9.8,36.48,38.75,36.48,38.75"/><path class="cls-49" d="M167.54,232.63s15.56-1.52,37,7.16c23.54,9.54,37,38.36,37,38.36"/></svg>