<svg id="圖層_1" data-name="圖層 1" xmlns="http://www.w3.org/2000/svg" xmlns:xlink="http://www.w3.org/1999/xlink" viewBox="0 0 500 281"><defs><style>.cls-1{fill:url(#未命名漸層_680);}.cls-2{fill:url(#未命名漸層_5);}.cls-3{fill:url(#未命名漸層_514);}.cls-4{fill:url(#未命名漸層_664);}.cls-5{fill:url(#未命名漸層_5-2);}.cls-6{fill:url(#未命名漸層_514-2);}.cls-7{fill:url(#未命名漸層_664-2);}.cls-8{fill:#1a1a1a;}.cls-9{fill:url(#未命名漸層_411);}.cls-10{fill:url(#未命名漸層_261);}.cls-11{fill:url(#未命名漸層_670);}.cls-12{fill:url(#未命名漸層_670-2);}.cls-13{fill:#c34847;}.cls-14{fill:#861f20;}.cls-15{fill:url(#未命名漸層_562);}.cls-16{fill:url(#未命名漸層_546);}.cls-17{fill:url(#未命名漸層_557);}.cls-18{fill:#fff;}.cls-19{fill:url(#未命名漸層_546-2);}.cls-20{fill:url(#未命名漸層_557-2);}.cls-21{fill:url(#未命名漸層_680-2);}</style><linearGradient id="未命名漸層_680" x1="363.64" y1="-24.84" x2="348.81" y2="125.32" gradientUnits="userSpaceOnUse"><stop offset="0.01" stop-color="#4a5993"/><stop offset="1" stop-color="#4a5993" stop-opacity="0.5"/></linearGradient><linearGradient id="未命名漸層_5" x1="215.56" y1="242.44" x2="263.56" y2="191.96" gradientUnits="userSpaceOnUse"><stop offset="0" stop-color="#fff"/><stop offset="1" stop-color="#d9f0f4"/></linearGradient><radialGradient id="未命名漸層_514" cx="348.69" cy="91.72" r="59.18" gradientTransform="translate(0 -47.97) scale(1 1.52)" gradientUnits="userSpaceOnUse"><stop offset="0.28" stop-color="#fff"/><stop offset="0.98" stop-color="#d9f0f4"/></radialGradient><linearGradient id="未命名漸層_664" x1="284.32" y1="83.07" x2="380.33" y2="70.7" gradientUnits="userSpaceOnUse"><stop offset="0" stop-color="#fff"/><stop offset="0.54" stop-color="#f1fafb"/><stop offset="0.98" stop-color="#d9f0f4"/></linearGradient><linearGradient id="未命名漸層_5-2" x1="288.23" y1="147.99" x2="198.69" y2="210.06" xlink:href="#未命名漸層_5"/><radialGradient id="未命名漸層_514-2" cx="271.22" cy="256.5" r="176.04" gradientTransform="translate(3.46 -109.8) rotate(9.54) scale(1 0.64)" xlink:href="#未命名漸層_514"/><linearGradient id="未命名漸層_664-2" x1="236.85" y1="524.01" x2="305.06" y2="429.15" gradientTransform="translate(-112.91 -353.97) rotate(-7.2)" xlink:href="#未命名漸層_664"/><linearGradient id="未命名漸層_411" x1="326.13" y1="199.09" x2="236.59" y2="261.16" gradientUnits="userSpaceOnUse"><stop offset="0" stop-color="#fff"/><stop offset="0.31" stop-color="#f3fafb"/><stop offset="0.59" stop-color="#fff"/></linearGradient><linearGradient id="未命名漸層_261" x1="299.04" y1="164.42" x2="210.66" y2="225.7" gradientUnits="userSpaceOnUse"><stop offset="0" stop-color="#fff"/><stop offset="0.52" stop-color="#ebf7fa"/><stop offset="0.77" stop-color="#fff"/></linearGradient><linearGradient id="未命名漸層_670" x1="323.8" y1="119.4" x2="329.51" y2="234.27" gradientUnits="userSpaceOnUse"><stop offset="0" stop-color="#e2ded7"/><stop offset="0.98" stop-color="#b89b90"/></linearGradient><linearGradient id="未命名漸層_670-2" x1="323.65" y1="103.44" x2="326.5" y2="150.53" xlink:href="#未命名漸層_670"/><linearGradient id="未命名漸層_562" x1="323.08" y1="115.19" x2="323.44" y2="123.58" gradientUnits="userSpaceOnUse"><stop offset="0" stop-color="#fff"/><stop offset="1" stop-color="#fff" stop-opacity="0"/></linearGradient><linearGradient id="未命名漸層_546" x1="306.98" y1="94.93" x2="301.81" y2="116.34" gradientUnits="userSpaceOnUse"><stop offset="0" stop-color="#ffe73c"/><stop offset="0.41" stop-color="#ffae3b"/><stop offset="0.63" stop-color="#ff8d3b"/><stop offset="1" stop-color="#ffe83b"/></linearGradient><radialGradient id="未命名漸層_557" cx="306.5" cy="102" r="9.83" gradientTransform="translate(0 4.35) scale(1 0.96)" gradientUnits="userSpaceOnUse"><stop offset="0" stop-color="#333"/><stop offset="1"/></radialGradient><linearGradient id="未命名漸層_546-2" x1="350.42" y1="100.97" x2="350.25" y2="117.55" xlink:href="#未命名漸層_546"/><radialGradient id="未命名漸層_557-2" cx="350.56" cy="109.1" r="4.66" gradientTransform="translate(0 -60.21) scale(1 1.55)" xlink:href="#未命名漸層_557"/><linearGradient id="未命名漸層_680-2" x1="154.71" y1="106.58" x2="152.74" y2="278.62" xlink:href="#未命名漸層_680"/></defs><title>magic_props</title><path class="cls-1" d="M440.73,126.31c-18.34.08-36.64.47-55,1.22q-27.76,1.16-55.55,1.42c-26.17.24-53.49,2.89-77.52-9.21-4-2-7.08-6.4-6.11-10.73s7.28-6.81,10.19-3.46a22.67,22.67,0,0,1,29.45-32.83c-3.94-4.69-.43-12,4.18-16,5.15-4.5,11.88-7.48,18.71-7.06s13.56,4.67,15.87,11.1a25.2,25.2,0,0,1,43.52,9.33c-2.12-7.44,28.76-1.42,31.42,0,8.45,4.57,17.83,10.6,15.35,21.19,9.65,1.34,28.1,3.88,21.63,18.91a16.21,16.21,0,0,1,15.32,9c.88,1.87,1.3,4.32-.13,5.82-1.14,1.19-3,1.27-4.64,1.27Z"/><path class="cls-2" d="M229.09,251.36a24.2,24.2,0,0,0,4.49-5c-1,5.29,4.4,10.45,9.77,9.93,6.65-.64,7.77-6.27,10.52-11a13.2,13.2,0,0,0,2.49,7.37,3.66,3.66,0,0,0,1.28,1.22,3.43,3.43,0,0,0,2.34.07,11.21,11.21,0,0,0,6.52-5.23,26.32,26.32,0,0,0,2.88-8,101,101,0,0,0,1.28-34.88,4.24,4.24,0,0,0-.36-1.46c-.92-1.76-6.45-2.21-8.38-3.09a23.5,23.5,0,0,1-8.14-5.41c-3.56-3.86-7.52-7.32-11-11.27-3.21-3.66-8.78-8-13.95-7-3.56.69-6.61,2.88-9.52,5-15.28,11.33-30.82,24.21-37.19,42.13-.88,2.49-1.58,5.16-1,7.74s2.73,5,5.37,5a9,9,0,0,0,3.75-1.15l8.95-4.25c-2.36,1.93-2.43,5.83-.57,8.24,4.52,5.86,14.62,2.86,19.06-1.39-2.89,2.76,1.54,14.5,5.51,14.53A9.33,9.33,0,0,0,229.09,251.36Z"/><path class="cls-3" d="M307.68,133.86c2.56,10,16.76,30.91,28.61,20.28,6.77-6.08,17.19-22.08,25.48-40.4,14.56-32.18,22.53-71.52-7.4-76.88-8.85-1.58-18.22.87-26.4,4.17-8.82,3.56-17,6.57-24.69,12.11a4.67,4.67,0,0,0-1.73,1.8c-.62,1.47.42,3.15,1.72,4.06s2.88,1.39,4.13,2.38a37.35,37.35,0,0,0-6.79,4.1,8.45,8.45,0,0,0-3.13,3.69c-.78,2.26.28,4.83,2,6.48a19,19,0,0,0,6.21,3.49c-3.82,4.39-7.4,18.53-6.49,24.34C300.72,113.14,305.18,124.12,307.68,133.86Z"/><path class="cls-4" d="M330.68,107.15a28.08,28.08,0,0,0,9.43-9.87,77.72,77.72,0,0,0,5.68-12.11c3.77-9.65,15.83-34.42-1.83-39.2-7.81-2.11-15.33,7.92-17.47,14.27a6.39,6.39,0,0,0,4.61.56c-2.36,2.74-4.87,6-4.4,9.55l1.39.12a8.87,8.87,0,0,0-.62,8.46c.87,1.87-1.22,6.43-1.51,8.48-.35,2.47-.23,5-.51,7.44-.11,1-1.28,3.83-1.16,4.6S331,107,330.68,107.15Z"/><path class="cls-5" d="M281.69,220.16a75,75,0,0,0,34.77-14.62C345.64,183,384.4,105.16,342.1,77.06,293.86,45,249.6,95,234.56,137.68c-8,22.59-15,53.22,5.55,71.37C251.72,219.33,266.89,222.22,281.69,220.16Z"/><path class="cls-6" d="M247.19,141.84a8.59,8.59,0,0,0,2.65-1.16c9.88-6,15.6-12.92,20.28-23.22,2.52-5.55,1.79-7.36-2.13-11.76-7.47-8.41-14.32-16.18-19-26.6-2.74-6.08-4.82-12.62-9.06-17.77-5-6.1-12.51-9.58-19.93-12.3a171.08,171.08,0,0,0-22.2-6.43c-20.36-4.47-43-2-64-2.91-24.05-1.1-47.87-1-72.12-.51-4.64.1-9.72.37-13.12,3.54-2.82,2.63,17.29,18,19.46,19.22,16.45,9,35.66,17.13,54.25,19.94A162.39,162.39,0,0,0,95.5,89.43c-3.07,1.12-6.76,3.33-6.13,6.54.31,1.61,1.67,2.77,3,3.76,9.26,7.06,20.31,12.86,31.69,15.56,11.87,2.82,24.36-.38,36.5,1.54-5.38-.85-14.18,12.37-14.9,16.45a4,4,0,0,0,.23,2.7,4.41,4.41,0,0,0,2.83,1.69c14.84,4.1,30.57-1.37,44.68-6.47-3.89,2.45-2.42,9,1.51,11.4s8.89,1.82,13.44,1.19l10.6-1.46c-1.76,1.79-.85,5.08,1.23,6.49,8.55,5.82,19-4.49,24-10.26-1,1.1.13,3,1.56,3.28A3.58,3.58,0,0,0,247.19,141.84Z"/><path class="cls-7" d="M243.59,126.33a4.88,4.88,0,0,1-2.1-5.43c-1.83.51-3.86,1-5.54.12s-2.17-3.79-.42-4.52a7,7,0,0,1-8.53-9.24,13,13,0,0,1-11,2.26l.55-8.52-11.6-.48a14.07,14.07,0,0,1,6-9.83l-15.5-2.8a8.15,8.15,0,0,1,5.85-7.26,66.14,66.14,0,0,1-18.17-4.5,63.7,63.7,0,0,1,7.39-8.86,81.29,81.29,0,0,1-9.52-3,2.63,2.63,0,0,1-1.54-1.11c-.44-.93.29-2,1-2.7A28.44,28.44,0,0,1,186,56a32.05,32.05,0,0,0-9.1-4.78,49.43,49.43,0,0,1,14.13.83c10.4,2.13,21.72,4.45,30.84,10.6,6.75,4.56,9.91,11.55,13.51,18.49,4.11,7.91,8.7,15.61,12.93,23.47a22.55,22.55,0,0,0,3.44,5.19c1.28,1.32,3,2.48,3.31,4.28a6.1,6.1,0,0,1-.44,3.06C253.17,121.27,249.64,130,243.59,126.33Z"/><path class="cls-8" d="M290.19,241.21c2.43.3,4.57-1,4.65-3.56,0-.8-.5-1.81-1.27-1.61a1.52,1.52,0,0,0-.6.39c-2.45,2.22-3.63,3.44-7.16,3A12.51,12.51,0,0,0,290.19,241.21Z"/><path class="cls-8" d="M300.38,238.1a14.57,14.57,0,0,1-2.82,3.45,4.92,4.92,0,0,1-4.16,1.16l3.15-3.47c.57-.63,0-1.32.59-2a2.09,2.09,0,0,1,2.27-.72C300.19,236.88,300.84,237.4,300.38,238.1Z"/><path class="cls-9" d="M305.86,219.92c-1.39,3.06-1.75,6.45-2.29,10.42s-1.73,8.18-5.26,9.76a11.73,11.73,0,0,1-4.92.7,2.75,2.75,0,0,1-2-.55,2.9,2.9,0,0,1-.53-2.11c0-3-1.31-5.48-1.66-8.24-.29-2.31.63-4.51.43-6.8a13.6,13.6,0,0,0-1.09-3.63,37.67,37.67,0,0,1-2.45-11.3,5.51,5.51,0,0,1,.41-3,5.72,5.72,0,0,1,1.9-1.84c5-3.49,10.21-5.27,15.58-7.89,4.6-2.24,10.15-4.63,15.4-4,5,.62,4.27,4.08,2,7.47-3.76,5.52-7.29,11.5-12.08,16.16A15.44,15.44,0,0,0,305.86,219.92Z"/><path class="cls-8" d="M244.39,235.5c.75-.74.79-6.8,2.14-8.64C249.06,229.87,246.64,233.27,244.39,235.5Z"/><path class="cls-8" d="M250.38,235.76c2.52-2.06,3.52-4,3.32-7.34a1.7,1.7,0,0,0-.42-1.21,1.24,1.24,0,0,0-1.63.2,3.6,3.6,0,0,0-.76,1.62C250.21,231.42,250.43,233.31,250.38,235.76Z"/><path class="cls-10" d="M241.1,201c1.38,5.89,2.79,11.13,1.53,17.11-1.66,7.83,1.64,19.39,12.37,15,7.66-3.12,7.84-15.9,9.59-22.61,1.42-5.45,5.72-8.58,7.2-13.86,1.65-5.88-2.5-11.66-6.44-16.32-5.5-6.51-11.6-13.26-19.83-15.44a3.65,3.65,0,0,0-3,.14,3.71,3.71,0,0,0-1.2,1.75C237.35,176.58,238.75,191,241.1,201Z"/><path class="cls-11" d="M352.44,123.94q-.15-1.41-.32-2.82c-.08-.68-12.87-1.26-14-1.23-6,.19-12.11-.16-18.13-.37-1.87-.07-24.79-3.34-24.76-.19.06,7.22,0,14.08,1.25,21.26.7,4,1,8.14,1.46,12.17.54,4.41-1.09,8.56,5,8.39,9-.25,17.19-3,26.26-3,7.14,0,16.41,3,23.23,1a1.62,1.62,0,0,0,.77-.4,1.72,1.72,0,0,0,.33-1C354.63,146.59,353.64,135,352.44,123.94Z"/><path class="cls-12" d="M323.23,137.56a34.7,34.7,0,0,0,5.64,1.88c3.57.83,7.17-1.13,10.12-3.31a55.82,55.82,0,0,0,11.08-10.86l-6.82,8.14c-2,2.35-4,4.76-6.73,6.16-13.43,6.9-27.89-8.29-36.68-15C312.53,131.65,315.2,134.16,323.23,137.56Z"/><path class="cls-13" d="M327.46,144.79a2.08,2.08,0,0,1-.47.22c-1.11.33-3.56-2.16-3.44-3.22a7.08,7.08,0,0,0,.32-2.13c-.14-.71-.77-1.21-1.09-1.86a2.36,2.36,0,0,1,1.77-3.21c1.89-.22,6.42-3.09,7.88-1.14.24.32.35.72.59,1,.57.79,1.66.94,2.58,1.26,2.63.93,1.44,4.15.67,6-.89,2.14-2.55,5.15-5.4,3.74-.9-.44-1.76-1.34-2.72-1.06A3.06,3.06,0,0,0,327.46,144.79Z"/><path class="cls-14" d="M329.3,142.09c-1.91-.36-3.54-1.77-2.8-4.09,1.12-3.5,6.6-3.18,7.33.45C334.42,141.4,331.64,142.53,329.3,142.09Z"/><path class="cls-8" d="M333.89,119.23c-.5,2.8-2.73,5.54-5.16,7.22.08-.6-.17-15.59,2.85-13.11A5.94,5.94,0,0,1,333.89,119.23Z"/><path class="cls-15" d="M327.49,111.39c3.45-1.65,4.17,2.09,3.7,4.67a2.9,2.9,0,0,1-.81-.44,3.11,3.11,0,0,1,.07,2l-.4-.38a8.3,8.3,0,0,1-.64,2.49l-.2-1.1c-.53.88-1,2.07-1.88,2.62A1.14,1.14,0,0,0,327,120a1.28,1.28,0,0,1-1.42,1l.28-1.32a.47.47,0,0,0,0-.35.34.34,0,0,0-.5,0,1.58,1.58,0,0,0-.29.48,1.09,1.09,0,0,1-1.26.63l-.05-.84c-.79-.22-1.47.55-2.19,1a.55.55,0,0,1-.3.1c-.38,0-.36-.6-.18-.94s.33-.85,0-1a5.28,5.28,0,0,1-2.13,1c.23-.06.11-.45-.12-.49a1.14,1.14,0,0,0-.66.23c-.21.11-.51.15-.64-.05s.09-.52.31-.69a12.48,12.48,0,0,1-2.06.88,1.28,1.28,0,0,1,.45-.72l-1.25.15c.43-.05,1.63-2,2-2.38a8.2,8.2,0,0,1,2.94-1.62C322.53,113.92,325,112.59,327.49,111.39Z"/><path class="cls-8" d="M315.2,101.44a9.48,9.48,0,0,1-2,8.35c-5.51,6.33-16.57,3.93-18.72-4.21-1.63-6.16,3.53-11.45,9.56-11.7C308.65,93.69,314.13,96.91,315.2,101.44Z"/><path class="cls-16" d="M314.2,101.63c1.55,8.69-10.94,14.72-16.83,7.08-4.34-5.63-.41-13.36,6.91-13.95C308.8,94.4,313.46,97.48,314.2,101.63Z"/><path class="cls-17" d="M299.39,108.32a7.55,7.55,0,0,1-.53-.79,6.17,6.17,0,0,1-.73-1.84c-.75-3.63,1.05-8.43,4.93-9.17,3.66-.69,8.1,1.1,9.38,4.8,2,5.93-3.12,11.15-9.11,9.59A7.15,7.15,0,0,1,299.39,108.32Z"/><path class="cls-18" d="M303.33,100.34c-.62,1.6-3.41,2.13-4.06.27a2.44,2.44,0,0,1,2.23-2.92A2,2,0,0,1,303.33,100.34Z"/><path class="cls-8" d="M344.07,110.69a12.17,12.17,0,0,1,4.2-8c3-2.4,6.26-1.47,7.82,2a9.25,9.25,0,0,1-2.52,10.64c-2.69,2.16-8,1.21-9.17-2.18A6.46,6.46,0,0,1,344.07,110.69Z"/><path class="cls-19" d="M345.23,110.56c-.31-3.35,2-7.7,5.57-8.36a2.58,2.58,0,0,1,1.89.22c4.5,3,3.59,14-3,13.37C346.9,115.51,345.46,113.1,345.23,110.56Z"/><path class="cls-20" d="M347.14,113.49c-1.78-2.07-.47-5.87,1.05-7.73a3.89,3.89,0,0,1,2.86-1.55C356.64,104.17,352.75,120,347.14,113.49Z"/><path class="cls-18" d="M351,106.85a2.35,2.35,0,0,1-.49,1c-1.88,2.22-3.59-1.35-1.4-2.56C350.63,104.47,351.3,105.67,351,106.85Z"/><path class="cls-21" d="M69.42,200.5c-4.95-.66-10.47-1.17-14.46,1.83h0A6.9,6.9,0,0,0,55.76,214c-10.73-5.43-22.52,12.74-8,17.92,13.58,4.84,33.2,2,47.72,2.9a5.1,5.1,0,0,0-3.05,3.93c4.21,3.06,9.63,3.79,14.81,4.32a370.09,370.09,0,0,0,92.1-2.16c18.75-1.87,37.09-5.38,56-6.86,4.11-.32,9.17-1.4,10.2-5.39a7.87,7.87,0,0,0-.71-5c-3.52-8.12-13.67-12.68-22.08-9.91,4.88-20.54-28.13-29.71-42.63-26.36-13.82-15.19-38.41-19.22-56.36-9.24.84-8.89-7.38-16.3-15.92-18.88-17-5.15-37.2,4.41-44,20.85-1.35,3.25-.89.68.28,4a9.43,9.43,0,0,0-13.38,13.24C67.64,198.21,72.61,200.93,69.42,200.5Z"/></svg>