<svg id="圖層_1" data-name="圖層 1" xmlns="http://www.w3.org/2000/svg" xmlns:xlink="http://www.w3.org/1999/xlink" viewBox="0 0 300 300"><defs><style>.cls-1{fill:none;}.cls-2{opacity:0.13;fill:url(#未命名漸層_645);}.cls-3{fill:url(#未命名漸層_54);}.cls-4{fill:#fbbb1d;}.cls-5{clip-path:url(#clip-path);}.cls-6{fill:url(#未命名漸層_63);}.cls-7{fill:url(#未命名漸層_63-2);}.cls-8{fill:url(#未命名漸層_63-3);}.cls-9{fill:url(#未命名漸層_63-4);}.cls-10{fill:url(#未命名漸層_12);}.cls-11{fill:url(#未命名漸層_12-2);}</style><radialGradient id="未命名漸層_645" cx="135.77" cy="230.79" r="69.23" gradientTransform="translate(0 170.4) scale(1 0.26)" gradientUnits="userSpaceOnUse"><stop offset="0.24" stop-color="#463a56"/><stop offset="0.99" stop-color="#38405e" stop-opacity="0.04"/></radialGradient><radialGradient id="未命名漸層_54" cx="-165.77" cy="-170.58" r="65.07" gradientTransform="translate(267.39 323.79) rotate(7.48)" gradientUnits="userSpaceOnUse"><stop offset="0" stop-color="#ffe18a"/><stop offset="0.31" stop-color="#fbbb1d"/><stop offset="0.43" stop-color="#f5b31c"/><stop offset="0.64" stop-color="#e69b1b"/><stop offset="0.88" stop-color="#cf7818"/></radialGradient><clipPath id="clip-path"><path class="cls-1" d="M138.62,187.52c-14.74.84-30.1-5.64-36.86-19C89.7,144.81,106.3,121,132.54,119.48c30.64-1.73,49.9,32.16,33.59,54.56C159.86,182.67,149.28,186.91,138.62,187.52Z"/></clipPath><linearGradient id="未命名漸層_63" x1="-148.48" y1="-178.46" x2="-129.2" y2="-124.15" gradientTransform="translate(267.39 323.79) rotate(7.48)" gradientUnits="userSpaceOnUse"><stop offset="0" stop-color="#f4b01c"/><stop offset="0.39" stop-color="#d98719"/><stop offset="1" stop-color="#fbbb1d"/></linearGradient><linearGradient id="未命名漸層_63-2" x1="-184.49" y1="-165.69" x2="-165.21" y2="-111.37" xlink:href="#未命名漸層_63"/><linearGradient id="未命名漸層_63-3" x1="-139.55" y1="-181.63" x2="-120.28" y2="-127.31" xlink:href="#未命名漸層_63"/><linearGradient id="未命名漸層_63-4" x1="-193.53" y1="-162.48" x2="-174.26" y2="-108.16" xlink:href="#未命名漸層_63"/><linearGradient id="未命名漸層_12" x1="-75.27" y1="-217.31" x2="-51.62" y2="-176.13" gradientTransform="translate(267.39 323.79) rotate(7.48)" gradientUnits="userSpaceOnUse"><stop offset="0" stop-color="#cf7818"/><stop offset="1" stop-color="#fbbb1d"/></linearGradient><linearGradient id="未命名漸層_12-2" x1="-205.41" y1="-202.81" x2="-209.79" y2="-173.9" xlink:href="#未命名漸層_12"/></defs><title>magic_props</title><ellipse class="cls-2" cx="135.77" cy="230.79" rx="71.03" ry="19.07"/><path class="cls-3" d="M138.62,187.52c-14.74.84-30.1-5.64-36.86-19C89.7,144.81,106.3,121,132.54,119.48c30.64-1.73,49.9,32.16,33.59,54.56C159.86,182.67,149.28,186.91,138.62,187.52Z"/><path class="cls-4" d="M255.95,100.82c2.75-.83,5.42-1.72,8-2.71q-9.45,13.55-20.12,26.19c-2.41,2.85-4.92,5.72-8.14,7.62-8.85,5.23-20.21,2.39-30,2.5A281,281,0,0,0,170.84,137C193.87,112.2,225.3,110,255.95,100.82Z"/><path class="cls-4" d="M98,112.53c-4.73-11-12-15-21.36-21.93C69,85,62.69,78.41,56,71.7c2.33,12.06,7.7,25,15.28,34.74,4.74,6.11,30.55,17.19,30.47,25A46.67,46.67,0,0,0,98,112.53Z"/><g class="cls-5"><path class="cls-6" d="M153.38,193.09a1.31,1.31,0,0,1-.93-.58c-2-3.09-6-6.24-10.26-9.58-9.41-7.42-21.13-16.65-12-28.73,4-5.3,10.68-7.48,17.13-9.59a57.24,57.24,0,0,0,9.42-3.67c4.52-2.46,9.45-7.29,8.46-12.79a1.31,1.31,0,1,1,2.59-.46c1.23,6.88-4.51,12.68-9.79,15.56a60.13,60.13,0,0,1-9.86,3.86c-6.07,2-12.34,4-15.85,8.68-7.57,10,2.15,17.67,11.54,25.08,4.4,3.47,8.56,6.75,10.83,10.2a1.31,1.31,0,0,1-1.27,2Z"/><path class="cls-7" d="M105.57,186.72a1.31,1.31,0,0,1-1.14-1.29c-.08-6.28,4.64-11.12,8.8-15.4l.21-.21c6.6-6.78,8.12-13.28,4.65-19.89a54.51,54.51,0,0,0-5-7.53c-4.34-5.76-8.43-11.21-5.12-21.66.56-1.77,1.75-2.26,2.66-2.12a1.62,1.62,0,0,1,1.39,1.55,1.91,1.91,0,0,1-1.26,1.94,1.47,1.47,0,0,1-.48.05c-2.56,8.74.75,13.13,4.9,18.65a56.68,56.68,0,0,1,5.24,7.88c4,7.64,2.3,15.36-5.1,22.95l-.21.21c-3.81,3.91-8.12,8.33-8.06,13.53a1.32,1.32,0,0,1-1.3,1.33Z"/><path class="cls-8" d="M167.86,185.06a1.31,1.31,0,0,1-1-.81c-2.11-5.21-7-8.32-12.13-11.61-3.83-2.45-7.79-5-10.71-8.5a5.9,5.9,0,0,1-1.54-3.15c-.27-2.81,2.27-5,6.63-5.78l.8-.14c8.66-1.5,17.61-3,22.77-9.46a1.31,1.31,0,1,1,2,1.65c-5.78,7.19-15.66,8.89-24.37,10.4l-.8.14c-1.73.3-4.62,1.26-4.46,2.94a3.63,3.63,0,0,0,1,1.73c2.66,3.21,6.45,5.62,10.11,8,5.28,3.37,10.73,6.85,13.15,12.84a1.31,1.31,0,0,1-1.39,1.8Z"/><path class="cls-9" d="M96,169a1.3,1.3,0,0,1-.62-.26,4.15,4.15,0,0,1-1.61-3.33,6.39,6.39,0,0,1,2.32-4.87,14.68,14.68,0,0,1,4.76-2.28c.69-.23,1.39-.47,2.05-.75,1.77-.75,3.5-2.24,3.36-3.88s-1.9-2.78-3.61-3.92l-.76-.51c-3.64-2.5-6.69-7.16-4.78-11.47a1.31,1.31,0,0,1,2.4,1.07c-1.25,2.81,1,6.27,3.87,8.24l.73.49c2,1.35,4.53,3,4.77,5.88.26,3.15-2.5,5.48-5,6.52-.74.31-1.5.57-2.24.82a12.56,12.56,0,0,0-3.95,1.84,3.77,3.77,0,0,0-1.34,2.79,1.54,1.54,0,0,0,.57,1.28A1.31,1.31,0,0,1,96,169Z"/></g><path class="cls-4" d="M216.47,125.66a10.47,10.47,0,0,1,2.85,4.08,8.51,8.51,0,0,0,2.62-5.09l2.28,3.79c2.71-.73,3.36-4.24,3.38-7s.31-6.26,2.87-7.41a21,21,0,0,1,2.77,13c2.56-1.71,2.44-5.43,2.14-8.5s-.07-6.89,2.72-8.19l2.12,11.91a29.41,29.41,0,0,0,3-13.3c0,1.63,1.15,3.64,2,5-3-4.83,9.2-10.55,16.94-13.33.58-.82,1.18-1.62,1.75-2.45-2.57,1-5.24,1.88-8,2.71C225.3,110,193.87,112.2,170.84,137q12.34-1.69,24.8-2.26a49.08,49.08,0,0,1,19.09-5.06Z"/><path class="cls-10" d="M235.68,131.92c3.22-1.9,5.73-4.77,8.14-7.62q9.69-11.47,18.37-23.74c-7.74,2.77-20,8.49-16.94,13.33-.83-1.33-2-3.34-2-5a29.41,29.41,0,0,1-3,13.3L238.1,110.3c-2.79,1.31-3,5.13-2.72,8.19s.42,6.79-2.14,8.5a21,21,0,0,0-2.77-13c-2.56,1.15-2.85,4.6-2.87,7.41s-.67,6.32-3.38,7l-2.28-3.79a8.51,8.51,0,0,1-2.62,5.09,10.47,10.47,0,0,0-2.85-4.08l-1.73,4a49.08,49.08,0,0,0-19.09,5.06c3.34-.16,6.68-.27,10-.31C215.46,134.31,226.83,137.16,235.68,131.92Z"/><path class="cls-4" d="M72.94,102.71a5.18,5.18,0,0,0,5.38,3.81,3.89,3.89,0,0,1,1.22-3.27,12.18,12.18,0,0,0,5.87,8.08,6.71,6.71,0,0,1,3.34-5.18,11.77,11.77,0,0,0,5.19,10.71L92.79,109c5,5.57,8.83,13.27,8.67,20.92a4.31,4.31,0,0,1,.29,1.53A46.67,46.67,0,0,0,98,112.53c-4.73-11-12-15-21.36-21.93C69,85,62.69,78.41,56,71.7A87.43,87.43,0,0,0,67.52,101l1.89,1.27C70.5,103,72.1,103.71,72.94,102.71Z"/><path class="cls-11" d="M101.46,129.94c.16-7.65-3.64-15.34-8.67-20.92l1.15,7.85a11.77,11.77,0,0,1-5.19-10.71,6.71,6.71,0,0,0-3.34,5.18,12.18,12.18,0,0,1-5.87-8.08,3.89,3.89,0,0,0-1.22,3.27,5.18,5.18,0,0,1-5.38-3.81c-.84,1-2.45.33-3.53-.4L67.52,101c1.19,1.88,2.44,3.69,3.76,5.39C75.72,112.16,98.64,122.24,101.46,129.94Z"/></svg>