<svg id="圖層_1" data-name="圖層 1" xmlns="http://www.w3.org/2000/svg" xmlns:xlink="http://www.w3.org/1999/xlink" viewBox="0 0 400 400"><defs><style>.cls-1{opacity:0.3;fill:url(#未命名漸層_153);}.cls-2{fill:#9d8e84;}.cls-3{fill:#816b65;}.cls-4{fill:url(#未命名漸層_89);}.cls-5{fill:url(#未命名漸層_15);}.cls-6{fill:url(#未命名漸層_15-2);}.cls-7{fill:url(#未命名漸層_15-3);}.cls-8{fill:url(#未命名漸層_15-4);}</style><linearGradient id="未命名漸層_153" x1="41.37" y1="287.46" x2="368.83" y2="363.15" gradientUnits="userSpaceOnUse"><stop offset="0.01" stop-color="#9195a1" stop-opacity="0"/><stop offset="0.1" stop-color="#8a919e" stop-opacity="0.21"/><stop offset="0.26" stop-color="#7e8a99" stop-opacity="0.55"/><stop offset="0.41" stop-color="#758596" stop-opacity="0.79"/><stop offset="0.53" stop-color="#708294" stop-opacity="0.94"/><stop offset="0.6" stop-color="#6e8193"/><stop offset="0.96" stop-color="#828895" stop-opacity="0.04"/></linearGradient><radialGradient id="未命名漸層_89" cx="175.82" cy="131.9" r="171.35" gradientUnits="userSpaceOnUse"><stop offset="0" stop-color="#fff"/><stop offset="1" stop-color="#bacbdd"/></radialGradient><linearGradient id="未命名漸層_15" x1="289" y1="354.5" x2="238.02" y2="192.32" gradientUnits="userSpaceOnUse"><stop offset="0" stop-color="#fff"/><stop offset="1" stop-color="#fff" stop-opacity="0"/></linearGradient><linearGradient id="未命名漸層_15-2" x1="-650.3" y1="-1135.52" x2="-696.1" y2="-1217.74" gradientTransform="matrix(0, 0.87, -1, 0, -1058.68, 712.36)" xlink:href="#未命名漸層_15"/><linearGradient id="未命名漸層_15-3" x1="159.67" y1="177.24" x2="121.06" y2="240.57" xlink:href="#未命名漸層_15"/><linearGradient id="未命名漸層_15-4" x1="182.36" y1="191.07" x2="143.74" y2="254.4" xlink:href="#未命名漸層_15"/></defs><title>magic_props</title><path class="cls-1" d="M265.41,291.23c25.6,1.9,47.22,2.38,70.71,14.35,7.09,3.62,8,7.85,12.48,13.12s5.38,8.67,13.33,14.3a4.5,4.5,0,0,1,2,2.28,4.06,4.06,0,0,1-.87,3.15c-4.5,6.79-13.32,9-21.34,10.47-47.47,8.87-94.86,13.08-142.87,10.92-42.78-1.92-83-.22-125-11.77-6.95-1.91-14.05-4.11-19.59-8.72s-9.18-12.22-7.1-19.12c8.85-29.26,75.85-22,98.44-25C185.28,290,225.44,288.27,265.41,291.23Z"/><path class="cls-2" d="M267.76,253.5c11.6,18.26,25,37,33.75,56.75C246.78,346.95,171.77,348,112.6,320c-2.12-1-4.43-2.28-5.06-4.54-.49-1.73.17-3.55.81-5.23,6.74-17.54,14.91-31.17,25.48-46.8.82-1.22,1.81-2.55,3.26-2.79a5.61,5.61,0,0,1,3,.67,154,154,0,0,0,118.57.32c3.52-1.48,4.08-3,6.29-6.1C268.76,258.85,265.06,249.25,267.76,253.5Z"/><path class="cls-3" d="M266.78,263.75c-7.74-.81-18.67,2-24.86,3.75a153.06,153.06,0,0,1-36.81,5.74c-7.56.26-27.87-5.36-33.8-2.54-11.34,5.37-22.83,6.92-36.92,5.71-.92-3.41-6.93-1.3-6.94,2.23s3.22,6.11,6.22,8a115.63,115.63,0,0,0,67.91,17.06c20-1.28,59.23.16,70.81-21.84C279.13,269,274.57,264.56,266.78,263.75Z"/><circle class="cls-4" cx="200.17" cy="175.48" r="120.48"/><path class="cls-5" d="M214,265.17a135,135,0,0,0,48.21-31.63c15-15.43,18.51-34.6,30.3-51,2.08-2.9,5.63-5.07,9.13-4.38,13.27,2.62,7.28,31,5.08,39.14-9.33,34.47-42.38,59.17-76.11,67.13-6,1.42-45.3,5.77-37.08-9.73C196.29,269.56,208.92,267.14,214,265.17Z"/><ellipse class="cls-6" cx="125.67" cy="123.54" rx="31.4" ry="23.95" transform="translate(-47.08 158.37) rotate(-55.91)"/><path class="cls-7" d="M130.53,206.35q.18-1,.31-1.92c.77,6.23,2.39,14.08,9.69,15.36a14.24,14.24,0,0,0-6,8.09,35.81,35.81,0,0,0-1.45,13.68c-.58-6.48-4.9-21.63-14.19-18.19,4.45-1.67,7.83-2.95,9.47-7.81A70.13,70.13,0,0,0,130.53,206.35Z"/><path class="cls-8" d="M150.86,233.58q.09-.47.15-.94c.38,3,1.17,6.9,4.75,7.52a7,7,0,0,0-2.93,4,17.54,17.54,0,0,0-.71,6.7c-.28-3.17-2.4-10.6-6.95-8.91,2.18-.82,3.83-1.44,4.64-3.83A34.35,34.35,0,0,0,150.86,233.58Z"/></svg>