<svg id="圖層_1" data-name="圖層 1" xmlns="http://www.w3.org/2000/svg" xmlns:xlink="http://www.w3.org/1999/xlink" viewBox="0 0 208 281"><defs><style>.cls-1{fill:url(#未命名漸層_765);}.cls-2{fill:url(#未命名漸層_736);}.cls-3{opacity:0.13;fill:url(#未命名漸層_645);}.cls-4{fill:#363e59;}</style><linearGradient id="未命名漸層_765" x1="-70.69" y1="-452.04" x2="-116.4" y2="-76.91" gradientTransform="translate(118.4 528.26) rotate(3.63)" gradientUnits="userSpaceOnUse"><stop offset="0" stop-color="#e2ded7"/><stop offset="1" stop-color="#c2aba1"/></linearGradient><linearGradient id="未命名漸層_736" x1="-110.48" y1="-480.11" x2="72.35" y2="-205.85" gradientTransform="translate(118.4 528.26) rotate(3.63)" gradientUnits="userSpaceOnUse"><stop offset="0" stop-color="#e2ded7"/><stop offset="0.88" stop-color="#b89b90"/></linearGradient><radialGradient id="未命名漸層_645" cx="118.14" cy="251.83" r="76.86" gradientTransform="translate(0 185.94) scale(1 0.26)" gradientUnits="userSpaceOnUse"><stop offset="0.24" stop-color="#463a56"/><stop offset="0.99" stop-color="#38405e" stop-opacity="0.04"/></radialGradient></defs><title>magic_props</title><path class="cls-1" d="M18.2,49.4A79.84,79.84,0,0,1,17,36.26l6.22,4.57a21.25,21.25,0,0,1-3.73-15.41c.46-3.06,1.57-6.3.29-9.11,7.82,6.07,17.19,9,25.3,14.57,9.2,6.37,19.12,13.76,21.48,24.7l.52-4.19c15.31,8.24,24.81,26.19,23,43.48l3-14c7.47,9.64,12.15,20.61,17.48,31.56a48,48,0,0,1,3.72,9.19c1.69,6.73.4,13.81-1,20.6L119,139a11.12,11.12,0,0,1-1,6.69,3.21,3.21,0,0,1,3.85-2.58c4.48,1.21,4.56,23.82,3.58,26.89-4.4,13.76-14,12.73-25.23,8.4-6.63-2.56-12.65-5.09-18.17-9.73-2.33-2-10.35-14.67-12-14.95a26.18,26.18,0,0,0,16-2.43c-17.48.63-34.66-11.47-40-28.14a8.34,8.34,0,0,0,4.65-1.79C39.14,115.72,33.21,102.87,28.15,91L18.21,67.61a25.42,25.42,0,0,1,11.6.31C23,66.11,19.71,57.64,18.2,49.4Z"/><path class="cls-2" d="M80.95,115.08q15.88,26.46,30.27,53.77c8.36,15.88,18.05,33.22,24.78,49.6,1.8-.26,2.92-1.36,4.54-2.2-17.84-34.23-35.38-67.61-55-100.69C66.18,83,43.91,51.53,22.78,20.73,43.47,50.89,62.09,83.67,80.95,115.08Z"/><ellipse class="cls-3" cx="118.14" cy="251.83" rx="78.86" ry="21.17"/><path class="cls-4" d="M161.38,236.23c-.11,3.89-1.16,7.62-3.31,10a14.56,14.56,0,0,1-3.74,2.72,54.48,54.48,0,0,1-39.58,5.46c-4.66-1.09-9.47-2.5-13-5.77-12.11-11.35-5.66-25.18,5.8-32a11.71,11.71,0,0,0,4.24-3.54,4.14,4.14,0,0,0,.77-3.59c-4.16-1.12-15.47-5.65-8.46-11.07,2.28-1.76,5.39-1.89,8.27-1.94,10.33-.19,20.48-1.22,30.83-.58,3.39.21,11-1.21,13.59,1.7,7.36,8.4-9.42,5.74-10.49,11.47-.94,5,7,8.37,9.48,11.35A25.69,25.69,0,0,1,161.38,236.23Z"/></svg>