<svg id="圖層_1" data-name="圖層 1" xmlns="http://www.w3.org/2000/svg" xmlns:xlink="http://www.w3.org/1999/xlink" viewBox="0 0 500 400"><defs><style>.cls-1,.cls-2{opacity:0.5;}.cls-1{fill:url(#未命名漸層_528);}.cls-2{fill:url(#未命名漸層_549);}.cls-3{fill:url(#未命名漸層_558);}.cls-4{fill:url(#未命名漸層_558-2);}.cls-5{fill:url(#未命名漸層_558-3);}.cls-6{fill:url(#未命名漸層_15);}.cls-7{fill:url(#未命名漸層_15-2);}.cls-8{fill:url(#未命名漸層_320);}.cls-9{fill:url(#未命名漸層_320-2);}.cls-10{opacity:0.6;fill:url(#未命名漸層_289);}.cls-11,.cls-12,.cls-13{opacity:0.7;}.cls-11{fill:url(#未命名漸層_289-2);}.cls-12{fill:url(#未命名漸層_289-3);}.cls-13{fill:url(#未命名漸層_289-4);}.cls-14{opacity:0.4;fill:url(#未命名漸層_289-5);}</style><radialGradient id="未命名漸層_528" cx="471.1" cy="208.2" r="212.7" gradientTransform="translate(-184.98 61.27) scale(0.94 0.8)" gradientUnits="userSpaceOnUse"><stop offset="0" stop-color="#fff"/><stop offset="1" stop-color="#849dde"/></radialGradient><radialGradient id="未命名漸層_549" cx="450.35" cy="207.44" r="232.32" gradientTransform="translate(-184.98 60.31) scale(0.94 0.8)" gradientUnits="userSpaceOnUse"><stop offset="0.2" stop-color="#dedef4"/><stop offset="0.49" stop-color="#b0b2e2"/><stop offset="1" stop-color="#575bc0"/></radialGradient><linearGradient id="未命名漸層_558" x1="162.87" y1="155.79" x2="126.83" y2="214.89" gradientUnits="userSpaceOnUse"><stop offset="0" stop-color="#1b1464"/><stop offset="1" stop-color="#92278e" stop-opacity="0.03"/></linearGradient><linearGradient id="未命名漸層_558-2" x1="406.49" y1="128.4" x2="370.45" y2="187.51" xlink:href="#未命名漸層_558"/><linearGradient id="未命名漸層_558-3" x1="393.07" y1="161.49" x2="357.03" y2="220.6" xlink:href="#未命名漸層_558"/><linearGradient id="未命名漸層_15" x1="354.8" y1="105.89" x2="325.16" y2="154.51" gradientUnits="userSpaceOnUse"><stop offset="0" stop-color="#fff"/><stop offset="1" stop-color="#fff" stop-opacity="0"/></linearGradient><linearGradient id="未命名漸層_15-2" x1="185.48" y1="116.8" x2="149.45" y2="175.91" xlink:href="#未命名漸層_15"/><linearGradient id="未命名漸層_320" x1="231.58" y1="337.69" x2="315.19" y2="163.27" gradientUnits="userSpaceOnUse"><stop offset="0" stop-color="#432f28"/><stop offset="1" stop-color="#a08279"/></linearGradient><linearGradient id="未命名漸層_320-2" x1="218.44" y1="331.4" x2="302.05" y2="156.97" xlink:href="#未命名漸層_320"/><linearGradient id="未命名漸層_289" x1="250.2" y1="164.42" x2="275.39" y2="373.96" gradientUnits="userSpaceOnUse"><stop offset="0" stop-color="#432f28" stop-opacity="0.2"/><stop offset="1" stop-color="#2e1616"/></linearGradient><linearGradient id="未命名漸層_289-2" x1="260.57" y1="268.05" x2="260.57" y2="245.24" xlink:href="#未命名漸層_289"/><linearGradient id="未命名漸層_289-3" x1="203.86" y1="264.55" x2="203.86" y2="244.61" xlink:href="#未命名漸層_289"/><linearGradient id="未命名漸層_289-4" x1="233.59" y1="291.86" x2="233.59" y2="272.18" xlink:href="#未命名漸層_289"/><linearGradient id="未命名漸層_289-5" x1="203.28" y1="186.17" x2="262.42" y2="192.85" xlink:href="#未命名漸層_289"/></defs><title>magic_props</title><path class="cls-1" d="M394.4,113.18c-16-9-35.59-14-52.74-18.17C318,89.21,297,75.61,273.18,70.59c-21-4.41-42.59,1.54-60.64,12.82-16.75,10.47-28.36,32.59-47.73,37.39-8.83,2.19-18.12,1.14-27.07,2.7-13.8,2.41-29.17,12-34.17,26.24-5.9,16.81,8.54,32.7,2.37,50.2-4.18,11.85-14.87,18.69-22.35,28-10.41,13-29,36.81-21.18,54.87,8.8,20.28,38,15.44,52.74,28.61,11.12,10,14.06,25.25,23.43,36.59,18.79,22.74,49.35,28.37,76.33,22.52,41.7-9,83.66-12.75,125.26-20.6,35.7-6.73,63.82-34.6,66.76-72.22,1.28-16.45-2.64-33.95,4.28-48.93,5.34-11.56,16.51-19.87,20.8-31.86,4-11.24,1.29-23.7-2.37-35.06-5.42-16.83-13.44-33.81-27.87-44A84.82,84.82,0,0,0,394.4,113.18Z"/><path class="cls-2" d="M336.33,345.48c-11.44,6.27-24,9.68-41,14.48-24.89,7-50,13.64-74.24,1.83-29.84-14.53-77.35-6.19-101-29.39-11.72-11.49-16.14-27.49-23.08-41.86-7.15-14.79-20.33-24.54-27-39.19-10.52-23,5.28-53.89,24.08-67.41,14.73-10.6,26.87-15.24,36.56-32,13.12-22.67,14.79-48.61,38.6-64,32.39-21,69.63.36,104.34-10.17,20.86-6.33,43.85-16.36,61.65,2.35,17.19,18.07,25.89,38.2,52.19,44.16,9.81,2.22,20,3.41,29.13,7.66,22.14,10.33,17.1,34.39,12.86,53.78-5.63,25.76,11.61,47.24,5.75,72.29-7.54,32.2-52.33,43.31-72.58,65.89C353.35,334.09,345.16,340.64,336.33,345.48Z"/><path class="cls-3" d="M135.67,183q.17-.9.29-1.79c.72,5.81,2.23,13.14,9,14.33a13.29,13.29,0,0,0-5.59,7.55,33.42,33.42,0,0,0-1.35,12.76c-.54-6-4.57-20.19-13.24-17,4.15-1.56,7.3-2.75,8.84-7.29A65.45,65.45,0,0,0,135.67,183Z"/><path class="cls-4" d="M379.29,155.57q.17-.9.29-1.79c.72,5.81,2.23,13.14,9,14.33a13.29,13.29,0,0,0-5.59,7.55,33.42,33.42,0,0,0-1.35,12.76c-.54-6-4.57-20.19-13.24-17,4.15-1.56,7.3-2.75,8.84-7.29A65.45,65.45,0,0,0,379.29,155.57Z"/><path class="cls-5" d="M363.67,201.16q.08-.44.14-.88c.35,2.85,1.09,6.44,4.43,7a6.51,6.51,0,0,0-2.74,3.7,16.37,16.37,0,0,0-.66,6.25c-.26-3-2.24-9.89-6.49-8.32,2-.76,3.58-1.35,4.33-3.57A32.06,32.06,0,0,0,363.67,201.16Z"/><path class="cls-6" d="M332.43,128.24q.14-.74.24-1.48c.59,4.78,1.83,10.81,7.44,11.79a10.93,10.93,0,0,0-4.6,6.21,27.5,27.5,0,0,0-1.11,10.5c-.44-5-3.76-16.61-10.89-14,3.42-1.28,6-2.26,7.27-6A53.84,53.84,0,0,0,332.43,128.24Z"/><path class="cls-7" d="M156.09,156.47q.08-.44.14-.88c.35,2.85,1.09,6.44,4.43,7a6.51,6.51,0,0,0-2.74,3.7,16.37,16.37,0,0,0-.66,6.25c-.26-3-2.24-9.89-6.49-8.32,2-.76,3.58-1.35,4.33-3.57A32.06,32.06,0,0,0,156.09,156.47Z"/><path class="cls-8" d="M375.82,302.91c-39.18,5.63-76.91,25.43-117.59,29.79-46,4.92-94.61-1.37-133.37-26.57-4.56-3-9.54-8.09-7.23-13,1.1-2.36,3.59-3.71,6-4.81,40.09-18.72,84.67-25.48,128.79-25.48,28.18,0,57.31,2,84.58,9.56,19,5.28,35.81,5.59,47.15,24.87a3.83,3.83,0,0,1,.73,3c-.46,1.43-2.26,1.83-3.75,2Q378.44,302.53,375.82,302.91Z"/><path class="cls-9" d="M232.75,143.68c-4.17,3.77-6.93,8.86-9.5,13.88-16.81,32.92-41.85,58.61-44.94,97.87-.62,7.92-.57,16.63-5.71,22.69-1.75,2.07-4.05,3.73-5.24,6.16-7,14.33,38.12,25.78,46.23,27,22.92,3.44,42.24-1.5,64.35-4.39,14.46-1.89,42.72-1.94,46-21.22a4.89,4.89,0,0,0-.63-2.75C310.9,255.69,283,233.65,279.13,203c-.67-5.24,1.22-10.49,1.09-15.77-.16-6.27-3.14-12.15-3.81-18.38-1.61-15,10-27.83,20.72-38.43a287.64,287.64,0,0,0-42.6,4.52c-7.55,1.38-15.37,3.21-21.22,8.19Z"/><path class="cls-10" d="M243.19,291.18c-3,14.61-47-.2-55.86-2.12A4.66,4.66,0,0,0,185,289c-1.73.54-2.15,3-1.23,4.57s2.66,2.42,4.32,3.16c14.76,6.57,32.26,17.54,48.06,19.86,11.56,1.7,23.32.38,34.92-.93A158,158,0,0,0,288.23,313c18.69-4.24,42.35-8.05,55.85-23.08,2.52-2.81,3.63-7.27,1.53-10.4-1.82-2.71-5.32-3.61-8.5-4.31l-13.17-2.89c-4.9-1.08-10-2.26-13.82-5.55a30.24,30.24,0,0,1-4.72-5.7l-15.55-22.25c-6-8.63-12.23-17.66-13.82-28.07-1.49-9.71,4.91-18.76.47-27.65-2.17-4.34-5.24-8.58-5.17-13.44.06-4.52,2.85-9.2,1-13.31-7.81-2.23-16.44,6.19-14.4,14.06,2.41,9.3,16.42,22.07,7.7,32.12-9.92,11.4-17.31,9.2-11.42,26.63,3,9,11.58,12.64,1.84,21.89-2.22,2.1-5.15,3.41-7.11,5.75-7.38,8.78,7.88,8.93,12.2,8.47-3.48,4.43-9,6.47-14.55,8.33-12.64,4.23-23.7,3.46-36.18-.6-2,2.38-3.17,6.84-.84,9.63,1.95,2.33,5.11,3.18,8.09,3.78,8.5,1.71,17.1,2.05,25.7,2.41A8.74,8.74,0,0,1,243.19,291.18Z"/><path class="cls-11" d="M256.25,268c11.29-1.22,27.23-19.93,9.79-22.68-3.43-.54-9.45,2.06-13.72,5.65-3,2.55-5.2,5.6-4.92,8.38C248.1,266.25,251.82,268.47,256.25,268Z"/><path class="cls-12" d="M212.55,250.76c4,6.23,3.3,14.8-6.61,13.69-8.13-.92-20-14.28-7.82-19C204.3,243,209.66,246.29,212.55,250.76Z"/><path class="cls-13" d="M210.6,284.49c5.39,6.52,15.72,7.77,24.59,7.27,2.12-.12,36-12.38,21.3-17.55-8.67-3-17.41,6.92-26.45,5.26-4.27-.78-7.62-4-11.5-6s-9.62-2-11.54,1.87A16.51,16.51,0,0,0,210.6,284.49Z"/><path class="cls-14" d="M216.06,185.28a32,32,0,0,1,3-8.35c.93-1.84,3-3.8,4.76-2.75a4.12,4.12,0,0,1,1.45,2c2.35,5.16,12.61,16.93,8.77,22.93C226.12,211.47,214.39,194.14,216.06,185.28Z"/></svg>