<svg id="圖層_1" data-name="圖層 1" xmlns="http://www.w3.org/2000/svg" xmlns:xlink="http://www.w3.org/1999/xlink" viewBox="0 0 300 300"><defs><style>.cls-1{fill:#fff;}.cls-2{opacity:0.31;fill:url(#未命名漸層_773);}.cls-3{fill:url(#未命名漸層_710);}.cls-4{fill:url(#未命名漸層_710-2);}.cls-5{fill:url(#未命名漸層_710-3);}.cls-6{fill:url(#未命名漸層_710-4);}.cls-7{fill:url(#未命名漸層_439);}.cls-8{fill:none;}.cls-9{fill:url(#未命名漸層_439-2);}.cls-10{fill:url(#未命名漸層_439-3);}.cls-11{fill:url(#未命名漸層_439-4);}.cls-12{fill:url(#未命名漸層_439-5);}.cls-13{fill:url(#未命名漸層_439-6);}.cls-14{fill:url(#未命名漸層_439-7);}.cls-15{fill:url(#未命名漸層_439-8);}.cls-16{fill:url(#未命名漸層_439-9);}.cls-17{fill:url(#未命名漸層_439-10);}.cls-18{fill:url(#未命名漸層_439-11);}.cls-19{fill:url(#未命名漸層_439-12);}.cls-20{fill:url(#未命名漸層_439-13);}.cls-21{fill:url(#未命名漸層_439-14);}.cls-22{fill:url(#未命名漸層_439-15);}.cls-23{fill:url(#未命名漸層_439-16);}.cls-24{fill:url(#未命名漸層_439-17);}.cls-25{fill:url(#未命名漸層_710-5);}</style><radialGradient id="未命名漸層_773" cx="-2168.17" cy="2279.22" r="38.12" gradientTransform="translate(6840.89 -2409.46) scale(3.08 1.15)" gradientUnits="userSpaceOnUse"><stop offset="0.24" stop-color="#463a1d"/><stop offset="0.99" stop-color="#564015" stop-opacity="0.04"/></radialGradient><linearGradient id="未命名漸層_710" x1="296.24" y1="256.85" x2="201.18" y2="180.6" gradientUnits="userSpaceOnUse"><stop offset="0" stop-color="#c59b6d"/><stop offset="0.31" stop-color="#a57c52"/><stop offset="0.43" stop-color="#9d744a"/><stop offset="0.63" stop-color="#855d35"/><stop offset="0.88" stop-color="#603813"/></linearGradient><linearGradient id="未命名漸層_710-2" x1="56.96" y1="74.37" x2="179.76" y2="223.57" xlink:href="#未命名漸層_710"/><linearGradient id="未命名漸層_710-3" x1="115.27" y1="86.94" x2="200.94" y2="226.43" xlink:href="#未命名漸層_710"/><linearGradient id="未命名漸層_710-4" x1="315.27" y1="201.25" x2="178.62" y2="145.79" xlink:href="#未命名漸層_710"/><linearGradient id="未命名漸層_439" x1="248.81" y1="342.21" x2="199.96" y2="114.45" gradientUnits="userSpaceOnUse"><stop offset="0" stop-color="#ffe18a"/><stop offset="0.31" stop-color="#fbbb1d"/><stop offset="0.43" stop-color="#f5b31c"/><stop offset="0.64" stop-color="#e69b1b"/><stop offset="0.88" stop-color="#cf7818"/></linearGradient><linearGradient id="未命名漸層_439-2" x1="32.72" y1="59.07" x2="157.72" y2="218.07" xlink:href="#未命名漸層_439"/><linearGradient id="未命名漸層_439-3" x1="198.39" y1="187.06" x2="87.97" y2="96.45" xlink:href="#未命名漸層_439"/><linearGradient id="未命名漸層_439-4" x1="107.61" y1="87.87" x2="328.18" y2="372.65" xlink:href="#未命名漸層_439"/><linearGradient id="未命名漸層_439-5" x1="146.61" y1="17.55" x2="304.82" y2="308.33" xlink:href="#未命名漸層_439"/><linearGradient id="未命名漸層_439-6" x1="282.43" y1="389.68" x2="198.75" y2="163.68" xlink:href="#未命名漸層_439"/><linearGradient id="未命名漸層_439-7" x1="147.49" y1="44.04" x2="288.11" y2="302.5" xlink:href="#未命名漸層_439"/><linearGradient id="未命名漸層_439-8" x1="251.33" y1="341.67" x2="202.48" y2="113.91" xlink:href="#未命名漸層_439"/><linearGradient id="未命名漸層_439-9" x1="292.18" y1="400.41" x2="201.74" y2="156.15" xlink:href="#未命名漸層_439"/><linearGradient id="未命名漸層_439-10" x1="138.32" y1="49.03" x2="278.94" y2="307.49" xlink:href="#未命名漸層_439"/><linearGradient id="未命名漸層_439-11" x1="156.17" y1="267.39" x2="73.48" y2="172.33" xlink:href="#未命名漸層_439"/><linearGradient id="未命名漸層_439-12" x1="77.21" y1="109.09" x2="217.83" y2="367.55" xlink:href="#未命名漸層_439"/><linearGradient id="未命名漸層_439-13" x1="203.32" y1="181.04" x2="92.91" y2="90.43" xlink:href="#未命名漸層_439"/><linearGradient id="未命名漸層_439-14" x1="106.5" y1="88.73" x2="327.06" y2="373.51" xlink:href="#未命名漸層_439"/><linearGradient id="未命名漸層_439-15" x1="96.19" y1="149.34" x2="141.75" y2="218.91" xlink:href="#未命名漸層_439"/><linearGradient id="未命名漸層_439-16" x1="118.13" y1="176.82" x2="124.35" y2="206.46" xlink:href="#未命名漸層_439"/><linearGradient id="未命名漸層_439-17" x1="101.87" y1="166.09" x2="154.22" y2="245.66" xlink:href="#未命名漸層_439"/><linearGradient id="未命名漸層_710-5" x1="132.43" y1="209.42" x2="109.9" y2="178.33" xlink:href="#未命名漸層_710"/><symbol id="新增符號" data-name="新增符號" viewBox="0 0 7.31 7.31"><circle class="cls-1" cx="3.65" cy="3.65" r="3.65"/></symbol></defs><title>magic_props</title><ellipse class="cls-2" cx="158.64" cy="218.63" rx="125.64" ry="48.24"/><use width="7.31" height="7.31" transform="translate(142.21 135.52) scale(0.99)" xlink:href="#新增符號"/><path class="cls-3" d="M237.38,153.08c-.18-1.74-.48-3.68-1.89-4.71a6.37,6.37,0,0,0-3.6-.86c-13.51-.49-25.84-5.65-38.49-9.72-6.81,31.55-6.53,63.48-.82,95.67.33,0,.66,0,1-.09,3.18-.43,6.08-2,8.89-3.55,12.84-7,19-12.83,29.38-22.9a15.71,15.71,0,0,0,3.91-5,9.34,9.34,0,0,0,.49-1.57,23.63,23.63,0,0,0,.41-3.28C237.81,182,238.91,168,237.38,153.08Z"/><path class="cls-4" d="M193.4,137.79c-7.88-2.53-15.88-4.64-24.37-4.93a161.48,161.48,0,0,0-82.55,19.62,25.34,25.34,0,0,0-6.84,4.89c-8.36,9.23-3.14,23.94-2.26,34.74,1.2,14.8,5.09,18.43,20.29,23.21a784.62,784.62,0,0,0,81.48,20.92c20.24,4.06,10.19-24.44,9.56-35.29A235.45,235.45,0,0,1,193.4,137.79Z"/><path class="cls-5" d="M210.65,120.74A18.42,18.42,0,0,1,226,120.2c-.16-.15-.32-.32-.48-.47-14.57-13.24-34.54-11.24-52.9-15.27-17.82-3.91-35-8.24-53.49-6.25-32,3.45-45.45,40.16-45.22,68.29,36,8.73,71.85,18.14,107.44,27.56a8.52,8.52,0,0,0,3.31.39,6.66,6.66,0,0,0,1.93-.64C185.39,166.8,188.79,132.52,210.65,120.74Z"/><path class="cls-6" d="M226,120.2a18.42,18.42,0,0,0-15.31.54c-21.86,11.78-25.26,46.06-24.1,73.07.34-.16.68-.34,1-.51,15-8,29.9-16.06,43.91-25.68,10.32-7.1,8.73-22.23,3.33-34.21A43.66,43.66,0,0,0,226,120.2Z"/><path class="cls-7" d="M220.2,114.81c-7.35-1.15-13.46,5.46-17.42,11.75a122.72,122.72,0,0,0-18.48,71c.17,3.32,5.32-4,5.49-4.29,1.83-3.26,1-10.88,1.52-14.67,1.31-10.54,3-21.13,6.79-31.1,4.42-11.64,20.22-35.69,31-17.57,5.69,9.58,6.13,21.65,8,32.38.17,1,.47,2.18,1.42,2.57,1.16.48,2.18-.54,2.77-1.75C241.27,144.63,237.13,117.46,220.2,114.81Z"/><path class="cls-8" d="M159,208q-2.1-.55-4.22-1.06c-13.47-3.23-27.21-5.29-40.49-9.31-9-2.74-19.13-4.11-27.54-8.51l1.56,13.22a5.05,5.05,0,0,0,1.07,3.05,5,5,0,0,0,2.25,1.09c22.78,6.52,45,17,68.71,18.64C160.13,223.9,158.59,207.94,159,208Z"/><path class="cls-9" d="M129.28,191.16c10.77,2.34,20.92,6.6,31.72,8.84,3.86.8,8.11,1.42,12,2,4.36.65,7.81,2.42,12.23,2.53,5.71.14,7.68-8.71,1.94-8.76-1.44,0-2.93.41-4.3,0a4.74,4.74,0,0,1-2.76-3c-1.5-4.17-.25-4.32-5-5.81-3.22-1-6.44-2-9.74-2.67-7.27-1.53-14.59-2.83-21.9-4.17-14.57-2.67-29.19-5.47-43.2-10.39-5.47-1.92-10.91-4.19-16.68-4.83-2.45-.27-11.45-.65-13.18,1.87-2,2.9,7.22,8.92,9.59,10.38,7.08,4.35,15.46,5,23.2,7.44C111.73,187.27,120.51,189.26,129.28,191.16Z"/><path class="cls-10" d="M91.89,154.83c-1.37-13,5.74-28.33,13.66-37.38A54,54,0,0,1,128,102.85c18.41,3.37,36.93,5.65,55.06,10.4l3.12.79a35.81,35.81,0,0,0-6.47-5.09c-8.49-5.19-18.68-6.61-28.55-7.91-12.65-1.67-26-3.25-37.74,1.87-9.19,4-16.34,11.91-20.81,20.89a68.89,68.89,0,0,0-7,22.54c-.32,2.75-1.22,7.44-.45,10.09.42,1.47,2.07,2.67,3.41,3.23.33.14,4.56.8,4.39.24A26.37,26.37,0,0,1,91.89,154.83Z"/><path class="cls-11" d="M229.46,118.9c-4.59-5.89-10-9.06-15.54-10.05a7.91,7.91,0,0,0-.92-.32C193.75,103.25,175.21,96,155.2,94.4c-4.55-.37-18.35-2.61-28-1.35a48.14,48.14,0,0,0-11.76.89c-11.4,2.42-26.76,9.94-32.69,20.53-4.81,8.59-9.38,18.35-11.48,28C70,148.43,66,159.33,69.62,165c2.24,3.57,7.55,5.8,11.35,7.15,5.6,2,11.44,4.36,17.18,5.94,9.32,2.57,18.61,4.71,27.81,7.49,10.87,3.28,21.84,6.24,32.8,9.2,2.72.73,25.53,2.53,25.54,2.78a122.72,122.72,0,0,1,18.48-71c4-6.29,10.08-12.91,17.42-11.75,16.93,2.66,21.07,29.82,21,48.36a5.81,5.81,0,0,0,.42-1.15C244.95,148.4,237.75,129.53,229.46,118.9Zm-44.59,3c-6.16,7.2-9.63,16.29-12.43,25.34a234.27,234.27,0,0,0-6.75,27.68c-.25,1.41-18-1.48-19.66-1.8a170.9,170.9,0,0,1-20.08-5.36c-6.72-2.18-13.28-4.41-20-6.35-2-.59-20.21-4.48-20.29-5.52-.73-10.68,2.2-22.46,7-32,4.47-9,11.62-16.87,20.81-20.89,11.69-5.12,25.09-3.54,37.74-1.87,9.86,1.3,20.06,2.72,28.55,7.91a35.81,35.81,0,0,1,6.47,5.09c1.85.46,3.73.89,5.62,1.26A45.2,45.2,0,0,0,184.87,121.86Z"/><path class="cls-8" d="M159,208q-2.1-.55-4.22-1.06c-13.47-3.23-27.21-5.29-40.49-9.31-9-2.74-19.13-4.11-27.54-8.51l1.56,13.22a5.05,5.05,0,0,0,1.07,3.05,5,5,0,0,0,2.25,1.09c22.78,6.52,45,17,68.71,18.64C160.13,223.9,158.59,207.94,159,208Z"/><path class="cls-12" d="M239.88,175.64c-1.11,12.59-2.29,25.43-6.47,37.28a30.56,30.56,0,0,0,4.23-7.15c3.11-7.29,3.79-15.36,4.35-23.19.6-8.29,1.72-16.59.32-24.87-.06-.34-.37-.77-.62-.55a22.62,22.62,0,0,0-3.43,4.9c-1,2-2.72,7.25,1.15,6.61l.85-.16c-.08.82.1,1.65,0,2.5C240.16,172.55,240,174.1,239.88,175.64Z"/><path class="cls-13" d="M240.51,167.86q0-.13,0-.26c-1.32-.07-4.1,1.6-4.48,2.92a8.57,8.57,0,0,0,.17,2c0,.92,0,1.84,0,2.76,0,3.07.38,6.41-.24,9.44-1.38,6.71-.82,17.92-7.51,21.87-10.76,6.36-19.15,14.3-30,20.49a3.05,3.05,0,0,1-2.11.58c-1.14-.27-1.55-1.65-1.76-2.8-.4-2.19-6.05-27.24-4.64-27.54-12,2.57-4.85,31.68-3.45,40a23.22,23.22,0,0,0,3,8.82c.41,0,.82-.09,1.23-.17,3.9-.75,7.26-3.13,10.44-5.5a353.6,353.6,0,0,0,29.63-24.7,27.45,27.45,0,0,0,2.7-2.92c4.18-11.86,5.36-24.69,6.47-37.28C240.11,173,240.72,170.48,240.51,167.86Z"/><path class="cls-14" d="M240.86,151.35q-1.37.42-2.78.94c-14.42,5.31-31.43,17.7-44.09,25.95-3.35,2.18-4.33,3.77-4.94,6.49q26.09-16.37,51.83-33.28Z"/><path class="cls-15" d="M189.06,184.73c-.22,1-.4,2.14-.62,3.52-.33,2.08.71,4.91,2.81,4.66a4.09,4.09,0,0,0,1.79-.86c14-9.84,30-15.54,44.41-25.23a10.36,10.36,0,0,0,2.82-2.47c2.37-3.36,1.44-9.16.62-12.9Q215.14,168.36,189.06,184.73Z"/><path class="cls-16" d="M190.83,199c-5.55,4.12-3.73,6.44-1.92,12.75-.18-.62,22.15-12.07,24.16-13.16,5-2.73,12.89-6.19,18.82-10.68,3.37-2.55,6.1-5.43,7.3-8.7a23.7,23.7,0,0,0,1.06-9.33C223.25,178.81,206,187.75,190.83,199Z"/><path class="cls-17" d="M239.84,169.69c.64-1.26,1.2-3.25,1.3-3.31-5.38,3.39-10.78,6-16.4,8.94s-10.94,5.79-16.3,8.9c-4,2.34-27.52,14.53-25.11,19.18.47.91,7.14-4.12,7.5-4.39a251.66,251.66,0,0,1,27.56-17.43c4.9-2.74,9.86-5.38,14.83-8,1.76-.93,4.55-1.73,6-3A3,3,0,0,0,239.84,169.69Z"/><path class="cls-8" d="M159,208q-2.1-.55-4.22-1.06c-13.47-3.23-27.21-5.29-40.49-9.31-9-2.74-19.13-4.11-27.54-8.51l0,.35a7.07,7.07,0,0,1,1.29,1.08,7.07,7.07,0,0,0-1.29-1.08l1.52,12.87a5.05,5.05,0,0,0,1.07,3.05,5,5,0,0,0,2.25,1.09c13.92,4,27.63,9.45,41.6,13.48a38.67,38.67,0,0,0,5-.14,38.67,38.67,0,0,1-5,.14,129.76,129.76,0,0,0,27.1,5.17C160.13,223.9,158.59,207.94,159,208Z"/><path class="cls-18" d="M89.35,205.44a5.05,5.05,0,0,1-1.07-3.05l-1.52-12.87a7.25,7.25,0,0,0-3.67-1.21c-.51,0,.87,15.1,1.37,16.86a3.18,3.18,0,0,0,2.86,2.73c8.29,2.46,16.51,4.78,24.72,7.49,6.85,2.27,13.92,4.37,21.15,4.62-14-4-27.68-9.49-41.6-13.48A5,5,0,0,1,89.35,205.44Z"/><path class="cls-19" d="M186.45,237.38A184.54,184.54,0,0,1,184,199.95c-7.23.81-15.18-.49-22.38-2-16.81-3.48-33-8.69-49.68-13.1a294.15,294.15,0,0,1-33.28-11c-3-1.18-5.87-3.72-8.29-5.81-6.79,7.45.56,25.46,2.43,36.14.39,2.23.86,4.56,2.34,6.27s3.52,2.41,5.54,3.14q48.23,17.36,97.69,31c3.6,1,7.33,2,11,1.59A23.22,23.22,0,0,1,186.45,237.38Zm-74.4-22c-8.21-2.72-16.43-5-24.72-7.49a3.18,3.18,0,0,1-2.86-2.73c-.5-1.76-1.89-16.88-1.37-16.86a7.25,7.25,0,0,1,3.67,1.21l0-.35c8.41,4.4,18.49,5.76,27.54,8.51,15.08,4.57,31.17,7.21,46.36,11.14a2.33,2.33,0,0,1,1.19.57,2.38,2.38,0,0,1,.34,1.82c-.41,5,1,10.15.15,15.06A264.67,264.67,0,0,1,133.2,220C126,219.76,118.9,217.66,112.05,215.39Z"/><path class="cls-20" d="M138.2,129.86a84.3,84.3,0,0,0-9.37,38.38.62.62,0,0,0,.59.77l3.36.82c-1.35-.33,4.08-23.06,4.82-25.3,3-9.14,8-18.28,15.76-24.23,5.71-4.37,12.51-11.34,19.62-12.93C161.79,103.07,143,120.91,138.2,129.86Z"/><path class="cls-21" d="M137.1,103.32c-22.29,14.79-25.5,40.11-27.95,64.88,9.7.83,15.58,5.51,19.45,5.27.16-14.72,2.83-30.92,9.59-43.61,6.55-12.28,19.73-18.44,32-24.52a26.29,26.29,0,0,1,6.28-2.29c-4.59-1.35-12.31-6.54-15.64-6.88C152.92,95.34,143.61,99,137.1,103.32Z"/><path class="cls-22" d="M129.51,190.4c-.56,3.72-5.65,5.85-9,6.39-2,.32-4.27.11-5.63-1.38a7.86,7.86,0,0,1-1.53-4.23c-.5-3.24-.2-7-1.06-10.08-.65-2.37-4.32-5.7-1-7.44C121.81,168.14,131,180.22,129.51,190.4Z"/><path class="cls-23" d="M128.52,189.41c-.56,3.72-5.65,5.85-9,6.39-2,.32-4.27.11-5.63-1.38a7.86,7.86,0,0,1-1.53-4.23c-.5-3.24-.2-7-1.06-10.08-.65-2.37-4.32-5.7-1-7.44C120.82,167.15,130.05,179.23,128.52,189.41Z"/><path class="cls-24" d="M105.95,191.54a5.8,5.8,0,0,1-.53-.64c-3.32-4.66-.09-15.63,4.6-18.3a7.48,7.48,0,0,1,4.13-.75c8.47.43,12.64,13.87,9.53,21.15a4,4,0,0,1-1.44,1.92C118.5,197.2,109.28,195,105.95,191.54Z"/><path class="cls-25" d="M112.49,188.53c-1-2.37-.94-8.64,1.35-8.59l2.16,0a20.73,20.73,0,0,1-.32,5.32,2.51,2.51,0,0,1,2.47,1.28c1.73,3.26-3,4.24-5.14,2.72A1.86,1.86,0,0,1,112.49,188.53Z"/></svg>