<svg id="圖層_1" data-name="圖層 1" xmlns="http://www.w3.org/2000/svg" xmlns:xlink="http://www.w3.org/1999/xlink" viewBox="0 0 500 400"><defs><style>.cls-1{opacity:0.3;fill:url(#未命名漸層_645);}.cls-2{fill:url(#未命名漸層_591);}.cls-3{opacity:0.22;}.cls-10,.cls-11,.cls-12,.cls-13,.cls-16,.cls-17,.cls-4,.cls-5,.cls-6,.cls-7,.cls-8,.cls-9{fill:none;}.cls-10,.cls-11,.cls-12,.cls-13,.cls-16,.cls-4,.cls-5,.cls-6,.cls-7,.cls-8,.cls-9{stroke-linecap:round;}.cls-10,.cls-11,.cls-12,.cls-13,.cls-4,.cls-5,.cls-6,.cls-7,.cls-8,.cls-9{stroke-linejoin:round;stroke-width:2.48px;}.cls-4{stroke:url(#未命名漸層_707);}.cls-5{stroke:url(#未命名漸層_707-2);}.cls-6{stroke:url(#未命名漸層_707-3);}.cls-7{stroke:url(#未命名漸層_707-4);}.cls-8{stroke:url(#未命名漸層_707-5);}.cls-9{stroke:url(#未命名漸層_707-6);}.cls-10{stroke:url(#未命名漸層_707-7);}.cls-11{stroke:url(#未命名漸層_707-8);}.cls-12{stroke:url(#未命名漸層_707-9);}.cls-13{stroke:url(#未命名漸層_707-10);}.cls-14{fill:url(#未命名漸層_661);}.cls-15{opacity:0.13;fill:url(#未命名漸層_645-2);}.cls-16,.cls-17{stroke:#1a1a1a;stroke-miterlimit:10;stroke-width:7.51px;}.cls-18{fill:url(#未命名漸層_15);}.cls-19{fill:url(#未命名漸層_15-2);}</style><radialGradient id="未命名漸層_645" cx="265.75" cy="266.15" r="247.22" gradientTransform="translate(0 160.79) scale(1 0.4)" gradientUnits="userSpaceOnUse"><stop offset="0.24" stop-color="#463a56"/><stop offset="0.99" stop-color="#38405e" stop-opacity="0.04"/></radialGradient><linearGradient id="未命名漸層_591" x1="463.5" y1="171.71" x2="133.97" y2="304.59" gradientUnits="userSpaceOnUse"><stop offset="0" stop-color="#deccba"/><stop offset="1" stop-color="#f0e7dc"/></linearGradient><linearGradient id="未命名漸層_707" x1="127.38" y1="282.52" x2="254.88" y2="282.52" gradientUnits="userSpaceOnUse"><stop offset="0" stop-color="#726252" stop-opacity="0.1"/><stop offset="0.98" stop-color="#9d8570"/></linearGradient><linearGradient id="未命名漸層_707-2" x1="146.82" y1="271.51" x2="265.8" y2="271.51" xlink:href="#未命名漸層_707"/><linearGradient id="未命名漸層_707-3" x1="176.79" y1="271.73" x2="281.23" y2="271.73" xlink:href="#未命名漸層_707"/><linearGradient id="未命名漸層_707-4" x1="173.68" y1="256.95" x2="292.4" y2="256.95" xlink:href="#未命名漸層_707"/><linearGradient id="未命名漸層_707-5" x1="202.09" y1="254.72" x2="314.22" y2="254.72" xlink:href="#未命名漸層_707"/><linearGradient id="未命名漸層_707-6" x1="204.4" y1="242.36" x2="337.58" y2="242.36" xlink:href="#未命名漸層_707"/><linearGradient id="未命名漸層_707-7" x1="248.33" y1="241.09" x2="353.52" y2="241.09" xlink:href="#未命名漸層_707"/><linearGradient id="未命名漸層_707-8" x1="248" y1="229.96" x2="369.58" y2="229.96" xlink:href="#未命名漸層_707"/><linearGradient id="未命名漸層_707-9" x1="282.91" y1="226.73" x2="382.93" y2="226.73" xlink:href="#未命名漸層_707"/><linearGradient id="未命名漸層_707-10" x1="271.24" y1="212.17" x2="396.11" y2="212.17" xlink:href="#未命名漸層_707"/><linearGradient id="未命名漸層_661" x1="125.9" y1="196.03" x2="159.12" y2="404.64" gradientUnits="userSpaceOnUse"><stop offset="0" stop-color="#f0e7dc"/><stop offset="1" stop-color="#c6b198"/></linearGradient><radialGradient id="未命名漸層_645-2" cx="286.8" cy="231.33" r="101.86" gradientTransform="translate(0 170.8) scale(1 0.26)" xlink:href="#未命名漸層_645"/><linearGradient id="未命名漸層_15" x1="245.55" y1="396.32" x2="306.3" y2="396.32" gradientTransform="translate(-116.71 -217.98) rotate(-5.15)" gradientUnits="userSpaceOnUse"><stop offset="0" stop-color="#fff"/><stop offset="1" stop-color="#fff" stop-opacity="0"/></linearGradient><linearGradient id="未命名漸層_15-2" x1="332.14" y1="421.81" x2="392.89" y2="421.81" xlink:href="#未命名漸層_15"/></defs><title>magic_props</title><path class="cls-1" d="M103.2,280.5c56.15,18.19,111.63,89.69,176,74.91,30.46-7,53.59-30.36,77.4-49,16.67-12.7,35.15-20.16,53.71-29.39,15-7.47,31.88-17,45.31-27,8.24-6.12,11.86-8.16,2.61-16.81-12.26-11.45-35.8-8.53-50.82-13.65-17.37-5.93-34.67-12.15-50.8-21-7.62-4.19-14.63-9.48-22.52-13.12-14.48-6.68-31.56-6.76-46.46-1.34-13.31,4.85-20.59,16-32.2,22-17.2,8.88-41.65,11.33-60.27,17.67-18.91,6.45-37.62,13.5-56.34,20.48-14.41,5.37-40.15,6.89-52.27,14.7C71.05,269,92.4,277,103.2,280.5Z"/><path class="cls-2" d="M257.31,334.34c14.09-2.8,26.07-11.65,38.12-19.47C343.87,283.4,398.1,265,447.88,235.92l-63.61-22.26c-2.44-.85-5.26-4-3.07-5.33-10.82,6.83-66-18.12-73.7-27.07a4.94,4.94,0,0,1-5.18.91l.13-6.31c-18.32-3.37-19.79-15.4-36.71-3.86-12.08,8.24-24,16.39-37.66,21.94-32.88,13.39-66.87,19.46-96.91,39.68C121.28,240.27,99.23,256,87,255.07a128.13,128.13,0,0,1,51,15c7.35,4,14.3,8.67,21.34,13.18,13.68,8.76,28.49,15.51,42.62,23.47a78.36,78.36,0,0,1,13.93,10.46c2,1.82,4,3.68,6,5.5a67,67,0,0,1,5.58,5c3.56,4.08,8.53,5.43,13.54,6.65A37.78,37.78,0,0,0,257.31,334.34Z"/><g class="cls-3"><path class="cls-4" d="M128.62,247.39,161,268.68c8.91,5.86,17.84,11.73,27.2,16.85,21.33,11.67,44.74,19.35,65.43,32.12"/><path class="cls-5" d="M148.06,239.22c7.36,13.54,23,19.83,37.43,25.34,28.11,10.75,52.35,26.8,79.07,39.24"/><path class="cls-6" d="M178,244.29c8.55,6.2,18.93,9.19,28.84,12.84,26.49,9.75,50.74,24.86,73.13,42"/><path class="cls-7" d="M174.92,223.32c8.7,10.84,21.88,16.87,34.43,22.84a865.6,865.6,0,0,1,81.8,44.42"/><path class="cls-8" d="M203.33,224.3Q259.41,252.38,313,285.14"/><path class="cls-9" d="M205.64,210.15a112.18,112.18,0,0,0,33.06,17.8c7.86,2.65,16,4.42,23.8,7.22a176.18,176.18,0,0,1,22.79,10.6q25.91,13.71,51.05,28.82"/><path class="cls-10" d="M249.57,215.59q52,24.25,102.71,51"/><path class="cls-11" d="M249.24,196a689.56,689.56,0,0,0,95,53.26c8.59,4,17.49,7.9,24.08,14.69"/><path class="cls-12" d="M284.15,200.71a431.3,431.3,0,0,0,97.54,52"/><path class="cls-13" d="M272.48,183.12C299,195.06,325.55,207,351,221.05c14.14,7.79,28.18,16.31,43.85,20.17"/></g><path class="cls-14" d="M214,291.64c-1.75,13.83,9.7,29.83,17.51,39.34C195.22,306.2,149,282.86,107.13,269c-7.81-2.59-15.89-4.3-23.66-7-12-4.2-22.29-10-29.7-20.49-3.43-4.84-8.19-30.13-9.77-31.2,13.66,9.2,26,17.17,41.77,22.47,3.65,1.23,46.26,9.62,45.94,7.55A25.25,25.25,0,0,0,138.53,254l4.76-8.09c-7.51,12.75,72,35.64,77,41l-5.28.45A20.42,20.42,0,0,0,214,291.64Z"/><ellipse class="cls-15" cx="286.8" cy="231.33" rx="104.51" ry="28.06"/><path class="cls-16" d="M313.31,170.93l77.59-33.83s18.07-6.92,17.42,9.58"/><path class="cls-16" d="M165.8,142.7l77.59-33.83s18.07-6.92,17.42,9.58"/><path class="cls-17" d="M229.79,157.81c2.11,23.4-10.09,39.56-27.24,36.09s-32.77-25.26-34.88-48.67,10.09-39.56,27.24-36.09S227.69,134.41,229.79,157.81Z"/><path class="cls-17" d="M318.32,175.42c2.11,23.4-10.09,39.56-27.24,36.09s-32.77-25.26-34.88-48.67,10.09-39.56,27.24-36.09S316.21,152,318.32,175.42Z"/><path class="cls-17" d="M229,146.13s7.61-1.54,13.17-.41,12.93,7,12.93,7"/><path class="cls-18" d="M224.73,158.27c2.11,23.4-10.09,39.56-27.24,36.09s-32.77-25.26-34.88-48.67,10.09-39.56,27.24-36.09S222.63,134.86,224.73,158.27Z"/><path class="cls-19" d="M313.26,175.88c2.11,23.4-10.09,39.56-27.24,36.09s-32.77-25.26-34.88-48.67,10.09-39.56,27.24-36.09S311.15,152.47,313.26,175.88Z"/><path class="cls-17" d="M224.73,158.27c2.11,23.4-10.09,39.56-27.24,36.09s-32.77-25.26-34.88-48.67,10.09-39.56,27.24-36.09S222.63,134.86,224.73,158.27Z"/><path class="cls-17" d="M313.26,175.88c2.11,23.4-10.09,39.56-27.24,36.09s-32.77-25.26-34.88-48.67,10.09-39.56,27.24-36.09S311.15,152.47,313.26,175.88Z"/><path class="cls-17" d="M223.9,146.59s7.61-1.54,13.17-.41,12.93,7,12.93,7"/></svg>