<svg id="圖層_1" data-name="圖層 1" xmlns="http://www.w3.org/2000/svg" xmlns:xlink="http://www.w3.org/1999/xlink" viewBox="0 0 300 300"><defs><style>.cls-1{fill:url(#未命名漸層_439);}.cls-2{fill:url(#未命名漸層_12);}.cls-3{fill:url(#未命名漸層_15);}.cls-4{opacity:0.31;fill:url(#未命名漸層_569);}.cls-5{fill:url(#未命名漸層_400);}.cls-6{fill:url(#未命名漸層_443);}.cls-7{fill:url(#未命名漸層_405);}.cls-8{fill:url(#未命名漸層_15-2);}.cls-9{fill:url(#未命名漸層_448);}</style><linearGradient id="未命名漸層_439" x1="132.37" y1="41.71" x2="170.92" y2="150.73" gradientUnits="userSpaceOnUse"><stop offset="0" stop-color="#ffe18a"/><stop offset="0.31" stop-color="#fbbb1d"/><stop offset="0.43" stop-color="#f5b31c"/><stop offset="0.64" stop-color="#e69b1b"/><stop offset="0.88" stop-color="#cf7818"/></linearGradient><linearGradient id="未命名漸層_12" x1="146.39" y1="69.4" x2="169.9" y2="123.48" gradientUnits="userSpaceOnUse"><stop offset="0" stop-color="#cf7818"/><stop offset="1" stop-color="#fbbb1d"/></linearGradient><linearGradient id="未命名漸層_15" x1="133.5" y1="71.15" x2="150.32" y2="95.02" gradientUnits="userSpaceOnUse"><stop offset="0" stop-color="#fff"/><stop offset="1" stop-color="#fff" stop-opacity="0"/></linearGradient><radialGradient id="未命名漸層_569" cx="388.46" cy="20.18" r="65.28" gradientTransform="translate(-208.49 240.88) scale(0.93 0.24)" gradientUnits="userSpaceOnUse"><stop offset="0.24" stop-color="#248e78"/><stop offset="0.37" stop-color="#2c977e" stop-opacity="0.96"/><stop offset="0.49" stop-color="#47b390" stop-opacity="0.82"/><stop offset="0.59" stop-color="#72e2ae" stop-opacity="0.6"/><stop offset="0.6" stop-color="#77e7b1" stop-opacity="0.58"/><stop offset="0.72" stop-color="#64cd99" stop-opacity="0.42"/><stop offset="0.97" stop-color="#38905e" stop-opacity="0.04"/></radialGradient><linearGradient id="未命名漸層_400" x1="146.45" y1="140.89" x2="160.18" y2="220.24" gradientUnits="userSpaceOnUse"><stop offset="0" stop-color="#7fe2a4" stop-opacity="0.5"/><stop offset="1" stop-color="#41bdb8" stop-opacity="0.9"/></linearGradient><radialGradient id="未命名漸層_443" cx="146.5" cy="180.38" r="46.79" gradientTransform="translate(0 -103.98) scale(1 1.58)" gradientUnits="userSpaceOnUse"><stop offset="0" stop-color="#7fe2a4" stop-opacity="0.1"/><stop offset="0.92" stop-color="#52bba4"/></radialGradient><linearGradient id="未命名漸層_405" x1="142.75" y1="142.37" x2="159.8" y2="171.75" gradientUnits="userSpaceOnUse"><stop offset="0" stop-color="#7fe2a4" stop-opacity="0.5"/><stop offset="1" stop-color="#87eae3" stop-opacity="0.5"/></linearGradient><linearGradient id="未命名漸層_15-2" x1="112.48" y1="145.24" x2="140.57" y2="177.45" xlink:href="#未命名漸層_15"/><linearGradient id="未命名漸層_448" x1="157.87" y1="199.03" x2="166.13" y2="264.55" gradientUnits="userSpaceOnUse"><stop offset="0" stop-color="#407a7f" stop-opacity="0.1"/><stop offset="0.92" stop-color="#52bba4" stop-opacity="0.6"/></linearGradient></defs><title>magic_props</title><path class="cls-1" d="M152.09,120.19c7.14-.31,14.08-6.57,18.07-14.5s-5.05-35.41-14.32-38.34c-10.41-3.29-23.64,17.7-23.68,27,0,7.81,3.7,15.32,9.07,21C144.65,118.93,148.4,120.36,152.09,120.19Z"/><path class="cls-2" d="M166.25,92.44c.26,5.18.07,10.55-1.93,15.4-1.27,3.07-3.61,7.77-7.4,8.19a1.35,1.35,0,0,1-1.39-2.15c2.78-7,5.48-14.06,6-21.65.16-2.36.61-5.41,2.14-5.66C165.38,86.3,166.12,89.79,166.25,92.44Z"/><path class="cls-3" d="M146.85,75c5.9,2.14-8.14,15.75-10,16.72C136.18,88,140.83,72.83,146.85,75Z"/><path class="cls-4" d="M214.81,245.68c0,9.07-28,14.93-62.56,14.93s-62.56-5.87-62.56-14.93,28-14.93,62.56-14.93S214.81,236.61,214.81,245.68Z"/><path class="cls-5" d="M179,166.94c-2.43-11.31-19.93-9.57-28.12-8.39-5.87.84-11.87,1.22-17.82,1.8-7,.69-8.26,12-8,17.83a37.81,37.81,0,0,0,6.74,19.49c8.3,11.95,22.54,15.72,33.86,5.33,6.31-5.8,9.9-14,12.17-22.27C179.09,176.23,180,171.49,179,166.94Z"/><path class="cls-6" d="M170.25,223.11a18.74,18.74,0,0,0-2.36,6.06c-.68,4.86,3.69,8.17,4.85,12.53,3.13,11.81-44.61,11.89-42.52.43.54-2.94,4.11-4.87,5.29-7.81,3.52-8.78-5.84-16.79-9.51-24.25-5.94-12.06-10.62-25.21-9.81-38.87a39.09,39.09,0,0,1,10.37-24.75c5.49-5.89,16-14.56,9.84-23.44-.82-1.19-1.87-2.21-2.68-3.4a5.51,5.51,0,0,1-1.11-4.07c.52-2.56,6.38-3.94,8.61-4.42a46.86,46.86,0,0,1,24.88,1.48c11.42,3.92-1.94,9.08-.78,15.29a22.53,22.53,0,0,0,1.4,4.65c3,7.14,9.19,12.05,13.8,18.5C194.88,171.15,180.45,204,170.25,223.11Z"/><path class="cls-7" d="M174,160.5c-8,2.34-14.36,4.55-22.94,4.73-6.68.12-12.53-2.16-18.61-4.75l15.78-1.66C156.94,157.9,166,157,174,160.5Z"/><path class="cls-8" d="M137.9,147.53c.72.36-7.7,18-8.38,19.95-2.15,6.27-.44,11.83-2.16,18.11a2.11,2.11,0,0,1-.67,1.22c-1.1.79-2.33-.84-2.66-2.16-2-7.76-2.83-19.12.94-26.54C126.61,154.88,133.9,145.54,137.9,147.53Z"/><path class="cls-9" d="M164,228.28a8.78,8.78,0,0,0-.65,3.17c.12,3.52,2.7,4,4.23,7,3.75,7.4-8.05,9.15-12.18,8.82-.61-1.31,1.21-2.31,2.28-3.3,1.63-1.52,1.6-4.26.45-6.17a11.79,11.79,0,0,0-5.13-4.15,37.74,37.74,0,0,0-6.17-2.4,11.71,11.71,0,0,1-3.8-1.53,3.49,3.49,0,0,1-1.45-3.46c5.37-1.74,10.89,1,16.29-1.62,5-2.43,8.61-9.57,11.08-14.21,2-3.74,3.51-7.8,6.24-11,.46-.54,1.09-1.11,1.78-1,1.14.25,1,1.91.62,3-2.51,6.92-6.7,13-10,19.54A70.44,70.44,0,0,0,164,228.28Z"/></svg>