<svg id="圖層_1" data-name="圖層 1" xmlns="http://www.w3.org/2000/svg" viewBox="0 0 40 42"><defs><style>.cls-1{fill:#989898;}</style></defs><title>icons</title><path class="cls-1" d="M15.36,2.44A13.92,13.92,0,1,0,29.28,16.36,13.92,13.92,0,0,0,15.36,2.44m0,23.21a9.28,9.28,0,1,1,9.28-9.28,9.28,9.28,0,0,1-9.28,9.28"/><rect class="cls-1" x="24.64" y="16.36" width="4.64" height="23.2"/><path class="cls-1" d="M29.28,16.36a9.28,9.28,0,0,1,9.28-9.28V2.44a13.92,13.92,0,0,0,0,27.85V25.64a9.28,9.28,0,0,1-9.28-9.28"/></svg>