<svg id="圖層_1" data-name="圖層 1" xmlns="http://www.w3.org/2000/svg" xmlns:xlink="http://www.w3.org/1999/xlink" viewBox="0 0 269 269"><defs><style>.cls-1{fill:none;}.cls-2{fill:#171a21;}.cls-3{fill:#242833;}.cls-4{clip-path:url(#clip-path);}.cls-5{fill:#ffe140;}</style><clipPath id="clip-path"><path class="cls-1" d="M129.5,100.5,90.62,190.3a4.64,4.64,0,0,0,4.26,6.48A100,100,0,0,0,134,204.64c22.6,0,38.62-7.86,38.62-7.86a4.64,4.64,0,0,0,4.26-6.48L138,100.5A4.64,4.64,0,0,0,129.5,100.5Z"/></clipPath></defs><title>btns</title><ellipse class="cls-2" cx="134.5" cy="199.81" rx="84.13" ry="23.42"/><path class="cls-3" d="M129.5,100.5,90.62,190.3a4.64,4.64,0,0,0,4.26,6.48A100,100,0,0,0,134,204.64c22.6,0,38.62-7.86,38.62-7.86a4.64,4.64,0,0,0,4.26-6.48L138,100.5A4.64,4.64,0,0,0,129.5,100.5Z"/><g class="cls-4"><path class="cls-5" d="M142.09,173.23l3.91-5.74a.57.57,0,0,1,1,.14l2.18,6.6a.57.57,0,0,0,.38.37l6.67,1.95a.57.57,0,0,1,.18,1l-5.6,4.11a.57.57,0,0,0-.23.48l.21,6.95a.57.57,0,0,1-.9.48l-5.64-4.06a.57.57,0,0,0-.53-.07l-6.54,2.35a.57.57,0,0,1-.74-.71l2.12-6.62a.57.57,0,0,0-.09-.52l-4.25-5.5a.57.57,0,0,1,.45-.92l6.95,0A.57.57,0,0,0,142.09,173.23Z"/><path class="cls-5" d="M114.5,145.67l5.71,2a.5.5,0,0,1,.11.88l-5.05,3.33a.5.5,0,0,0-.22.4l-.12,6a.5.5,0,0,1-.81.38l-4.73-3.78a.5.5,0,0,0-.45-.09l-5.79,1.75a.5.5,0,0,1-.61-.65l2.13-5.66a.5.5,0,0,0-.06-.46l-3.45-5a.5.5,0,0,1,.43-.78l6,.28a.5.5,0,0,0,.42-.2l3.65-4.82a.5.5,0,0,1,.88.17l1.6,5.83A.5.5,0,0,0,114.5,145.67Z"/><path class="cls-5" d="M142.17,118.83l2-5a.44.44,0,0,1,.79-.06l2.75,4.64a.44.44,0,0,0,.35.22l5.38.37a.44.44,0,0,1,.3.74l-3.57,4.05a.44.44,0,0,0-.1.4l1.31,5.24a.44.44,0,0,1-.61.51l-5-2.14a.44.44,0,0,0-.41,0l-4.57,2.87a.44.44,0,0,1-.68-.42l.51-5.37a.44.44,0,0,0-.16-.38l-4.14-3.46a.44.44,0,0,1,.19-.77l5.27-1.18A.44.44,0,0,0,142.17,118.83Z"/></g></svg>