<svg id="圖層_1" data-name="圖層 1" xmlns="http://www.w3.org/2000/svg" xmlns:xlink="http://www.w3.org/1999/xlink" viewBox="0 0 269 269"><defs><style>.cls-1{fill:#422424;}.cls-2{fill:#e8e0d5;}.cls-3{fill:#ccc5bc;}.cls-4{fill:url(#未命名漸層_17);}.cls-5{fill:#d9d2c7;}.cls-6{fill:url(#未命名漸層_17-2);}.cls-7{fill:#f0e7dc;}</style><linearGradient id="未命名漸層_17" x1="85.13" y1="195.64" x2="85.13" y2="174.34" gradientUnits="userSpaceOnUse"><stop offset="0" stop-color="#9e9891"/><stop offset="0.21" stop-color="#aaa49c"/><stop offset="0.52" stop-color="#b2aca4"/><stop offset="1" stop-color="#b5afa6"/></linearGradient><linearGradient id="未命名漸層_17-2" x1="186.61" y1="195.64" x2="186.61" y2="174.34" xlink:href="#未命名漸層_17"/></defs><title>btns</title><rect class="cls-1" x="122.74" y="184.87" width="27.52" height="22.37" rx="8.15" ry="8.15"/><rect class="cls-1" x="28.38" y="158.36" width="216.24" height="45.57" rx="5.17" ry="5.17"/><rect class="cls-2" x="35.84" y="157.53" width="201.33" height="38.11" rx="4.35" ry="4.35"/><path class="cls-3" d="M33.55,145.93l.21,15.74v34h102.4l-.08-38.11S110.6,142.62,84.92,139.3,33.55,145.93,33.55,145.93Z"/><path class="cls-4" d="M136.17,195.64l.33-7.46s-21.76-10.77-47.44-13.26-55.3,3.73-55.3,3.73v17Z"/><path class="cls-5" d="M136.29,192.33S116.4,172.45,84.92,170c-18.28-1.44-46.4,3.31-46.4,3.31V136S75,123.56,94,131s42.25,29,42.25,29Z"/><path class="cls-2" d="M136.29,190.67S116.4,168.3,84.92,165.82C66.64,164.37,46,168.3,46,168.3V128.53s31.48-9.94,50.54-2.49,39.77,31.48,39.77,31.48Z"/><path class="cls-3" d="M238.19,145.93,238,161.67v34H135.58l.08-38.11s25.48-14.91,51.17-18.23S238.19,145.93,238.19,145.93Z"/><path class="cls-6" d="M135.58,195.64l-.33-7.46s21.76-10.77,47.44-13.26,55.3,3.73,55.3,3.73v17Z"/><path class="cls-5" d="M135.46,192.33s19.88-19.88,51.37-22.37c18.28-1.44,46.4,3.31,46.4,3.31V136s-36.45-12.43-55.51-5-42.25,29-42.25,29Z"/><path class="cls-2" d="M135.46,190.67s19.88-22.37,51.37-24.86c18.28-1.44,38.94,2.49,38.94,2.49V128.53s-31.48-9.94-50.54-2.49-39.77,31.48-39.77,31.48Z"/><path class="cls-1" d="M136.5,193.1a7.52,7.52,0,0,0-6.63,4.2h13.26A7.52,7.52,0,0,0,136.5,193.1Z"/><path class="cls-7" d="M135.46,190.67v-34s-5.8-21.54-22.37-33.14a66,66,0,0,0-53-9.94v34.8s27.55-3.07,45.57,6.63C127.17,166.65,135.46,190.67,135.46,190.67Z"/></svg>