<svg id="圖層_1" data-name="圖層 1" xmlns="http://www.w3.org/2000/svg" viewBox="0 0 348 179"><defs><style>.cls-1{fill:#e95513;}.cls-2{fill:#8cc11f;}.cls-3{fill:#e85513;}.cls-4{fill:#717071;}</style></defs><title>logo</title><path class="cls-1" d="M51,40,27,65.39a9.88,9.88,0,0,0,.4,14L50,100.72a9.88,9.88,0,0,0,14-.4l-7.19-6.78L34.2,72.18l24-25.39L80.8,68.14,88,74.93a9.88,9.88,0,0,0-.4-14L64.95,39.59A9.88,9.88,0,0,0,51,40Z"/><path class="cls-2" d="M64.49,145l24-25.39a9.89,9.89,0,0,0-.41-14L65.42,84.23a9.88,9.88,0,0,0-14,.41l7.19,6.78,22.63,21.36-24,25.39L34.67,116.81,27.49,110a9.87,9.87,0,0,0,.4,14l22.63,21.36A9.89,9.89,0,0,0,64.49,145Z"/><circle class="cls-3" cx="12.18" cy="93.15" r="6.18"/><circle class="cls-2" cx="103.58" cy="93.15" r="6.18"/><path class="cls-3" d="M152.55,65.85l-2.09,1.6A11.42,11.42,0,0,0,146.31,64,12.13,12.13,0,0,0,141,62.88a11.75,11.75,0,0,0-5.87,1.52A11,11,0,0,0,131,68.49a11.3,11.3,0,0,0-1.48,5.76,10.81,10.81,0,0,0,3.32,8.08,11.49,11.49,0,0,0,8.37,3.24,11.78,11.78,0,0,0,9.3-4.36l2.09,1.58a13.29,13.29,0,0,1-4.94,3.9A15.44,15.44,0,0,1,141,88.07q-6.94,0-11-4.62A14,14,0,0,1,126.68,74a13.1,13.1,0,0,1,4.07-9.78,14,14,0,0,1,10.21-4,15,15,0,0,1,6.69,1.47A13,13,0,0,1,152.55,65.85Z"/><path class="cls-4" d="M160.13,59.77a2.08,2.08,0,0,1,0,4.16,2.08,2.08,0,0,1-2.06-2.07,2,2,0,0,1,.61-1.48A2,2,0,0,1,160.13,59.77Zm-1.25,8.06h2.51V87.4h-2.51Z"/><path class="cls-4" d="M166,67.83h2.68l6.57,14.26,6.49-14.26h2.7l-9,19.57H175Z"/><path class="cls-4" d="M190.22,59.77a2.08,2.08,0,0,1,0,4.16,2.08,2.08,0,0,1-2.06-2.07,2,2,0,0,1,.61-1.48A2,2,0,0,1,190.22,59.77ZM189,67.83h2.51V87.4H189Z"/><path class="cls-4" d="M196.65,60.27h2.52V87.4h-2.52Z"/><path class="cls-3" d="M208.27,82.47l2.25-1.35q2.37,4.37,5.49,4.37a5.23,5.23,0,0,0,2.5-.62,4.39,4.39,0,0,0,1.78-1.66,4.29,4.29,0,0,0,.61-2.21,4.52,4.52,0,0,0-.9-2.61,21.68,21.68,0,0,0-4.53-4.24,23.33,23.33,0,0,1-4.12-3.61,6.65,6.65,0,0,1-1.4-4,6.14,6.14,0,0,1,.83-3.15,5.86,5.86,0,0,1,2.33-2.24,6.69,6.69,0,0,1,3.26-.82,7,7,0,0,1,3.5.92,12.07,12.07,0,0,1,3.44,3.41l-2.16,1.64a10.31,10.31,0,0,0-2.55-2.61,4.39,4.39,0,0,0-2.29-.63,3.64,3.64,0,0,0-2.62,1,3.18,3.18,0,0,0-1,2.39A4.06,4.06,0,0,0,213,68a6.19,6.19,0,0,0,1.32,1.77q.52.5,3.42,2.65A19.15,19.15,0,0,1,222.48,77a7.29,7.29,0,0,1,1.28,4,6.75,6.75,0,0,1-2.19,5,7.36,7.36,0,0,1-5.32,2.12,7.79,7.79,0,0,1-4.37-1.29A11.77,11.77,0,0,1,208.27,82.47Z"/><path class="cls-4" d="M238.38,67.33a9.68,9.68,0,0,1,7.49,3.27,10.51,10.51,0,0,1-.15,14.24,10.34,10.34,0,0,1-14.7,0,10.48,10.48,0,0,1-.15-14.22A9.69,9.69,0,0,1,238.38,67.33Zm0,2.46a7.27,7.27,0,0,0-5.4,2.32,7.76,7.76,0,0,0-2.25,5.61,8,8,0,0,0,1,4,7.32,7.32,0,0,0,2.78,2.84,7.94,7.94,0,0,0,7.69,0A7.32,7.32,0,0,0,245,81.68a8,8,0,0,0,1-4,7.75,7.75,0,0,0-2.26-5.61A7.28,7.28,0,0,0,238.37,69.79Z"/><path class="cls-4" d="M272.42,71.9l-2,1.24a8.35,8.35,0,0,0-7.06-3.44,8.15,8.15,0,0,0-5.93,2.3,7.5,7.5,0,0,0-2.37,5.59,7.94,7.94,0,0,0,1.09,4,7.71,7.71,0,0,0,3,2.93,8.68,8.68,0,0,0,4.25,1,8.58,8.58,0,0,0,7-3.44l2,1.32a9.49,9.49,0,0,1-3.77,3.28,12.09,12.09,0,0,1-5.39,1.16,10.65,10.65,0,0,1-7.7-3,9.6,9.6,0,0,1-3.06-7.18,10.26,10.26,0,0,1,1.43-5.28,10.07,10.07,0,0,1,3.93-3.8,11.45,11.45,0,0,1,5.59-1.37,11.91,11.91,0,0,1,3.75.59,10.46,10.46,0,0,1,3.07,1.55A8.38,8.38,0,0,1,272.42,71.9Z"/><path class="cls-4" d="M278.82,59.77a2,2,0,0,1,1.47.61,2,2,0,0,1,.61,1.48,2.09,2.09,0,0,1-2.08,2.07,2.09,2.09,0,0,1-2.06-2.07,2,2,0,0,1,.61-1.48A2,2,0,0,1,278.82,59.77Zm-1.25,8.06h2.52V87.4h-2.52Z"/><path class="cls-4" d="M302,80.91,304.11,82a11.6,11.6,0,0,1-2.42,3.31,9.47,9.47,0,0,1-3.08,1.91,10.71,10.71,0,0,1-3.87.66,9.35,9.35,0,0,1-7.49-3.14A10.74,10.74,0,0,1,286.84,71a9.36,9.36,0,0,1,7.76-3.7,9.64,9.64,0,0,1,8,3.8,10.59,10.59,0,0,1,2.16,6.69H287.14a8,8,0,0,0,2.18,5.59,6.92,6.92,0,0,0,5.2,2.18,8.39,8.39,0,0,0,2.91-.52,7.65,7.65,0,0,0,2.4-1.38A11.74,11.74,0,0,0,302,80.91Zm0-5.27a8.32,8.32,0,0,0-1.47-3.22A7.08,7.08,0,0,0,298,70.47a7.84,7.84,0,0,0-3.33-.73,7.18,7.18,0,0,0-5,1.86,8.32,8.32,0,0,0-2.29,4Z"/><path class="cls-4" d="M310.4,60.56h2.52v7.27h4V70h-4V87.4H310.4V70H307V67.83h3.43Z"/><path class="cls-4" d="M320.4,67.83h2.66l6.73,15.07,6.53-15.07H339L327.32,94.56h-2.66l3.77-8.65Z"/><path class="cls-2" d="M152.81,105l-2.09,1.6a11.39,11.39,0,0,0-4.15-3.41,12.13,12.13,0,0,0-5.31-1.16,11.76,11.76,0,0,0-5.87,1.52,10.92,10.92,0,0,0-4.18,4.08,11.31,11.31,0,0,0-1.48,5.77,10.82,10.82,0,0,0,3.32,8.08,11.49,11.49,0,0,0,8.37,3.24,11.78,11.78,0,0,0,9.3-4.35l2.09,1.58a13.32,13.32,0,0,1-4.94,3.9,15.49,15.49,0,0,1-6.61,1.38q-6.94,0-11-4.62a14,14,0,0,1-3.36-9.43,13.1,13.1,0,0,1,4.07-9.78,14,14,0,0,1,10.21-4,15,15,0,0,1,6.69,1.46A13,13,0,0,1,152.81,105Z"/><path class="cls-4" d="M155.92,107h2.66l6.73,15.07L171.84,107h2.68l-11.68,26.73h-2.66L164,125.1Z"/><path class="cls-4" d="M177.64,126.59V99.46h2.52v10.92a10.66,10.66,0,0,1,3.54-2.9,9.91,9.91,0,0,1,11.39,2.05,10.08,10.08,0,0,1,2.94,7.31,9.94,9.94,0,0,1-3,7.25,9.67,9.67,0,0,1-7.13,3,9.1,9.1,0,0,1-4.33-1,10.11,10.11,0,0,1-3.44-3.07v3.6Zm10.07-1.92a7.61,7.61,0,0,0,6.7-3.94,8,8,0,0,0,0-7.93,7.73,7.73,0,0,0-2.84-2.94,7.43,7.43,0,0,0-3.82-1.05,7.87,7.87,0,0,0-3.92,1.05,7.33,7.33,0,0,0-2.85,2.84,8.08,8.08,0,0,0-1,4,7.8,7.8,0,0,0,2.23,5.68A7.39,7.39,0,0,0,187.71,124.66Z"/><path class="cls-4" d="M218.57,120.09l2.12,1.12a11.56,11.56,0,0,1-2.41,3.31,9.57,9.57,0,0,1-3.08,1.92,10.8,10.8,0,0,1-3.87.66,9.34,9.34,0,0,1-7.49-3.14,10.59,10.59,0,0,1-2.7-7.1,10.47,10.47,0,0,1,2.29-6.64,9.35,9.35,0,0,1,7.76-3.7,9.65,9.65,0,0,1,8,3.8,10.6,10.6,0,0,1,2.16,6.69H203.73a8,8,0,0,0,2.18,5.59,6.94,6.94,0,0,0,5.21,2.18,8.28,8.28,0,0,0,2.91-.52,7.64,7.64,0,0,0,2.4-1.38A11.86,11.86,0,0,0,218.57,120.09Zm0-5.27a8.35,8.35,0,0,0-1.47-3.22,7,7,0,0,0-2.55-1.94,7.82,7.82,0,0,0-3.33-.73,7.17,7.17,0,0,0-5,1.85,8.34,8.34,0,0,0-2.29,4Z"/><path class="cls-4" d="M224.45,107H227v2.86a9,9,0,0,1,2.43-2.53,4.79,4.79,0,0,1,2.66-.84,4.6,4.6,0,0,1,2.23.67L233,109.3a3.52,3.52,0,0,0-1.33-.34,3.63,3.63,0,0,0-2.42,1,6.5,6.5,0,0,0-1.78,3.21A30.65,30.65,0,0,0,227,120v6.62h-2.57Z"/><path class="cls-2" d="M240.3,121.66l2.25-1.35q2.38,4.37,5.49,4.37a5.28,5.28,0,0,0,2.5-.62,4.42,4.42,0,0,0,1.78-1.67,4.32,4.32,0,0,0,.61-2.21,4.48,4.48,0,0,0-.9-2.61,21.63,21.63,0,0,0-4.53-4.25,23.25,23.25,0,0,1-4.12-3.62,6.62,6.62,0,0,1-1.4-4,6.15,6.15,0,0,1,.83-3.15,5.9,5.9,0,0,1,2.33-2.24,6.69,6.69,0,0,1,3.26-.82,7,7,0,0,1,3.5.92,12,12,0,0,1,3.44,3.41l-2.16,1.64a10.38,10.38,0,0,0-2.54-2.61,4.39,4.39,0,0,0-2.29-.63,3.62,3.62,0,0,0-2.62,1,3.17,3.17,0,0,0-1,2.39,4,4,0,0,0,.36,1.67,6.15,6.15,0,0,0,1.31,1.76q.52.5,3.42,2.65a19.13,19.13,0,0,1,4.71,4.51,7.29,7.29,0,0,1,1.28,4,6.74,6.74,0,0,1-2.19,5,7.34,7.34,0,0,1-5.31,2.12,7.79,7.79,0,0,1-4.37-1.29A11.77,11.77,0,0,1,240.3,121.66Z"/><path class="cls-4" d="M260.25,99.46h2.52v11.06a10.72,10.72,0,0,1,3.36-3,8.14,8.14,0,0,1,4-1,7,7,0,0,1,3.9,1.11,6.65,6.65,0,0,1,2.51,3,15.9,15.9,0,0,1,.81,5.89v10.08H274.8v-9.34a23.87,23.87,0,0,0-.27-4.52,5.13,5.13,0,0,0-1.7-2.92,5,5,0,0,0-3.23-1,6.23,6.23,0,0,0-4.1,1.51,7.09,7.09,0,0,0-2.38,3.74,25.84,25.84,0,0,0-.36,5.33v7.18h-2.52Z"/><path class="cls-4" d="M282.89,99a2.08,2.08,0,0,1,0,4.16,2.08,2.08,0,0,1-2.06-2.07,2,2,0,0,1,.61-1.48A2,2,0,0,1,282.89,99ZM281.64,107h2.51v19.57h-2.51Z"/><path class="cls-4" d="M305.77,120.09l2.12,1.12a11.56,11.56,0,0,1-2.41,3.31,9.59,9.59,0,0,1-3.08,1.92,10.79,10.79,0,0,1-3.87.66A9.34,9.34,0,0,1,291,124a10.59,10.59,0,0,1-2.7-7.1,10.47,10.47,0,0,1,2.29-6.64,9.35,9.35,0,0,1,7.76-3.7,9.66,9.66,0,0,1,8,3.8,10.61,10.61,0,0,1,2.16,6.69H290.93a8,8,0,0,0,2.18,5.59,7,7,0,0,0,5.21,2.18,8.25,8.25,0,0,0,2.91-.52,7.63,7.63,0,0,0,2.41-1.38A11.83,11.83,0,0,0,305.77,120.09Zm0-5.27a8.37,8.37,0,0,0-1.47-3.22,7,7,0,0,0-2.55-1.94,7.8,7.8,0,0,0-3.33-.73,7.18,7.18,0,0,0-5,1.85,8.37,8.37,0,0,0-2.28,4Z"/><path class="cls-4" d="M312.19,99.46h2.52v27.13h-2.52Z"/><path class="cls-4" d="M338.74,99.46v27.13h-2.48v-3.36a10.92,10.92,0,0,1-3.55,2.9,9.65,9.65,0,0,1-4.31,1,9.54,9.54,0,0,1-7.09-3,10.09,10.09,0,0,1-2.94-7.33,9.9,9.9,0,0,1,3-7.23,9.66,9.66,0,0,1,7.14-3,9.21,9.21,0,0,1,4.36,1,9.94,9.94,0,0,1,3.43,3.07V99.46Zm-10.07,9.48a7.61,7.61,0,0,0-6.71,3.94,7.93,7.93,0,0,0,0,7.91,7.7,7.7,0,0,0,2.84,2.94,7.48,7.48,0,0,0,3.84,1.05,7.87,7.87,0,0,0,3.92-1,7.3,7.3,0,0,0,2.85-2.82,8,8,0,0,0,1-4,7.77,7.77,0,0,0-2.24-5.67A7.4,7.4,0,0,0,328.68,108.94Z"/></svg>