<svg id="圖層_1" data-name="圖層 1" xmlns="http://www.w3.org/2000/svg" viewBox="0 0 118 179"><defs><style>.cls-1{fill:#e95513;}.cls-2{fill:#8cc11f;}.cls-3{fill:#e85513;}</style></defs><title>logo</title><path class="cls-1" d="M51,41,27,66.39a9.88,9.88,0,0,0,.4,14L50,101.72a9.88,9.88,0,0,0,14-.4l-7.19-6.78L34.2,73.18l24-25.39L80.8,69.14,88,75.93a9.88,9.88,0,0,0-.4-14L64.95,40.59A9.88,9.88,0,0,0,51,41Z"/><path class="cls-2" d="M64.49,146l24-25.39a9.89,9.89,0,0,0-.41-14L65.42,85.23a9.88,9.88,0,0,0-14,.41l7.19,6.78,22.63,21.36-24,25.39L34.67,117.81,27.49,111a9.87,9.87,0,0,0,.4,14l22.63,21.36A9.89,9.89,0,0,0,64.49,146Z"/><circle class="cls-3" cx="12.18" cy="94.15" r="6.18"/><circle class="cls-2" cx="103.58" cy="94.15" r="6.18"/></svg>