<?xml version="1.0" encoding="utf-8"?>
<!-- Generator: Adobe Illustrator 21.1.0, SVG Export Plug-In . SVG Version: 6.00 Build 0)  -->
<svg version="1.1" id="圖層_1" xmlns="http://www.w3.org/2000/svg" xmlns:xlink="http://www.w3.org/1999/xlink" x="0px" y="0px"
	 viewBox="0 0 348 179" style="enable-background:new 0 0 348 179;" xml:space="preserve">
<style type="text/css">
	.st0{fill:#E95513;}
	.st1{fill:#8CC11F;}
	.st2{fill:#E85513;}
	.st3{fill:#FFFFFF;}
</style>
<title>logo</title>
<path class="st0" d="M51,40L27,65.4c-3.8,4-3.6,10.2,0.4,14c0,0,0,0,0,0L50,100.7c4,3.8,10.2,3.6,14-0.4c0,0,0,0,0,0l-7.2-6.8
	L34.2,72.2l24-25.4l22.6,21.3l7.2,6.8c3.8-4,3.6-10.2-0.4-14c0,0,0,0,0,0L64.9,39.6C61,35.9,54.7,36,51,40z"/>
<path class="st1" d="M64.5,145l24-25.4c3.8-4,3.6-10.2-0.4-14c0,0,0,0,0,0L65.4,84.2c-4-3.8-10.2-3.6-14,0.4c0,0,0,0,0,0l7.2,6.8
	l22.6,21.4l-24,25.4l-22.6-21.4l-7.2-6.8c-3.8,4-3.6,10.2,0.4,14c0,0,0,0,0,0l22.6,21.4C54.5,149.1,60.7,149,64.5,145z"/>
<circle class="st2" cx="12.2" cy="93.2" r="6.2"/>
<circle class="st1" cx="103.6" cy="93.2" r="6.2"/>
<path class="st2" d="M152.6,65.8l-2.1,1.6c-1.1-1.5-2.5-2.6-4.2-3.4c-1.7-0.8-3.5-1.2-5.3-1.1c-2.1,0-4.1,0.5-5.9,1.5
	c-1.7,1-3.1,2.4-4.1,4.1c-1,1.8-1.5,3.7-1.5,5.8c-0.1,3,1.1,6,3.3,8.1c2.2,2.2,5.3,3.3,8.4,3.2c3.6,0,7-1.6,9.3-4.4l2.1,1.6
	c-1.3,1.7-3,3-4.9,3.9c-2.1,0.9-4.4,1.4-6.7,1.4c-4.6,0-8.3-1.5-11-4.6c-2.2-2.6-3.4-6-3.3-9.4c-0.1-3.7,1.4-7.2,4.1-9.8
	c2.7-2.7,6.4-4.1,10.2-4c2.3,0,4.6,0.5,6.7,1.5C149.6,62.6,151.3,64.1,152.6,65.8z"/>
<path class="st3" d="M160.1,59.8c1.1,0,2.1,0.9,2.1,2.1c0,1.1-0.9,2.1-2.1,2.1c-1.1,0-2.1-0.9-2.1-2.1c0-0.6,0.2-1.1,0.6-1.5
	C159.1,60,159.6,59.8,160.1,59.8z M158.9,67.8h2.5v19.6h-2.5V67.8z"/>
<path class="st3" d="M166,67.8h2.7l6.6,14.3l6.5-14.3h2.7l-9,19.6H175L166,67.8z"/>
<path class="st3" d="M190.2,59.8c1.1,0,2.1,0.9,2.1,2.1c0,1.1-0.9,2.1-2.1,2.1c-1.1,0-2.1-0.9-2.1-2.1c0-0.6,0.2-1.1,0.6-1.5
	C189.1,60,189.7,59.8,190.2,59.8z M189,67.8h2.5v19.6H189V67.8z"/>
<path class="st3" d="M196.6,60.3h2.5v27.1h-2.5V60.3z"/>
<path class="st2" d="M208.3,82.5l2.3-1.3c1.6,2.9,3.4,4.4,5.5,4.4c0.9,0,1.7-0.2,2.5-0.6c0.7-0.4,1.4-0.9,1.8-1.7
	c0.4-0.7,0.6-1.4,0.6-2.2c0-0.9-0.3-1.9-0.9-2.6c-1.3-1.6-2.8-3.1-4.5-4.2c-1.5-1-2.9-2.2-4.1-3.6c-0.9-1.1-1.4-2.5-1.4-4
	c0-1.1,0.3-2.2,0.8-3.2c0.6-1,1.4-1.7,2.3-2.2c1-0.5,2.1-0.8,3.3-0.8c1.2,0,2.4,0.3,3.5,0.9c1.4,0.9,2.5,2.1,3.4,3.4l-2.2,1.6
	c-0.7-1-1.6-1.9-2.6-2.6c-0.7-0.4-1.5-0.6-2.3-0.6c-1,0-1.9,0.3-2.6,1c-0.7,0.6-1,1.5-1,2.4c0,0.5,0.1,1.1,0.3,1.6
	c0.3,0.7,0.8,1.3,1.3,1.8c0.3,0.3,1.5,1.2,3.4,2.7c1.8,1.2,3.4,2.8,4.7,4.6c0.8,1.2,1.3,2.6,1.3,4c0,1.9-0.8,3.7-2.2,5
	c-1.4,1.4-3.3,2.2-5.3,2.1c-1.6,0-3.1-0.4-4.4-1.3C210.3,85.7,209.1,84.2,208.3,82.5z"/>
<path class="st3" d="M238.4,67.3c2.9-0.1,5.6,1.1,7.5,3.3c3.7,4.1,3.6,10.3-0.1,14.2c-4,4.1-10.6,4.1-14.6,0.1c0,0-0.1-0.1-0.1-0.1
	c-3.8-4-3.8-10.2-0.1-14.2C232.8,68.5,235.5,67.3,238.4,67.3z M238.4,69.8c-2,0-4,0.8-5.4,2.3c-1.5,1.5-2.3,3.5-2.3,5.6
	c0,1.4,0.3,2.8,1,4c0.6,1.2,1.6,2.2,2.8,2.8c2.4,1.3,5.3,1.3,7.7,0c1.2-0.7,2.2-1.7,2.8-2.9c0.7-1.2,1-2.6,1-4
	c0-2.1-0.8-4.1-2.3-5.6C242.3,70.6,240.4,69.8,238.4,69.8L238.4,69.8z"/>
<path class="st3" d="M272.4,71.9l-2,1.2c-1.6-2.3-4.3-3.5-7.1-3.4c-2.2-0.1-4.3,0.8-5.9,2.3c-1.5,1.4-2.4,3.5-2.4,5.6
	c0,1.4,0.4,2.8,1.1,4c0.7,1.2,1.7,2.2,3,2.9c1.3,0.7,2.8,1,4.3,1c2.7,0,5.4-1.2,7-3.4l2,1.3c-0.9,1.4-2.2,2.5-3.8,3.3
	c-1.7,0.8-3.5,1.2-5.4,1.2c-2.9,0.1-5.6-1-7.7-3c-2-1.9-3.1-4.5-3.1-7.2c0-1.9,0.5-3.7,1.4-5.3c0.9-1.6,2.3-2.9,3.9-3.8
	c1.7-0.9,3.6-1.4,5.6-1.4c1.3,0,2.5,0.2,3.8,0.6c1.1,0.3,2.1,0.9,3.1,1.6C271.1,70,271.9,70.9,272.4,71.9z"/>
<path class="st3" d="M278.8,59.8c0.6,0,1.1,0.2,1.5,0.6c0.4,0.4,0.6,0.9,0.6,1.5c0,1.1-0.9,2.1-2.1,2.1c-1.1,0-2-0.9-2.1-2.1
	c0-0.6,0.2-1.1,0.6-1.5C277.7,60,278.3,59.8,278.8,59.8z M277.6,67.8h2.5v19.6h-2.5V67.8z"/>
<path class="st3" d="M302,80.9l2.1,1.1c-0.6,1.2-1.4,2.4-2.4,3.3c-0.9,0.8-1.9,1.5-3.1,1.9c-1.2,0.5-2.6,0.7-3.9,0.7
	c-2.8,0.1-5.6-1-7.5-3.1c-3.4-3.9-3.6-9.7-0.4-13.7c1.8-2.4,4.7-3.8,7.8-3.7c3.1-0.1,6.1,1.3,8,3.8c1.5,1.9,2.2,4.3,2.2,6.7h-17.6
	c0,2.1,0.8,4.1,2.2,5.6c1.3,1.4,3.2,2.2,5.2,2.2c1,0,2-0.2,2.9-0.5c0.9-0.3,1.7-0.8,2.4-1.4C300.7,82.9,301.4,81.9,302,80.9z
	 M302,75.6c-0.3-1.2-0.8-2.3-1.5-3.2c-0.7-0.8-1.5-1.5-2.5-2c-1-0.5-2.2-0.7-3.3-0.7c-1.8,0-3.6,0.6-5,1.9c-1.1,1.1-1.9,2.5-2.3,4
	L302,75.6z"/>
<path class="st3" d="M310.4,60.6h2.5v7.3h4V70h-4v17.4h-2.5V70H307v-2.2h3.4L310.4,60.6z"/>
<path class="st3" d="M320.4,67.8h2.7l6.7,15.1l6.5-15.1h2.7l-11.7,26.7h-2.7l3.8-8.7L320.4,67.8z"/>
<path class="st1" d="M152.8,105l-2.1,1.6c-1.1-1.5-2.5-2.6-4.1-3.4c-1.7-0.8-3.5-1.2-5.3-1.2c-2.1,0-4.1,0.5-5.9,1.5
	c-1.7,1-3.2,2.4-4.2,4.1c-1,1.8-1.5,3.7-1.5,5.8c-0.1,3,1.1,6,3.3,8.1c2.2,2.2,5.3,3.3,8.4,3.2c3.6,0,7-1.6,9.3-4.3l2.1,1.6
	c-1.3,1.7-3,3-4.9,3.9c-2.1,0.9-4.3,1.4-6.6,1.4c-4.6,0-8.3-1.5-11-4.6c-2.2-2.6-3.4-6-3.4-9.4c-0.1-3.7,1.4-7.2,4.1-9.8
	c2.7-2.7,6.4-4.1,10.2-4c2.3,0,4.6,0.5,6.7,1.5C149.8,101.8,151.5,103.2,152.8,105z"/>
<path class="st3" d="M155.9,107h2.7l6.7,15.1l6.5-15.1h2.7l-11.7,26.7h-2.7l3.8-8.6L155.9,107z"/>
<path class="st3" d="M177.6,126.6V99.5h2.5v10.9c1-1.2,2.2-2.2,3.5-2.9c3.8-1.8,8.4-1,11.4,2.1c1.9,1.9,3,4.6,2.9,7.3
	c0,2.7-1,5.3-3,7.3c-1.9,1.9-4.4,3-7.1,3c-1.5,0-3-0.3-4.3-1c-1.4-0.7-2.5-1.8-3.4-3.1v3.6L177.6,126.6z M187.7,124.7
	c2.8,0,5.4-1.5,6.7-3.9c1.4-2.5,1.4-5.5,0-7.9c-0.7-1.2-1.6-2.2-2.8-2.9c-1.2-0.7-2.5-1.1-3.8-1.1c-1.4,0-2.7,0.4-3.9,1.1
	c-1.2,0.7-2.2,1.6-2.9,2.8c-0.7,1.2-1,2.6-1,4c-0.1,2.1,0.7,4.2,2.2,5.7C183.6,123.9,185.6,124.7,187.7,124.7L187.7,124.7z"/>
<path class="st3" d="M218.6,120.1l2.1,1.1c-0.6,1.2-1.4,2.4-2.4,3.3c-0.9,0.8-1.9,1.5-3.1,1.9c-1.2,0.5-2.6,0.7-3.9,0.7
	c-2.8,0.2-5.6-1-7.5-3.1c-1.7-2-2.7-4.5-2.7-7.1c0-2.4,0.8-4.8,2.3-6.6c1.8-2.4,4.7-3.8,7.8-3.7c3.1-0.1,6.1,1.3,8,3.8
	c1.5,1.9,2.2,4.3,2.2,6.7h-17.6c0,2.1,0.8,4.1,2.2,5.6c1.3,1.4,3.2,2.2,5.2,2.2c1,0,2-0.2,2.9-0.5c0.9-0.3,1.7-0.8,2.4-1.4
	C217.3,122.1,218,121.1,218.6,120.1z M218.6,114.8c-0.3-1.2-0.8-2.3-1.5-3.2c-0.7-0.8-1.6-1.5-2.6-1.9c-1-0.5-2.2-0.7-3.3-0.7
	c-1.8,0-3.6,0.6-5,1.8c-1.1,1.1-1.9,2.5-2.3,4L218.6,114.8z"/>
<path class="st3" d="M224.4,107h2.6v2.9c0.6-1,1.5-1.9,2.4-2.5c0.8-0.5,1.7-0.8,2.7-0.8c0.8,0,1.6,0.3,2.2,0.7l-1.3,2.1
	c-0.4-0.2-0.9-0.3-1.3-0.3c-0.9,0-1.8,0.4-2.4,1c-0.9,0.9-1.5,2-1.8,3.2c-0.4,2.3-0.6,4.5-0.5,6.8v6.6h-2.6L224.4,107z"/>
<path class="st1" d="M240.3,121.7l2.3-1.3c1.6,2.9,3.4,4.4,5.5,4.4c0.9,0,1.7-0.2,2.5-0.6c0.7-0.4,1.4-1,1.8-1.7
	c0.4-0.7,0.6-1.4,0.6-2.2c0-0.9-0.3-1.9-0.9-2.6c-1.3-1.6-2.8-3.1-4.5-4.3c-1.5-1-2.9-2.3-4.1-3.6c-0.9-1.1-1.4-2.5-1.4-4
	c0-1.1,0.3-2.2,0.8-3.2c0.6-0.9,1.4-1.7,2.3-2.2c1-0.5,2.1-0.8,3.3-0.8c1.2,0,2.4,0.3,3.5,0.9c1.4,0.9,2.5,2.1,3.4,3.4l-2.2,1.6
	c-0.7-1-1.5-1.9-2.5-2.6c-0.7-0.4-1.5-0.6-2.3-0.6c-1,0-1.9,0.3-2.6,1c-0.7,0.6-1,1.5-1,2.4c0,0.6,0.1,1.1,0.4,1.7
	c0.3,0.7,0.8,1.3,1.3,1.8c0.3,0.3,1.5,1.2,3.4,2.7c1.8,1.2,3.4,2.7,4.7,4.5c0.8,1.2,1.3,2.6,1.3,4c0,1.9-0.8,3.7-2.2,5
	c-1.4,1.4-3.3,2.2-5.3,2.1c-1.6,0-3.1-0.4-4.4-1.3C242.4,124.9,241.1,123.4,240.3,121.7z"/>
<path class="st3" d="M260.3,99.5h2.5v11.1c0.9-1.2,2-2.2,3.4-3c1.2-0.7,2.6-1,4-1c1.4,0,2.7,0.4,3.9,1.1c1.1,0.7,2,1.8,2.5,3
	c0.6,1.9,0.9,3.9,0.8,5.9v10.1h-2.5v-9.3c0.1-1.5,0-3-0.3-4.5c-0.2-1.1-0.8-2.2-1.7-2.9c-0.9-0.7-2.1-1.1-3.2-1
	c-1.5,0-3,0.5-4.1,1.5c-1.2,1-2,2.3-2.4,3.7c-0.3,1.8-0.4,3.5-0.4,5.3v7.2h-2.5L260.3,99.5z"/>
<path class="st3" d="M282.9,99c1.1,0,2.1,0.9,2.1,2.1s-0.9,2.1-2.1,2.1c-1.1,0-2.1-0.9-2.1-2.1c0-0.6,0.2-1.1,0.6-1.5
	C281.8,99.2,282.3,99,282.9,99z M281.6,107h2.5v19.6h-2.5V107z"/>
<path class="st3" d="M305.8,120.1l2.1,1.1c-0.6,1.2-1.4,2.4-2.4,3.3c-0.9,0.8-1.9,1.5-3.1,1.9c-1.2,0.5-2.6,0.7-3.9,0.7
	c-2.9,0.2-5.6-1-7.5-3.1c-1.7-2-2.7-4.5-2.7-7.1c0-2.4,0.8-4.8,2.3-6.6c1.8-2.4,4.7-3.8,7.8-3.7c3.1-0.1,6.1,1.3,8,3.8
	c1.5,1.9,2.2,4.3,2.2,6.7h-17.6c0,2.1,0.8,4.1,2.2,5.6c1.4,1.4,3.2,2.2,5.2,2.2c1,0,2-0.2,2.9-0.5c0.9-0.3,1.7-0.8,2.4-1.4
	C304.5,122.1,305.2,121.1,305.8,120.1z M305.8,114.8c-0.3-1.2-0.8-2.3-1.5-3.2c-0.7-0.8-1.6-1.5-2.5-1.9c-1-0.5-2.2-0.7-3.3-0.7
	c-1.8,0-3.6,0.6-5,1.8c-1.1,1.1-1.9,2.5-2.3,4L305.8,114.8z"/>
<path class="st3" d="M312.2,99.5h2.5v27.1h-2.5V99.5z"/>
<path class="st3" d="M338.7,99.5v27.1h-2.5v-3.4c-1,1.2-2.2,2.2-3.5,2.9c-1.3,0.7-2.8,1-4.3,1c-2.7,0-5.3-1-7.1-3
	c-1.9-1.9-3-4.6-2.9-7.3c0-2.7,1-5.3,3-7.2c1.9-2,4.4-3,7.1-3c1.5,0,3,0.3,4.4,1c1.4,0.7,2.5,1.8,3.4,3.1V99.5H338.7z M328.7,108.9
	c-2.8,0-5.4,1.5-6.7,3.9c-1.4,2.4-1.4,5.5,0,7.9c0.7,1.2,1.6,2.2,2.8,2.9c1.2,0.7,2.5,1.1,3.8,1.1c1.4,0,2.7-0.3,3.9-1
	c1.2-0.7,2.2-1.6,2.9-2.8c0.7-1.2,1-2.6,1-4c0.1-2.1-0.8-4.2-2.2-5.7C332.8,109.8,330.8,108.9,328.7,108.9L328.7,108.9z"/>
</svg>
