<svg xmlns="http://www.w3.org/2000/svg" xmlns:xlink="http://www.w3.org/1999/xlink" viewBox="0 0 1200 400"><defs><style>.cls-1{fill:none;}.cls-2,.cls-3,.cls-6{opacity:0.5;}.cls-2{fill:url(#未命名漸層_78);}.cls-3{fill:url(#未命名漸層_78-2);}.cls-4{clip-path:url(#clip-path);}.cls-5{opacity:0.2;}.cls-6{fill:#fff;}</style><radialGradient id="未命名漸層_78" cx="599.83" cy="143.26" r="577.23" gradientTransform="translate(0 141.28) scale(1 0.42)" gradientUnits="userSpaceOnUse"><stop offset="0" stop-color="#fff"/><stop offset="1" stop-color="#efedf4"/></radialGradient><radialGradient id="未命名漸層_78-2" cx="600" cy="137.99" r="440.59" gradientTransform="translate(0 73.16) scale(1 0.89)" xlink:href="#未命名漸層_78"/><clipPath id="clip-path"><rect class="cls-1" x="239.98" y="479" width="100" height="1480"/></clipPath></defs><title>magic_bg</title><g id="圖層_1" data-name="圖層 1"><path class="cls-2" d="M439.63,38.67c26.48,1.56,52.39,5,78.86,4.23,55.32-1.52,105.32-15.83,159.63-22.82C781.63,6.75,893.48,5.85,983.43,53.49c32,16.93,59.81,39.33,86.88,62.09,39.26,33,79.4,70.42,88.05,118,3.36,18.45,1.45,38.11-8.56,54.52-12.91,21.15-37.36,34.44-61.67,44.89-89.9,38.63-190.26,50.88-288.91,55.43-60.23,2.78-119.7,1.54-179.94-.13-37.9-1-75.8-2.26-113.71-2.74q-92.29-1.15-184.58,1.28c-40.37,1.07-81.33,2.6-120.62-5.79-37.19-7.94-71.48-24.54-102.5-44.51-16.14-10.38-31.79-22-42.44-37-21.1-29.68-19.29-69-4-101.34,9.2-19.45,22.78-36.95,38.06-53,13.39-14,25.39-29,39.2-42.63,28.41-28,68.32-45.2,108.48-55.43a428.46,428.46,0,0,1,91.46-13C365.68,32.93,402.66,36.48,439.63,38.67Z"/><path class="cls-3" d="M354.28,50.89c-29.51,1.68-56.23-.29-84.37-6.75-27.72-6.36-64,1.38-91.6,5.63-12.43,1.91-25.38,2.4-37.59,4.36C129,56,118,64.18,108.77,70.51,71.19,96.3,42.38,132.41,25.95,172,14.41,199.83,8,230.67,17.46,259.11c11.47,34.66,44.54,60.36,79.86,78,90.05,45,198.3,48.67,301.37,44.25,136.51-5.86,272.63-24,409.2-19.34,53.89,1.83,107.83,7.21,161.63,3.9s108.64-16.13,150.46-46.54c29.63-21.55,51.54-51.44,61.8-84.31,6.32-20.25,8.14-42.48-1-61.87-19.41-41.33-76.68-53.34-124.21-67.73-43.27-13.1-83.89-32.25-126.14-47.77-129.09-47.41-274-59.94-410.83-35.54C464.51,32,410.38,47.69,354.28,50.89Z"/><g class="cls-4"><g class="cls-5"><path class="cls-6" d="M295.12,1018.82c-1.68-69.93.29-133.23,6.75-199.9,12.95-133.54,2-272.58,2.65-412.64.08-15.93-2.26-32.69-10.86-45.68-4.38-6.63-10.38-11.81-16.45-16.67-19-15.21-42.5-25.31-58.25-43.06-16.43-18.51-26.86-42.2-45-60-27.81-27.32-58.64-42.4-87.08-20.1C52.24,247.93,26.54,326.29,8.89,410c-45,213.37-48.67,469.86-44.25,714.06,5.86,323.44,24,646,19.34,969.55-1.83,127.69-7.21,255.49-3.9,383S-3.78,2734,26.63,2833.07c21.55,70.2,51.44,122.12,84.31,146.43,20.25,15,42.48,19.28,61.87-2.29,31.66-35.22,37.5-92.35,46.66-137.77,8.9-44.18,39.56-72.4,50.63-116.92,16.61-66.8,10.13-144.48,14.53-213.4,10.22-160,40.79-319.84,43.62-480.11,3.58-202.33-1.42-403.33-4.41-618.4C322,1279.63,298.32,1151.74,295.12,1018.82Z"/><path class="cls-6" d="M234.5,353c55.48,71,44,126,46.81,193.33,5.83,139.54,28.62,273.49,30.54,411.76,1.22,87.73-2.33,175.35-4.51,262.95-1.56,62.73-5,124.13-4.23,186.86,1.52,131.08,23.79,268.31,24.72,394.94.39,53.12,1.6,105.25,1,157-2.86,248.25-18.43,484.08-44.46,736.6-1.1,10.7-2.29,21.71-7.11,31.15-3.81,7.46-9.66,13.46-15.55,19.16-27.44,26.54-58.7,43-76.56,78.11-18.5,36.38-33.28,82.16-72.67,99.15-18.45,8-38.11,3.44-54.52-20.29-21.15-30.58-34.44-88.53-44.89-146.11-38.63-213-50.88-450.79-55.43-684.54-2.78-142.71-1.54-283.62.13-426.36,1-89.8,2.26-179.59,2.74-269.43q1.15-218.67-1.28-437.34c-1.07-95.66-2.6-192.71,5.79-285.79C-27,566-10.43,484.78,9.53,411.28,19.91,373,216.41,329.86,234.5,353Z"/></g></g></g></svg>