<svg xmlns="http://www.w3.org/2000/svg" xmlns:xlink="http://www.w3.org/1999/xlink" viewBox="0 0 150 740"><defs><style>.cls-1{fill:none;}.cls-2{clip-path:url(#clip-path);}.cls-15,.cls-3,.cls-4{opacity:0.3;}.cls-3{fill:url(#未命名漸層_4);}.cls-4{fill:url(#未命名漸層_9);}.cls-5{fill:url(#未命名漸層_558);}.cls-6{fill:url(#未命名漸層_558-2);}.cls-7{fill:url(#未命名漸層_558-3);}.cls-8{fill:url(#未命名漸層_15);}.cls-9{fill:url(#未命名漸層_558-4);}.cls-10{fill:url(#未命名漸層_558-5);}.cls-11{fill:url(#未命名漸層_558-6);}.cls-12{fill:url(#未命名漸層_15-2);}.cls-13{fill:url(#未命名漸層_15-3);}.cls-14{clip-path:url(#clip-path-2);}.cls-15{fill:#dedef4;}</style><clipPath id="clip-path"><rect class="cls-1" width="150" height="740"/></clipPath><linearGradient id="未命名漸層_4" x1="-2326.85" y1="-2607.41" x2="-1763.7" y2="-2607.41" gradientTransform="matrix(-0.07, -1.57, -0.8, 0.03, -2228.83, -2627.51)" gradientUnits="userSpaceOnUse"><stop offset="0.2" stop-color="#dedef4"/><stop offset="0.37" stop-color="#e4e4f6" stop-opacity="0.81"/><stop offset="0.74" stop-color="#f4f4fb" stop-opacity="0.34"/><stop offset="1" stop-color="#fff" stop-opacity="0"/></linearGradient><linearGradient id="未命名漸層_9" x1="-2291.1" y1="-2641.37" x2="-1709.95" y2="-2641.37" xlink:href="#未命名漸層_4"/><linearGradient id="未命名漸層_558" x1="97.82" y1="-82.94" x2="50.69" y2="-5.64" gradientTransform="translate(-3.44 266.49) rotate(5.35)" gradientUnits="userSpaceOnUse"><stop offset="0" stop-color="#1b1464"/><stop offset="1" stop-color="#92278e" stop-opacity="0.03"/></linearGradient><linearGradient id="未命名漸層_558-2" x1="147.44" y1="-297.4" x2="100.31" y2="-220.1" xlink:href="#未命名漸層_558"/><linearGradient id="未命名漸層_558-3" x1="129.88" y1="-254.12" x2="82.75" y2="-176.83" xlink:href="#未命名漸層_558"/><linearGradient id="未命名漸層_15" x1="127.39" y1="-133.93" x2="80.26" y2="-56.63" gradientTransform="translate(-3.44 266.49) rotate(5.35)" gradientUnits="userSpaceOnUse"><stop offset="0" stop-color="#fff"/><stop offset="1" stop-color="#fff" stop-opacity="0"/></linearGradient><linearGradient id="未命名漸層_558-4" x1="122.99" y1="257.45" x2="75.86" y2="334.75" xlink:href="#未命名漸層_558"/><linearGradient id="未命名漸層_558-5" x1="172.62" y1="42.99" x2="125.48" y2="120.29" xlink:href="#未命名漸層_558"/><linearGradient id="未命名漸層_558-6" x1="155.06" y1="86.27" x2="107.92" y2="163.57" xlink:href="#未命名漸層_558"/><linearGradient id="未命名漸層_15-2" x1="105.02" y1="13.55" x2="66.24" y2="77.14" xlink:href="#未命名漸層_15"/><linearGradient id="未命名漸層_15-3" x1="152.57" y1="206.46" x2="105.43" y2="283.76" xlink:href="#未命名漸層_15"/><clipPath id="clip-path-2"><rect class="cls-1" y="740" width="150" height="740"/></clipPath></defs><title>magic_bg</title><g id="圖層_1" data-name="圖層 1"><rect class="cls-1" x="-259.32" width="1304" height="2026.45"/><g class="cls-2"><path class="cls-3" d="M124.63,33.13C120,63.32,113,93.29,106.6,123A1575.66,1575.66,0,0,0,79.44,292.26C74.86,336.06,67,383.87,68.88,427.43c2.18,50.77,5.54,101.65,9.68,152.3,2.67,32.66-3.86,64.31-5.94,96.73-2.72,42.44-.76,85-6.59,127.36-.28,2.05-.63,4.22-2,5.79-4.22,4.86-37.25,9.56-45.82,11.77-13.94,3.6-29.33,4.8-43.6,2.56-24.47-3.84-42.07-17.72-53.18-39.58-21.92-43.13-12.62-95.61-33.77-138.81-11.72-23.93-28.39-29.69-41.43-49.73-26.13-40.17-35-106.94-31.22-166.38,5.84-91.86,6-184,10.53-275.63,3.93-78.6,31.22-141.52,71.32-149.67C-85.59.58-66.46,8.41-51-7.46-39.12-19.7-31.23-44.57-18.77-54.52c15.5-12.37,44.46,5.84,63.6,4.42a398.91,398.91,0,0,0,83.25-15.37C132-32.4,129.65.49,124.63,33.13Z"/><path class="cls-4" d="M-76.12,756.64Q-63.77,784-51.83,812.16C-46.42,824.88-40,838.26-28,845.22-4.24,859.1,31.19,829.8,53.13,816c5.85-3.68,8.41-64,8-104.72C60.26,635,68.52,558.7,81.27,483.37c9.15-54.05-13.44-111.1-14.67-166C65.44,265.51,81.52,217,87.6,166.13c5.68-47.58,3.47-90.3,26.67-134.73C122.76,15.14,133.21,0,143.63-15.11l34.7-50.29A510.63,510.63,0,0,0,44.69-56.79c-21,4.17-49.59,12.1-70.62,10-20.11-2-37.54-22.93-58.63-11.71-33.85,18-41.63,116.72-64,162.13a252.7,252.7,0,0,0-20.76,58.4c-5.67,25.38-8.17,53-11.75,90.64-5.22,54.89-10,110.22,4.9,162.89,18.35,64.78,13.79,169.34,40.87,220.22C-113.91,675.95-94.59,715.72-76.12,756.64Z"/><path class="cls-5" d="M63,225.09q.33-1.15.6-2.3c.23,7.65,1.3,17.39,10,19.76-3.8,1.76-6.54,5.3-8.19,9.15a43.71,43.71,0,0,0-3.32,16.46c0-7.94-3.49-26.85-15.17-23.72,5.6-1.53,9.85-2.69,12.4-8.42A85.59,85.59,0,0,0,63,225.09Z"/><path class="cls-6" d="M132.36,16.19q.33-1.15.6-2.3c.23,7.65,1.3,17.39,10,19.76-3.8,1.76-6.54,5.3-8.19,9.15a43.71,43.71,0,0,0-3.32,16.46c0-7.94-3.49-26.85-15.17-23.72,5.6-1.53,9.85-2.69,12.4-8.42A85.59,85.59,0,0,0,132.36,16.19Z"/><path class="cls-7" d="M106.46,73.65q.16-.56.29-1.13c.11,3.75.64,8.52,4.91,9.68a8.51,8.51,0,0,0-4,4.48A21.41,21.41,0,0,0,106,94.75c0-3.89-1.71-13.15-7.43-11.62,2.74-.75,4.82-1.32,6.07-4.12A41.93,41.93,0,0,0,106.46,73.65Z"/><path class="cls-8" d="M92.77,193.09q.16-.56.29-1.13c.11,3.75.64,8.52,4.91,9.68a8.51,8.51,0,0,0-4,4.48,21.41,21.41,0,0,0-1.62,8.06c0-3.89-1.71-13.15-7.43-11.62,2.74-.75,4.82-1.32,6.07-4.12A41.93,41.93,0,0,0,92.77,193.09Z"/><path class="cls-9" d="M56.27,566.35q.33-1.15.6-2.3c.23,7.65,1.3,17.39,10,19.76-3.8,1.76-6.54,5.3-8.19,9.15a43.71,43.71,0,0,0-3.32,16.46c0-7.94-3.49-26.85-15.17-23.72,5.6-1.53,9.85-2.69,12.4-8.42A85.59,85.59,0,0,0,56.27,566.35Z"/><path class="cls-10" d="M125.68,357.45q.33-1.15.6-2.3c.23,7.65,1.3,17.39,10,19.76-3.8,1.76-6.54,5.3-8.19,9.15a43.71,43.71,0,0,0-3.32,16.46c0-7.94-3.49-26.85-15.17-23.72,5.6-1.53,9.85-2.69,12.4-8.42A85.59,85.59,0,0,0,125.68,357.45Z"/><path class="cls-11" d="M99.78,414.91q.16-.56.29-1.13c.11,3.75.64,8.52,4.91,9.68a8.51,8.51,0,0,0-4,4.48A21.41,21.41,0,0,0,99.35,436c0-3.89-1.71-13.15-7.43-11.62,2.74-.75,4.82-1.32,6.07-4.12A41.93,41.93,0,0,0,99.78,414.91Z"/><path class="cls-12" d="M68,316.14q.27-.95.49-1.89c.19,6.3,1.07,14.3,8.25,16.26A14.3,14.3,0,0,0,70,338a36,36,0,0,0-2.73,13.54c0-6.53-2.87-22.09-12.48-19.52,4.6-1.26,8.1-2.21,10.2-6.92A70.42,70.42,0,0,0,68,316.14Z"/><path class="cls-13" d="M86.09,534.35q.16-.56.29-1.13c.11,3.75.64,8.52,4.91,9.68a8.51,8.51,0,0,0-4,4.48,21.41,21.41,0,0,0-1.62,8.06c0-3.89-1.71-13.15-7.43-11.62,2.74-.75,4.82-1.32,6.07-4.12A41.93,41.93,0,0,0,86.09,534.35Z"/></g><g class="cls-14"><path class="cls-15" d="M67.93,638.31c3.8.43,6.8,1.51,8.47,3.51,4.87,5.83-4,34.61-4.2,41.9-.62,19-1.44,37.59-1.7,56.28-.28,19.68-1.51,53.76-1.8,79.5-.49,44.61-5.58,126-8.5,170.5-3.55,54.16-5.32,70.84-5,125,.53,64.67,5,129.21,8.89,193.74,1.81,29.74,3.85,59.45,5.11,89.23.36,8.55,5.77,93.64,1.76,94.54-19,4.25-58.87,6.89-82.66,12.89-3,.76-6.28,1.61-9.07.27-2.38-1.15-3.78-3.64-5-6-17.18-34.19-23.21-72.76-28-110.71A2228.14,2228.14,0,0,1-66.17,954.15c2.85-41,6.82-83.21-2.4-123.7C-77.09,793.08-90,757.27-95.2,719.07c-2.4-17.75-1.39-47.53-12.32-62.34,40.58-11.55,84.06-4.79,125.8-10.95C26.66,644.54,53.27,636.65,67.93,638.31Z"/><path class="cls-15" d="M-76.09,756.63c4.35,9.33,11.17,17.56,14.51,27.1,10.33,29.42,7.75,69.53,10.92,100.57,1.84,18.06,3.69,36.15,4.13,54.3.85,34.77-3.44,69.44-6.59,104.08a1586,1586,0,0,0,35,503.28c.8,3.44,1.72,7.07,4.23,9.56s6.37,3.45,10,4.08a146,146,0,0,0,63.46-2.94l2.29-174.24C64,1220.2,70.3,1059,64.61,896.78,62.78,844.53,61,792.28,60.95,740c0-9.61.25-19.08.14-28.73-.14-12.95,1.18-25.69,1.08-38.74-14.3-2.39-28.87.92-43,4.21-18.86,4.39-37.72,8.79-56.43,13.76q-26.28,7-52.12,15.46a8.52,8.52,0,0,0-3.32,1.67c-2.65,2.52-1.1,7,1,10C-83.87,728-82,742.27-77.19,754.12Q-76.68,755.39-76.09,756.63Z"/></g></g></svg>