<svg xmlns="http://www.w3.org/2000/svg" xmlns:xlink="http://www.w3.org/1999/xlink" viewBox="0 0 150 1480"><defs><style>.cls-1{fill:none;}.cls-2{clip-path:url(#clip-path);}.cls-3,.cls-4,.cls-6{opacity:0.3;}.cls-3{fill:url(#未命名漸層_4);}.cls-4{fill:url(#未命名漸層_9);}.cls-5{clip-path:url(#clip-path-2);}.cls-6{fill:#dedef4;}.cls-7{fill:url(#未命名漸層_558);}.cls-8{fill:url(#未命名漸層_558-2);}.cls-9{fill:url(#未命名漸層_558-3);}.cls-10{fill:url(#未命名漸層_15);}.cls-11{fill:url(#未命名漸層_558-4);}.cls-12{fill:url(#未命名漸層_558-5);}.cls-13{fill:url(#未命名漸層_558-6);}.cls-14{fill:url(#未命名漸層_15-2);}.cls-15{fill:url(#未命名漸層_15-3);}.cls-16{clip-path:url(#clip-path-3);}.cls-17{fill:url(#未命名漸層_558-7);}.cls-18{fill:url(#未命名漸層_558-8);}.cls-19{fill:url(#未命名漸層_558-9);}.cls-20{fill:url(#未命名漸層_15-4);}.cls-21{fill:url(#未命名漸層_558-10);}.cls-22{fill:url(#未命名漸層_558-11);}.cls-23{fill:url(#未命名漸層_558-12);}.cls-24{fill:url(#未命名漸層_15-5);}.cls-25{fill:url(#未命名漸層_15-6);}</style><clipPath id="clip-path"><rect class="cls-1" y="-740" width="150" height="740"/></clipPath><linearGradient id="未命名漸層_4" x1="-2326.85" y1="-3347.41" x2="-1763.7" y2="-3347.41" gradientTransform="matrix(-0.07, -1.57, -0.8, 0.03, -2818.46, -3342.67)" gradientUnits="userSpaceOnUse"><stop offset="0.2" stop-color="#dedef4"/><stop offset="0.37" stop-color="#e4e4f6" stop-opacity="0.81"/><stop offset="0.74" stop-color="#f4f4fb" stop-opacity="0.34"/><stop offset="1" stop-color="#fff" stop-opacity="0"/></linearGradient><linearGradient id="未命名漸層_9" x1="-2291.1" y1="-3381.37" x2="-1709.95" y2="-3381.37" xlink:href="#未命名漸層_4"/><clipPath id="clip-path-2"><rect class="cls-1" width="150" height="740"/></clipPath><linearGradient id="未命名漸層_558" x1="185.4" y1="-116.47" x2="138.27" y2="-39.17" gradientTransform="translate(257.71 386.47) rotate(-176.85)" gradientUnits="userSpaceOnUse"><stop offset="0" stop-color="#1b1464"/><stop offset="1" stop-color="#92278e" stop-opacity="0.03"/></linearGradient><linearGradient id="未命名漸層_558-2" x1="235.03" y1="-330.93" x2="187.9" y2="-253.63" xlink:href="#未命名漸層_558"/><linearGradient id="未命名漸層_558-3" x1="217.47" y1="-287.65" x2="170.34" y2="-210.35" xlink:href="#未命名漸層_558"/><linearGradient id="未命名漸層_15" x1="214.98" y1="-167.46" x2="167.85" y2="-90.16" gradientTransform="translate(257.71 386.47) rotate(-176.85)" gradientUnits="userSpaceOnUse"><stop offset="0" stop-color="#fff"/><stop offset="1" stop-color="#fff" stop-opacity="0"/></linearGradient><linearGradient id="未命名漸層_558-4" x1="198.16" y1="274.82" x2="151.03" y2="352.12" xlink:href="#未命名漸層_558"/><linearGradient id="未命名漸層_558-5" x1="247.78" y1="60.36" x2="200.65" y2="137.66" xlink:href="#未命名漸層_558"/><linearGradient id="未命名漸層_558-6" x1="230.22" y1="103.64" x2="183.09" y2="180.94" xlink:href="#未命名漸層_558"/><linearGradient id="未命名漸層_15-2" x1="180.18" y1="30.92" x2="141.41" y2="94.51" xlink:href="#未命名漸層_15"/><linearGradient id="未命名漸層_15-3" x1="227.73" y1="223.84" x2="180.6" y2="301.13" xlink:href="#未命名漸層_15"/><clipPath id="clip-path-3"><rect class="cls-1" y="740" width="150" height="740"/></clipPath><linearGradient id="未命名漸層_558-7" x1="233.61" y1="760.21" x2="186.48" y2="837.5" gradientTransform="matrix(-1, 0.05, 0.05, 1, 257.71, 215.53)" xlink:href="#未命名漸層_558"/><linearGradient id="未命名漸層_558-8" x1="283.24" y1="545.75" x2="236.11" y2="623.04" gradientTransform="matrix(-1, 0.05, 0.05, 1, 257.71, 215.53)" xlink:href="#未命名漸層_558"/><linearGradient id="未命名漸層_558-9" x1="265.68" y1="589.02" x2="218.55" y2="666.32" gradientTransform="matrix(-1, 0.05, 0.05, 1, 257.71, 215.53)" xlink:href="#未命名漸層_558"/><linearGradient id="未命名漸層_15-4" x1="263.19" y1="709.22" x2="216.06" y2="786.52" gradientTransform="matrix(-1, 0.05, 0.05, 1, 257.71, 215.53)" xlink:href="#未命名漸層_15"/><linearGradient id="未命名漸層_558-10" x1="246.37" y1="1151.5" x2="199.24" y2="1228.8" gradientTransform="matrix(-1, 0.05, 0.05, 1, 257.71, 215.53)" xlink:href="#未命名漸層_558"/><linearGradient id="未命名漸層_558-11" x1="295.99" y1="937.04" x2="248.86" y2="1014.34" gradientTransform="matrix(-1, 0.05, 0.05, 1, 257.71, 215.53)" xlink:href="#未命名漸層_558"/><linearGradient id="未命名漸層_558-12" x1="278.44" y1="980.32" x2="231.3" y2="1057.61" gradientTransform="matrix(-1, 0.05, 0.05, 1, 257.71, 215.53)" xlink:href="#未命名漸層_558"/><linearGradient id="未命名漸層_15-5" x1="228.39" y1="907.59" x2="189.62" y2="971.19" gradientTransform="matrix(-1, 0.05, 0.05, 1, 257.71, 215.53)" xlink:href="#未命名漸層_15"/><linearGradient id="未命名漸層_15-6" x1="275.94" y1="1100.51" x2="228.81" y2="1177.81" gradientTransform="matrix(-1, 0.05, 0.05, 1, 257.71, 215.53)" xlink:href="#未命名漸層_15"/></defs><title>magic_bg</title><g id="圖層_1" data-name="圖層 1"><rect class="cls-1" x="-259.32" y="-740" width="1304" height="2026.45"/><g class="cls-2"><path class="cls-3" d="M124.63-706.87C120-676.68,113-646.71,106.6-617A1575.66,1575.66,0,0,0,79.44-447.74C74.86-403.94,67-356.13,68.88-312.57c2.18,50.77,5.54,101.65,9.68,152.3C81.23-127.61,74.7-96,72.62-63.54,69.9-21.1,71.86,21.48,66,63.82c-.28,2.05-.63,4.22-2,5.79-4.22,4.86-37.25,9.56-45.82,11.77C4.29,85-11.1,86.18-25.38,83.94-49.85,80.1-67.44,66.22-78.55,44.36-100.47,1.23-91.17-51.25-112.33-94.45c-11.72-23.93-28.39-29.69-41.43-49.73-26.13-40.17-35-106.94-31.22-166.38,5.84-91.86,6-184,10.53-275.63,3.93-78.6,31.22-141.52,71.32-149.67,17.54-3.56,36.67,4.26,52.1-11.6,11.91-12.24,19.79-37.11,32.26-47.06,15.5-12.37,44.46,5.84,63.6,4.42a398.91,398.91,0,0,0,83.25-15.37C132-772.4,129.65-739.51,124.63-706.87Z"/><path class="cls-4" d="M-76.12,16.64Q-63.77,44-51.83,72.16C-46.42,84.88-40,98.26-28,105.22-4.24,119.1,31.19,89.8,53.13,76c5.85-3.68,8.41-64,8-104.72C60.26-105,68.52-181.3,81.27-256.63c9.15-54.05-13.44-111.1-14.67-166C65.44-474.49,81.52-523,87.6-573.87c5.68-47.58,3.47-90.3,26.67-134.73,8.49-16.27,18.94-31.42,29.37-46.52l34.7-50.29a510.63,510.63,0,0,0-133.64,8.61c-21,4.17-49.59,12.1-70.62,10-20.11-2-37.54-22.93-58.63-11.71-33.85,18-41.63,116.72-64,162.13a252.7,252.7,0,0,0-20.76,58.4c-5.67,25.38-8.17,53-11.75,90.64-5.22,54.89-10,110.22,4.9,162.89,18.35,64.78,13.79,169.34,40.87,220.22C-113.91-64.05-94.59-24.28-76.12,16.64Z"/></g><g class="cls-5"><path class="cls-6" d="M67.93-101.69c3.8.43,6.8,1.51,8.47,3.51,4.87,5.83-4,34.61-4.2,41.9-.62,19-1.44,37.59-1.7,56.28C70.22,19.68,69,53.76,68.7,79.5c-.49,44.61-5.58,126-8.5,170.5-3.55,54.16-5.32,70.84-5,125,.53,64.67,5,129.21,8.89,193.74,1.81,29.74,3.85,59.45,5.11,89.23C69.56,666.51,75,751.6,71,752.5c-19,4.25-58.87,6.89-82.66,12.89-3,.76-6.28,1.61-9.07.27-2.38-1.15-3.78-3.64-5-6-17.18-34.19-23.21-72.76-28-110.71A2228.14,2228.14,0,0,1-66.17,214.15c2.85-41,6.82-83.21-2.4-123.7C-77.09,53.08-90,17.27-95.2-20.93c-2.4-17.75-1.39-47.53-12.32-62.34,40.58-11.55,84.06-4.79,125.8-10.95C26.66-95.46,53.27-103.35,67.93-101.69Z"/><path class="cls-6" d="M-76.09,16.63c4.35,9.33,11.17,17.56,14.51,27.1,10.33,29.42,7.75,69.53,10.92,100.57,1.84,18.06,3.69,36.15,4.13,54.3.85,34.77-3.44,69.44-6.59,104.08A1586,1586,0,0,0-18.08,806c.8,3.44,1.72,7.07,4.23,9.56s6.37,3.45,10,4.08a146,146,0,0,0,63.46-2.94l2.29-174.24C64,480.2,70.3,319,64.61,156.78,62.78,104.53,61,52.28,60.95,0c0-9.61.25-19.08.14-28.73-.14-12.95,1.18-25.69,1.08-38.74-14.3-2.39-28.87.92-43,4.21C.32-58.86-18.54-54.47-37.26-49.5q-26.28,7-52.12,15.46a8.52,8.52,0,0,0-3.32,1.67c-2.65,2.52-1.1,7,1,10C-83.87-12-82,2.27-77.19,14.12Q-76.68,15.39-76.09,16.63Z"/><path class="cls-7" d="M103.66,459.06q-.28,1.16-.51,2.32c-.52-7.64-2-17.32-10.78-19.36,3.73-1.91,6.33-5.55,7.84-9.45A43.71,43.71,0,0,0,102.89,416c.27,7.93,4.52,26.69,16.07,23.12-5.53,1.74-9.73,3.07-12.07,8.89A85.59,85.59,0,0,0,103.66,459.06Z"/><path class="cls-8" d="M42.33,670.47q-.28,1.16-.51,2.32c-.52-7.64-2-17.32-10.78-19.36,3.73-1.91,6.33-5.55,7.84-9.45a43.71,43.71,0,0,0,2.68-16.57c.27,7.93,4.52,26.69,16.07,23.12-5.53,1.74-9.73,3.07-12.07,8.89A85.59,85.59,0,0,0,42.33,670.47Z"/><path class="cls-9" d="M66,612.06q-.14.57-.25,1.14c-.25-3.74-1-8.48-5.28-9.48a8.51,8.51,0,0,0,3.84-4.63A21.41,21.41,0,0,0,65.63,591c.13,3.88,2.21,13.08,7.87,11.33-2.71.85-4.77,1.5-5.91,4.35A41.93,41.93,0,0,0,66,612.06Z"/><path class="cls-10" d="M75.1,492.18q-.14.57-.25,1.14c-.25-3.74-1-8.48-5.28-9.48a8.51,8.51,0,0,0,3.84-4.63,21.41,21.41,0,0,0,1.31-8.12c.13,3.88,2.21,13.08,7.87,11.33-2.71.85-4.77,1.5-5.91,4.35A41.93,41.93,0,0,0,75.1,492.18Z"/><path class="cls-11" d="M112.41,67.66q-.28,1.16-.51,2.32c-.52-7.64-2-17.32-10.78-19.36,3.73-1.91,6.33-5.55,7.84-9.45a43.71,43.71,0,0,0,2.68-16.57c.27,7.93,4.52,26.69,16.07,23.12-5.53,1.74-9.73,3.07-12.07,8.89A85.59,85.59,0,0,0,112.41,67.66Z"/><path class="cls-12" d="M51.08,279.07q-.28,1.16-.51,2.32c-.52-7.64-2-17.32-10.78-19.36,3.73-1.91,6.33-5.55,7.84-9.45A43.71,43.71,0,0,0,50.31,236c.27,7.93,4.52,26.69,16.07,23.12-5.53,1.74-9.73,3.07-12.07,8.89A85.59,85.59,0,0,0,51.08,279.07Z"/><path class="cls-13" d="M74.76,220.66q-.14.57-.25,1.14c-.25-3.74-1-8.48-5.28-9.48a8.51,8.51,0,0,0,3.84-4.63,21.41,21.41,0,0,0,1.31-8.12c.13,3.88,2.21,13.08,7.87,11.33-2.71.85-4.77,1.5-5.91,4.35A41.93,41.93,0,0,0,74.76,220.66Z"/><path class="cls-14" d="M110.32,318.12q-.23,1-.42,1.91c-.43-6.28-1.62-14.25-8.87-15.93a14.3,14.3,0,0,0,6.45-7.78,36,36,0,0,0,2.21-13.63c.22,6.52,3.72,22,13.22,19-4.55,1.43-8,2.52-9.93,7.31A70.42,70.42,0,0,0,110.32,318.12Z"/><path class="cls-15" d="M83.85,100.78q-.14.57-.25,1.14c-.25-3.74-1-8.48-5.28-9.48a8.51,8.51,0,0,0,3.84-4.63,21.41,21.41,0,0,0,1.31-8.12c.13,3.88,2.21,13.08,7.87,11.33-2.71.85-4.77,1.5-5.91,4.35A41.93,41.93,0,0,0,83.85,100.78Z"/></g><g class="cls-16"><path class="cls-6" d="M67.93,1581.69c3.8-.43,6.8-1.51,8.47-3.51,4.87-5.83-4-34.61-4.2-41.9-.62-19-1.44-37.59-1.7-56.28-.28-19.68-1.51-53.76-1.8-79.5-.49-44.61-5.58-126-8.5-170.5-3.55-54.16-5.32-70.84-5-125,.53-64.67,5-129.21,8.89-193.74,1.81-29.74,3.85-59.45,5.11-89.23C69.56,813.49,75,728.4,71,727.5c-19-4.25-58.87-6.89-82.66-12.89-3-.76-6.28-1.61-9.07-.27-2.38,1.15-3.78,3.64-5,6-17.18,34.19-23.21,72.76-28,110.71a2228.14,2228.14,0,0,0-12.39,434.78c2.85,41,6.82,83.21-2.4,123.7-8.52,37.38-21.47,73.19-26.63,111.39-2.4,17.75-1.39,47.53-12.32,62.34,40.58,11.55,84.06,4.79,125.8,10.95C26.66,1575.46,53.27,1583.35,67.93,1581.69Z"/><path class="cls-6" d="M-76.09,1463.37c4.35-9.33,11.17-17.56,14.51-27.1,10.33-29.42,7.75-69.53,10.92-100.57,1.84-18.06,3.69-36.15,4.13-54.3.85-34.77-3.44-69.44-6.59-104.08A1586,1586,0,0,1-18.08,674c.8-3.44,1.72-7.07,4.23-9.56s6.37-3.45,10-4.08a146,146,0,0,1,63.46,2.94l2.29,174.24C64,999.8,70.3,1161,64.61,1323.22c-1.83,52.24-3.64,104.5-3.66,156.78,0,9.61.25,19.08.14,28.73-.14,12.95,1.18,25.69,1.08,38.74-14.3,2.39-28.87-.92-43-4.21-18.86-4.39-37.72-8.79-56.43-13.76q-26.28-7-52.12-15.46a8.52,8.52,0,0,1-3.32-1.67c-2.65-2.52-1.1-7,1-10,7.81-10.41,9.69-24.67,14.49-36.51Q-76.68,1464.61-76.09,1463.37Z"/><path class="cls-17" d="M103.66,1020.94q-.28-1.16-.51-2.32c-.52,7.64-2,17.32-10.78,19.36,3.73,1.91,6.33,5.55,7.84,9.45a43.71,43.71,0,0,1,2.68,16.57c.27-7.93,4.52-26.69,16.07-23.12-5.53-1.74-9.73-3.07-12.07-8.89A85.59,85.59,0,0,1,103.66,1020.94Z"/><path class="cls-18" d="M42.33,809.53q-.28-1.16-.51-2.32c-.52,7.64-2,17.32-10.78,19.36,3.73,1.91,6.33,5.55,7.84,9.45a43.71,43.71,0,0,1,2.68,16.57c.27-7.93,4.52-26.69,16.07-23.12-5.53-1.74-9.73-3.07-12.07-8.89A85.59,85.59,0,0,1,42.33,809.53Z"/><path class="cls-19" d="M66,867.94q-.14-.57-.25-1.14c-.25,3.74-1,8.48-5.28,9.48a8.51,8.51,0,0,1,3.84,4.63A21.41,21.41,0,0,1,65.63,889c.13-3.88,2.21-13.08,7.87-11.33-2.71-.85-4.77-1.5-5.91-4.35A41.93,41.93,0,0,1,66,867.94Z"/><path class="cls-20" d="M75.1,987.82q-.14-.57-.25-1.14c-.25,3.74-1,8.48-5.28,9.48a8.51,8.51,0,0,1,3.84,4.63,21.41,21.41,0,0,1,1.31,8.12c.13-3.88,2.21-13.08,7.87-11.33-2.71-.85-4.77-1.5-5.91-4.35A41.93,41.93,0,0,1,75.1,987.82Z"/><path class="cls-21" d="M112.41,1412.34q-.28-1.16-.51-2.32c-.52,7.64-2,17.32-10.78,19.36,3.73,1.91,6.33,5.55,7.84,9.45a43.71,43.71,0,0,1,2.68,16.57c.27-7.93,4.52-26.69,16.07-23.12-5.53-1.74-9.73-3.07-12.07-8.89A85.59,85.59,0,0,1,112.41,1412.34Z"/><path class="cls-22" d="M51.08,1200.93q-.28-1.16-.51-2.32c-.52,7.64-2,17.32-10.78,19.36,3.73,1.91,6.33,5.55,7.84,9.45A43.71,43.71,0,0,1,50.31,1244c.27-7.93,4.52-26.69,16.07-23.12-5.53-1.74-9.73-3.07-12.07-8.89A85.59,85.59,0,0,1,51.08,1200.93Z"/><path class="cls-23" d="M74.76,1259.34q-.14-.57-.25-1.14c-.25,3.74-1,8.48-5.28,9.48a8.51,8.51,0,0,1,3.84,4.63,21.41,21.41,0,0,1,1.31,8.12c.13-3.88,2.21-13.08,7.87-11.33-2.71-.85-4.77-1.5-5.91-4.35A41.93,41.93,0,0,1,74.76,1259.34Z"/><path class="cls-24" d="M110.32,1161.88q-.23-1-.42-1.91c-.43,6.28-1.62,14.25-8.87,15.93a14.3,14.3,0,0,1,6.45,7.78,36,36,0,0,1,2.21,13.63c.22-6.52,3.72-22,13.22-19-4.55-1.43-8-2.52-9.93-7.31A70.42,70.42,0,0,1,110.32,1161.88Z"/><path class="cls-25" d="M83.85,1379.22q-.14-.57-.25-1.14c-.25,3.74-1,8.48-5.28,9.48a8.51,8.51,0,0,1,3.84,4.63,21.41,21.41,0,0,1,1.31,8.12c.13-3.88,2.21-13.08,7.87-11.33-2.71-.85-4.77-1.5-5.91-4.35A41.93,41.93,0,0,1,83.85,1379.22Z"/></g></g></svg>