<svg xmlns="http://www.w3.org/2000/svg" xmlns:xlink="http://www.w3.org/1999/xlink" viewBox="0 0 100 2960"><defs><style>.cls-1{fill:none;}.cls-2{clip-path:url(#clip-path);}.cls-3{opacity:0.2;}.cls-4{fill:#fff;}.cls-4,.cls-6,.cls-7{opacity:0.5;}.cls-5{clip-path:url(#clip-path-2);}.cls-6{fill:url(#未命名漸層_78);}.cls-7{fill:url(#未命名漸層_78-2);}.cls-8{clip-path:url(#clip-path-3);}.cls-10,.cls-9{opacity:0.3;}.cls-9{fill:url(#未命名漸層_4);}.cls-10{fill:url(#未命名漸層_9);}</style><clipPath id="clip-path"><rect class="cls-1" width="100" height="1480"/></clipPath><clipPath id="clip-path-2"><rect class="cls-1" y="1480" width="100" height="1480"/></clipPath><radialGradient id="未命名漸層_78" cx="-5361.13" cy="-1614.13" r="439.73" gradientTransform="matrix(0, -2.37, -0.89, 0, -1535.11, -10864.67)" gradientUnits="userSpaceOnUse"><stop offset="0" stop-color="#fff"/><stop offset="1" stop-color="#efedf4"/></radialGradient><radialGradient id="未命名漸層_78-2" cx="-5345.92" cy="-1609.81" r="562.45" gradientTransform="matrix(0, -2.37, -0.42, 0, -769.66, -10864.67)" xlink:href="#未命名漸層_78"/><clipPath id="clip-path-3"><rect class="cls-1" x="259.32" width="150" height="740"/></clipPath><linearGradient id="未命名漸層_4" x1="-2067.54" y1="-2607.41" x2="-1504.39" y2="-2607.41" gradientTransform="matrix(-0.07, -1.57, -0.8, 0.03, -1952.38, -2220.8)" gradientUnits="userSpaceOnUse"><stop offset="0.2" stop-color="#dedef4"/><stop offset="0.37" stop-color="#e4e4f6" stop-opacity="0.81"/><stop offset="0.74" stop-color="#f4f4fb" stop-opacity="0.34"/><stop offset="1" stop-color="#fff" stop-opacity="0"/></linearGradient><linearGradient id="未命名漸層_9" x1="-2031.78" y1="-2641.37" x2="-1450.63" y2="-2641.37" xlink:href="#未命名漸層_4"/></defs><title>magic_bg</title><g id="圖層_1" data-name="圖層 1"><rect class="cls-1" width="1304" height="2026.45"/><g class="cls-2"><g class="cls-3"><path class="cls-4" d="M55.13,539.82c-1.68-69.93.29-133.23,6.75-199.9,12.95-133.54,2-272.58,2.65-412.64.08-15.93-2.26-32.69-10.86-45.68C49.29-125,43.3-130.21,37.22-135.07c-19-15.21-42.5-25.31-58.25-43.06-16.43-18.51-26.86-42.2-45-60-27.81-27.32-58.64-42.4-87.08-20.1-34.66,27.18-60.36,105.54-78,189.22-45,213.37-48.67,469.86-44.25,714.06,5.86,323.44,24,646,19.34,969.55-1.83,127.69-7.21,255.49-3.9,383s16.13,257.42,46.54,356.5c21.55,70.2,51.44,122.12,84.31,146.43,20.25,15,42.48,19.28,61.87-2.29,31.66-35.22,37.5-92.35,46.66-137.77,8.9-44.18,39.56-72.4,50.63-116.92,16.61-66.8,10.13-144.48,14.53-213.4,10.22-160,40.79-319.84,43.62-480.11,3.58-202.33-1.42-403.33-4.41-618.4C82,800.63,58.33,672.74,55.13,539.82Z"/><path class="cls-4" d="M-5.48-126C50-55,38.52,0,41.33,67.33c5.83,139.54,28.62,273.49,30.54,411.76,1.22,87.73-2.33,175.35-4.51,262.95-1.56,62.73-5,124.13-4.23,186.86C64.65,1060,86.91,1197.2,87.85,1323.83c.39,53.12,1.6,105.25,1,157-2.86,248.25-18.43,484.08-44.46,736.6-1.1,10.7-2.29,21.71-7.11,31.15-3.81,7.46-9.66,13.46-15.55,19.16-27.44,26.54-58.7,43-76.56,78.11-18.5,36.38-33.28,82.16-72.67,99.15-18.45,8-38.11,3.44-54.52-20.29-21.15-30.58-34.44-88.53-44.89-146.11-38.63-213-50.88-450.79-55.43-684.54-2.78-142.71-1.54-283.62.13-426.36,1-89.8,2.26-179.59,2.74-269.43q1.15-218.67-1.28-437.34c-1.07-95.66-2.6-192.71,5.79-285.79C-267,87-250.42,5.78-230.46-67.72-220.07-106-23.57-149.14-5.48-126Z"/></g></g><g class="cls-5"><g class="cls-3"><path class="cls-6" d="M55.13,2420.18c-1.68,69.93.29,133.23,6.75,199.9,12.95,133.54,2,272.58,2.65,412.64.08,15.93-2.26,32.69-10.86,45.68-4.38,6.63-10.38,11.81-16.45,16.67-19,15.21-42.5,25.31-58.25,43.06-16.43,18.51-26.86,42.2-45,60-27.81,27.32-58.64,42.4-87.08,20.1-34.66-27.18-60.36-105.54-78-189.22-45-213.37-48.67-469.86-44.25-714.06,5.86-323.44,24-646,19.34-969.55-1.83-127.69-7.21-255.49-3.9-383s16.13-257.42,46.54-356.5c21.55-70.2,51.44-122.12,84.31-146.43,20.25-15,42.48-19.28,61.87,2.29,31.66,35.22,37.5,92.35,46.66,137.77C-11.62,643.75,19,672,30.11,716.49,46.72,783.29,40.24,861,44.64,929.89c10.22,160,40.79,319.84,43.62,480.11,3.58,202.33-1.42,403.33-4.41,618.4C82,2159.37,58.33,2287.26,55.13,2420.18Z"/><path class="cls-7" d="M-5.48,3086c55.48-71,44-126,46.81-193.33,5.83-139.54,28.62-273.49,30.54-411.76,1.22-87.73-2.33-175.35-4.51-262.95-1.56-62.73-5-124.13-4.23-186.86C64.65,1900,86.91,1762.8,87.85,1636.17c.39-53.12,1.6-105.25,1-157C86,1230.91,70.41,995.08,44.39,742.57c-1.1-10.7-2.29-21.71-7.11-31.15C33.46,704,27.62,698,21.72,692.26c-27.44-26.54-58.7-43-76.56-78.11C-73.34,577.77-88.11,532-127.51,515c-18.45-8-38.11-3.44-54.52,20.29-21.15,30.58-34.44,88.53-44.89,146.11-38.63,213-50.88,450.79-55.43,684.54-2.78,142.71-1.54,283.62.13,426.36,1,89.8,2.26,179.59,2.74,269.43q1.15,218.67-1.28,437.34c-1.07,95.66-2.6,192.71,5.79,285.79,7.94,88.11,24.54,169.37,44.51,242.87C-220.07,3066-23.57,3109.14-5.48,3086Z"/></g></g><g class="cls-8"><path class="cls-9" d="M383.94,33.13c-4.65,30.19-11.59,60.16-18,89.85a1575.66,1575.66,0,0,0-27.16,169.28c-4.58,43.81-12.43,91.61-10.56,135.17,2.18,50.77,5.54,101.65,9.68,152.3,2.67,32.66-3.86,64.31-5.94,96.73-2.72,42.44-.76,85-6.59,127.36-.28,2.05-.63,4.22-2,5.79-4.22,4.86-37.25,9.56-45.82,11.77-13.94,3.6-29.33,4.8-43.6,2.56-24.47-3.84-42.07-17.72-53.18-39.58-21.92-43.13-12.62-95.61-33.77-138.81-11.72-23.93-28.39-29.69-41.43-49.73-26.13-40.17-35-106.94-31.22-166.38,5.84-91.86,6-184,10.53-275.63C88.8,75.22,116.09,12.29,156.19,4.15c17.54-3.56,36.67,4.26,52.1-11.6,11.91-12.24,19.79-37.11,32.26-47.06,15.5-12.37,44.46,5.84,63.6,4.42a398.91,398.91,0,0,0,83.25-15.37C391.3-32.4,389,.49,383.94,33.13Z"/><path class="cls-10" d="M183.2,756.64q12.35,27.35,24.29,55.52c5.41,12.73,11.84,26.11,23.78,33.07,23.8,13.87,59.23-15.42,81.17-29.23,5.85-3.68,8.41-64,8-104.72-.83-76.29,7.44-152.57,20.18-227.9,9.15-54.05-13.44-111.1-14.67-166-1.16-51.88,14.92-100.34,21-151.26,5.68-47.58,3.47-90.3,26.67-134.73C382.07,15.14,392.52,0,402.94-15.11l34.7-50.29A510.63,510.63,0,0,0,304-56.79c-21,4.17-49.59,12.1-70.62,10-20.11-2-37.54-22.93-58.63-11.71-33.85,18-41.63,116.72-64,162.13A252.7,252.7,0,0,0,90,162.07c-5.67,25.38-8.17,53-11.75,90.64-5.22,54.89-10,110.22,4.9,162.89C101.52,480.39,97,584.95,124,635.83,145.4,675.95,164.73,715.72,183.2,756.64Z"/></g></g></svg>