<svg xmlns="http://www.w3.org/2000/svg" xmlns:xlink="http://www.w3.org/1999/xlink" viewBox="0 0 150 740"><defs><style>.cls-1{fill:none;}.cls-2{clip-path:url(#clip-path);}.cls-3,.cls-4{opacity:0.3;}.cls-3{fill:url(#未命名漸層_5);}.cls-4{fill:url(#未命名漸層_3);}.cls-5{fill:url(#未命名漸層_558);}.cls-6{fill:url(#未命名漸層_558-2);}.cls-7{fill:url(#未命名漸層_558-3);}.cls-8{fill:url(#未命名漸層_15);}.cls-9{fill:url(#未命名漸層_15-2);}.cls-10{fill:url(#未命名漸層_558-4);}.cls-11{fill:url(#未命名漸層_558-5);}.cls-12{fill:url(#未命名漸層_558-6);}.cls-13{fill:url(#未命名漸層_15-3);}.cls-14{fill:url(#未命名漸層_15-4);}</style><clipPath id="clip-path"><rect class="cls-1" width="150" height="740"/></clipPath><linearGradient id="未命名漸層_5" x1="-2501.17" y1="-3144.86" x2="-1969.08" y2="-3144.86" gradientTransform="matrix(-0.07, -1.57, -0.8, 0.03, -2466.34, -2976.93)" gradientUnits="userSpaceOnUse"><stop offset="0.2" stop-color="#dedef4"/><stop offset="0.37" stop-color="#e4e4f6" stop-opacity="0.81"/><stop offset="0.74" stop-color="#f4f4fb" stop-opacity="0.34"/><stop offset="1" stop-color="#fff" stop-opacity="0"/></linearGradient><linearGradient id="未命名漸層_3" x1="-2517.35" y1="-3144.15" x2="-1945.55" y2="-3144.15" xlink:href="#未命名漸層_5"/><linearGradient id="未命名漸層_558" x1="-6238" y1="592.28" x2="-6285.14" y2="669.57" gradientTransform="matrix(-1, 0.09, 0.09, 1, -6199.22, 287.26)" gradientUnits="userSpaceOnUse"><stop offset="0" stop-color="#1b1464"/><stop offset="1" stop-color="#92278e" stop-opacity="0.03"/></linearGradient><linearGradient id="未命名漸層_558-2" x1="-6188.38" y1="377.82" x2="-6235.51" y2="455.11" xlink:href="#未命名漸層_558"/><linearGradient id="未命名漸層_558-3" x1="-6205.94" y1="421.09" x2="-6253.07" y2="498.39" xlink:href="#未命名漸層_558"/><linearGradient id="未命名漸層_15" x1="-6255.98" y1="348.37" x2="-6294.76" y2="411.96" gradientTransform="matrix(-1, 0.09, 0.09, 1, -6199.22, 287.26)" gradientUnits="userSpaceOnUse"><stop offset="0" stop-color="#fff"/><stop offset="1" stop-color="#fff" stop-opacity="0"/></linearGradient><linearGradient id="未命名漸層_15-2" x1="-6208.43" y1="541.29" x2="-6255.56" y2="618.59" xlink:href="#未命名漸層_15"/><linearGradient id="未命名漸層_558-4" x1="-6209.09" y1="950.79" x2="-6256.22" y2="1028.09" xlink:href="#未命名漸層_558"/><linearGradient id="未命名漸層_558-5" x1="-6156.49" y1="755.86" x2="-6203.62" y2="833.16" xlink:href="#未命名漸層_558"/><linearGradient id="未命名漸層_558-6" x1="-6174.05" y1="799.14" x2="-6221.18" y2="876.43" xlink:href="#未命名漸層_558"/><linearGradient id="未命名漸層_15-3" x1="-6224.09" y1="726.41" x2="-6262.87" y2="790.01" xlink:href="#未命名漸層_15"/><linearGradient id="未命名漸層_15-4" x1="-6176.54" y1="919.33" x2="-6223.67" y2="996.63" xlink:href="#未命名漸層_15"/></defs><title>magic_bg</title><g id="圖層_1" data-name="圖層 1"><rect class="cls-1" x="-482.1" width="1304" height="2026.45"/><g class="cls-2"><path class="cls-3" d="M191.5,703.54c-10.65,19.26-21.14,42.19-40.55,54.19-9.36,5.79-59.82,26.59-67.37,16.1-2.19-3-6.16-3.08-6.17-6.83,0-7.21,2.1-19.79,2.09-27-.25-118-12.19-237.32-15.68-355.23C62,321.88,63.5,258.21,50.92,196.23c-4.48-22.09-7-43.8-11.52-65.67-2-9.54-5.07-18.79-8-28.09A645.27,645.27,0,0,1,4.86-29.84c25.91,2.49,53.88-7.51,80.28-7.28,24.84.21,44.8-1.54,68.3-9.75,23.88-8.34,51.92-26.5,77-11.49C249-47.25,267.93-30.43,280.22.75c2,5.09,3.9,10.45,5.69,16C297,51.42,304.18,94.18,310.28,131.59c8.41,51.59,24.93,97,32.53,149.08,6.67,45.74,2.29,93.47-8.15,133.55C325,451.44,302.32,477.89,299,520.59c-1.53,19.46.45,39.79-.4,59.49-1.32,30.37-10.18,64.51-25,76.12-17.49,13.7-35.88-17.25-54.08-2.93C207.15,663,200.81,686.71,191.5,703.54Z"/><path class="cls-4" d="M41.76,164.09a221.36,221.36,0,0,0,11.76,43.58c11.6,29.91,9.55,48.52,5.91,81.12-7.14,64-15,128.29,3,191.32,16.32,57.1,22,131.52,24.44,190.38,1.17,28.17,1.52,46.82,2.14,69.5.73,26.52,0,55.27-1.63,86.67,16.31-1.2,24.65.67,40.49,4.76,9.65,2.49,19.58,6,29.33,3.91,10.68-2.27,18.86-10.77,25.47-19.46,30.14-39.68,40.87-90.74,55-137.16,10-32.79,13.87-59.61,30.94-81.62,23.11-29.79,50.78-34.63,65.14-87.54,19.53-72-6.82-152.68,1.27-229.28,4.87-46,13.5-96.9-8.22-135.09-21-36.87-43.38-55-52.2-112.46C271.39,11.31,269.17-11,263.76-30.8c-13.12-48.08-38.47-36-58.89-25.78-16.2,8.07-33.17-5.34-49.75-1.4C142.74-55,134.58-44.61,122-40.94c-19.28,5.63-39.28-.12-58.53,6.41C43.75-27.82,25.16-19.11,4.64-13.35,19.13,22.12,40.11,60.14,41.94,99.26,43,121.39,37.94,141.27,41.76,164.09Z"/><path class="cls-5" d="M105.57,327.28q-.33-1.15-.6-2.3c-.23,7.65-1.3,17.39-10,19.76,3.8,1.76,6.54,5.3,8.19,9.15a43.71,43.71,0,0,1,3.32,16.46c0-7.94,3.49-26.85,15.17-23.72-5.6-1.53-9.85-2.69-12.4-8.42A85.59,85.59,0,0,1,105.57,327.28Z"/><path class="cls-6" d="M36.16,118.38q-.33-1.15-.6-2.3c-.23,7.65-1.3,17.39-10,19.76,3.8,1.76,6.54,5.3,8.19,9.15A43.71,43.71,0,0,1,37,161.44c0-7.94,3.49-26.85,15.17-23.72-5.6-1.53-9.85-2.69-12.4-8.42A85.59,85.59,0,0,1,36.16,118.38Z"/><path class="cls-7" d="M62.06,175.84q-.16-.56-.29-1.13c-.11,3.75-.64,8.52-4.91,9.68a8.51,8.51,0,0,1,4,4.48,21.41,21.41,0,0,1,1.62,8.06c0-3.89,1.71-13.15,7.43-11.62-2.74-.75-4.82-1.32-6.07-4.12A41.93,41.93,0,0,1,62.06,175.84Z"/><path class="cls-8" d="M93.85,77.07q-.27-.95-.49-1.89c-.19,6.3-1.07,14.3-8.25,16.26A14.3,14.3,0,0,1,91.85,99a36,36,0,0,1,2.73,13.54c0-6.53,2.87-22.09,12.48-19.52-4.6-1.26-8.1-2.21-10.2-6.92A70.42,70.42,0,0,1,93.85,77.07Z"/><path class="cls-9" d="M75.75,295.28q-.16-.56-.29-1.13c-.11,3.75-.64,8.52-4.91,9.68a8.51,8.51,0,0,1,4,4.48,21.41,21.41,0,0,1,1.62,8.06c0-3.89,1.71-13.15,7.43-11.62-2.74-.75-4.82-1.32-6.07-4.12A41.93,41.93,0,0,1,75.75,295.28Z"/><path class="cls-10" d="M110.21,686.93q-.33-1.15-.6-2.3c-.23,7.65-1.3,17.39-10,19.76,3.8,1.76,6.54,5.3,8.19,9.15A43.71,43.71,0,0,1,111.1,730c0-7.94,3.49-26.85,15.17-23.72-5.6-1.53-9.85-2.69-12.4-8.42A85.59,85.59,0,0,1,110.21,686.93Z"/><path class="cls-11" d="M39.66,497.75q-.33-1.15-.6-2.3c-.23,7.65-1.3,17.39-10,19.76,3.8,1.76,6.54,5.3,8.19,9.15a43.71,43.71,0,0,1,3.32,16.46c0-7.94,3.49-26.85,15.17-23.72-5.6-1.53-9.85-2.69-12.4-8.42A85.59,85.59,0,0,1,39.66,497.75Z"/><path class="cls-12" d="M65.57,555.21q-.16-.56-.29-1.13c-.11,3.75-.64,8.52-4.91,9.68a8.51,8.51,0,0,1,4,4.48A21.41,21.41,0,0,1,66,576.3c0-3.89,1.71-13.15,7.43-11.62-2.74-.75-4.82-1.32-6.07-4.12A41.93,41.93,0,0,1,65.57,555.21Z"/><path class="cls-13" d="M97.36,456.44q-.27-.95-.49-1.89c-.19,6.3-1.07,14.3-8.25,16.26a14.3,14.3,0,0,1,6.74,7.53,36,36,0,0,1,2.73,13.54c0-6.53,2.87-22.09,12.48-19.52-4.6-1.26-8.1-2.21-10.2-6.92A70.42,70.42,0,0,1,97.36,456.44Z"/><path class="cls-14" d="M79.26,674.64q-.16-.56-.29-1.13c-.11,3.75-.64,8.52-4.91,9.68a8.51,8.51,0,0,1,4,4.48,21.41,21.41,0,0,1,1.62,8.06c0-3.89,1.71-13.15,7.43-11.62-2.74-.75-4.82-1.32-6.07-4.12A41.93,41.93,0,0,1,79.26,674.64Z"/></g></g></svg>