<svg xmlns="http://www.w3.org/2000/svg" xmlns:xlink="http://www.w3.org/1999/xlink" viewBox="0 0 100 1480"><defs><style>.cls-1,.cls-3{fill:none;}.cls-2{clip-path:url(#clip-path);}.cls-3{stroke:#a25c3e;stroke-miterlimit:10;stroke-width:2px;}.cls-4{clip-path:url(#clip-path-2);}.cls-5{clip-path:url(#clip-path-3);}.cls-6{opacity:0.2;}.cls-7{fill:#fff;}.cls-10,.cls-7,.cls-9{opacity:0.5;}.cls-8{clip-path:url(#clip-path-4);}.cls-9{fill:url(#未命名漸層_78);}.cls-10{fill:url(#未命名漸層_78-2);}</style><clipPath id="clip-path"><rect class="cls-1" x="-0.5" width="101" height="740"/></clipPath><clipPath id="clip-path-2"><rect class="cls-1" x="-0.5" y="740" width="101" height="740"/></clipPath><clipPath id="clip-path-3"><rect class="cls-1" x="239.48" width="100" height="1480"/></clipPath><clipPath id="clip-path-4"><rect class="cls-1" x="239.48" y="1480" width="100" height="1480"/></clipPath><radialGradient id="未命名漸層_78" cx="-5121.65" cy="-1614.13" r="439.73" gradientTransform="matrix(0, -2.37, -0.89, 0, -1295.63, -10297.24)" gradientUnits="userSpaceOnUse"><stop offset="0" stop-color="#fff"/><stop offset="1" stop-color="#efedf4"/></radialGradient><radialGradient id="未命名漸層_78-2" cx="-5106.44" cy="-1609.81" r="562.45" gradientTransform="matrix(0, -2.37, -0.42, 0, -530.17, -10297.24)" xlink:href="#未命名漸層_78"/></defs><title>magic_bg</title><g id="圖層_1" data-name="圖層 1"><g class="cls-2"><path class="cls-3" d="M19.27-17.83C21.3,132.11,25.09,282,21.4,432c-2,82.6,2.22,163.81-.42,246.1a2231.88,2231.88,0,0,0,7.18,264.21"/><path class="cls-3" d="M35.28-37.32Q35,23.6,34,84.5C31.86,209,32.71,333.45,34.53,457.9q1.36,93.42,3.21,186.84c1.05,57-5.13,114.66-4.63,172.24q.43,49.87,2.53,99.72"/><path class="cls-3" d="M47.06-17.83c1.54,153-9.06,443.5-12.74,461.08"/><path class="cls-3" d="M36.88,409.38c7,169.13-12.25,336.91,11.28,504.54"/><path class="cls-3" d="M50.12,917.45c-9.6-74.67-1-148.17-4.22-223.14-1-22.76-2.51-45.51-2.22-68.28.49-37.79,6-75.31,8.59-113C59.4,408,39.6,303.68,48.59,199c2.87-33.41-1.55-63.26-2.14-95.28"/><path class="cls-3" d="M53.45,489c-.54,53.24-.1,106-.63,159.25C52.49,680.72,54,712,54,745.66c-.05,62.91,15,125.8,7.38,188.25"/></g><g class="cls-4"><path class="cls-3" d="M19.27,1497.83c2-149.94,5.82-299.86,2.14-449.79-2-82.6,2.22-163.81-.42-246.1a2231.88,2231.88,0,0,1,7.18-264.21"/><path class="cls-3" d="M35.28,1517.32Q35,1456.4,34,1395.5c-2.11-124.46-1.26-248.94.56-373.39q1.36-93.42,3.21-186.84c1.05-57-5.13-114.66-4.63-172.24q.43-49.87,2.53-99.72"/><path class="cls-3" d="M47.06,1497.83c1.54-153-9.06-443.5-12.74-461.08"/><path class="cls-3" d="M36.88,1070.62c7-169.13-12.25-336.91,11.28-504.54"/><path class="cls-3" d="M50.12,562.55c-9.6,74.67-1,148.17-4.22,223.14-1,22.76-2.51,45.51-2.22,68.28.49,37.79,6,75.31,8.59,113,7.13,105-12.66,209.33-3.68,314,2.87,33.41-1.55,63.26-2.14,95.28"/><path class="cls-3" d="M53.45,991c-.54-53.24-.1-106-.63-159.25C52.49,799.28,54,768,54,734.34c-.05-62.91,15-125.8,7.38-188.25"/></g><g class="cls-5"><g class="cls-6"><path class="cls-7" d="M294.62,539.82c-1.68-69.93.29-133.23,6.75-199.9,12.95-133.54,2-272.58,2.65-412.64.08-15.93-2.26-32.69-10.86-45.68-4.38-6.63-10.38-11.81-16.45-16.67-19-15.21-42.5-25.31-58.25-43.06-16.43-18.51-26.86-42.2-45-60-27.81-27.32-58.64-42.4-87.08-20.1C51.74-231.07,26-152.71,8.39-69-36.59,144.35-40.28,400.83-35.85,645c5.86,323.44,24,646,19.34,969.55-1.83,127.69-7.21,255.49-3.9,383S-4.28,2255,26.13,2354.07c21.55,70.2,51.44,122.12,84.31,146.43,20.25,15,42.48,19.28,61.87-2.29C204,2463,209.81,2405.85,219,2360.43c8.9-44.18,39.56-72.4,50.63-116.92,16.61-66.8,10.13-144.48,14.53-213.4,10.22-160,40.79-319.84,43.62-480.11,3.58-202.33-1.42-403.33-4.41-618.4C321.51,800.63,297.82,672.74,294.62,539.82Z"/><path class="cls-7" d="M234-126C289.48-55,278,0,280.81,67.33c5.83,139.54,28.62,273.49,30.54,411.76,1.22,87.73-2.33,175.35-4.51,262.95-1.56,62.73-5,124.13-4.23,186.86,1.52,131.08,23.79,268.31,24.72,394.94.39,53.12,1.6,105.25,1,157-2.86,248.25-18.43,484.08-44.46,736.6-1.1,10.7-2.29,21.71-7.11,31.15-3.81,7.46-9.66,13.46-15.55,19.16-27.44,26.54-58.7,43-76.56,78.11C166.15,2382.23,151.37,2428,112,2445c-18.45,8-38.11,3.44-54.52-20.29C36.32,2394.13,23,2336.18,12.58,2278.6c-38.63-213-50.88-450.79-55.43-684.54-2.78-142.71-1.54-283.62.13-426.36,1-89.8,2.26-179.59,2.74-269.43q1.15-218.67-1.28-437.34c-1.07-95.66-2.6-192.71,5.79-285.79C-27.54,87-10.93,5.78,9-67.72,19.41-106,215.91-149.14,234-126Z"/></g></g><g class="cls-8"><g class="cls-6"><path class="cls-9" d="M294.62,2420.18c-1.68,69.93.29,133.23,6.75,199.9,12.95,133.54,2,272.58,2.65,412.64.08,15.93-2.26,32.69-10.86,45.68-4.38,6.63-10.38,11.81-16.45,16.67-19,15.21-42.5,25.31-58.25,43.06-16.43,18.51-26.86,42.2-45,60-27.81,27.32-58.64,42.4-87.08,20.1C51.74,3191.07,26,3112.71,8.39,3029c-45-213.37-48.67-469.86-44.25-714.06,5.86-323.44,24-646,19.34-969.55-1.83-127.69-7.21-255.49-3.9-383S-4.28,705,26.13,605.93c21.55-70.2,51.44-122.12,84.31-146.43,20.25-15,42.48-19.28,61.87,2.29C204,497,209.81,554.15,219,599.57c8.9,44.18,39.56,72.4,50.63,116.92,16.61,66.8,10.13,144.48,14.53,213.4,10.22,160,40.79,319.84,43.62,480.11,3.58,202.33-1.42,403.33-4.41,618.4C321.51,2159.37,297.82,2287.26,294.62,2420.18Z"/><path class="cls-10" d="M234,3086c55.48-71,44-126,46.81-193.33,5.83-139.54,28.62-273.49,30.54-411.76,1.22-87.73-2.33-175.35-4.51-262.95-1.56-62.73-5-124.13-4.23-186.86,1.52-131.08,23.79-268.31,24.72-394.94.39-53.12,1.6-105.25,1-157-2.86-248.25-18.43-484.08-44.46-736.6-1.1-10.7-2.29-21.71-7.11-31.15-3.81-7.46-9.66-13.46-15.55-19.16-27.44-26.54-58.7-43-76.56-78.11C166.15,577.77,151.37,532,112,515c-18.45-8-38.11-3.44-54.52,20.29C36.32,565.87,23,623.82,12.58,681.4c-38.63,213-50.88,450.79-55.43,684.54-2.78,142.71-1.54,283.62.13,426.36,1,89.8,2.26,179.59,2.74,269.43q1.15,218.67-1.28,437.34c-1.07,95.66-2.6,192.71,5.79,285.79C-27.54,2873-10.93,2954.22,9,3027.72,19.41,3066,215.91,3109.14,234,3086Z"/></g></g></g></svg>